<?xml version="1.0" encoding="UTF-8"?>
<svg width="556px" height="184px" viewBox="0 0 556 184" version="1.1" xmlns="http://www.w3.org/2000/svg" xmlns:xlink="http://www.w3.org/1999/xlink">
    <title>Plank</title>
    <defs>
        <path d="M1.89282329,-1.89826594e-16 L40.9264693,-2.14199817e-15 C41.5846452,1.24456262e-15 41.8233157,0.0685297759 42.063935,0.197214369 C42.3045542,0.325898962 42.4933936,0.514738373 42.6220782,0.755357641 C42.7507628,0.99597691 42.8192926,1.23464739 42.8192926,1.89282329 L42.8192926,41.664733 C42.8192926,42.3229089 42.7507628,42.5615794 42.6220782,42.8021986 C42.4933936,43.0428179 42.3045542,43.2316573 42.063935,43.3603419 C41.8233157,43.4890265 41.5846452,43.5575563 40.9264693,43.5575563 L1.89282329,43.5575563 C1.23464739,43.5575563 0.99597691,43.4890265 0.755357641,43.3603419 C0.514738373,43.2316573 0.325898962,43.0428179 0.197214369,42.8021986 C0.0685297759,42.5615794 1.61345937e-16,42.3229089 -2.77690086e-16,41.664733 L5.09815508e-17,1.89282329 C-2.96217492e-17,1.23464739 0.0685297759,0.99597691 0.197214369,0.755357641 C0.325898962,0.514738373 0.514738373,0.325898962 0.755357641,0.197214369 C0.99597691,0.0685297759 1.23464739,1.10294718e-16 1.89282329,-1.89826594e-16 Z" id="path-1"></path>
        <filter x="-1.2%" y="-1.1%" width="102.3%" height="104.6%" filterUnits="objectBoundingBox" id="filter-2">
            <feOffset dx="0" dy="1" in="SourceAlpha" result="shadowOffsetOuter1"></feOffset>
            <feColorMatrix values="0 0 0 0 0.433395607   0 0 0 0 0.433395607   0 0 0 0 0.433395607  0 0 0 0.5 0" type="matrix" in="shadowOffsetOuter1"></feColorMatrix>
        </filter>
        <path d="M1.89282329,-1.89826594e-16 L87.4370803,7.64723263e-17 C88.0952561,-4.44326238e-17 88.3339266,0.0685297759 88.5745459,0.197214369 C88.8151652,0.325898962 89.0040046,0.514738373 89.1326892,0.755357641 C89.2613738,0.99597691 89.3299035,1.23464739 89.3299035,1.89282329 L89.3299035,41.664733 C89.3299035,42.3229089 89.2613738,42.5615794 89.1326892,42.8021986 C89.0040046,43.0428179 88.8151652,43.2316573 88.5745459,43.3603419 C88.3339266,43.4890265 88.0952561,43.5575563 87.4370803,43.5575563 L1.89282329,43.5575563 C1.23464739,43.5575563 0.99597691,43.4890265 0.755357641,43.3603419 C0.514738373,43.2316573 0.325898962,43.0428179 0.197214369,42.8021986 C0.0685297759,42.5615794 -8.26585469e-16,42.3229089 1.42262393e-15,41.664733 L1.64335818e-16,1.89282329 C-9.54838429e-17,1.23464739 0.0685297759,0.99597691 0.197214369,0.755357641 C0.325898962,0.514738373 0.514738373,0.325898962 0.755357641,0.197214369 C0.99597691,0.0685297759 1.23464739,1.10294718e-16 1.89282329,-1.89826594e-16 Z" id="path-3"></path>
        <filter x="-0.6%" y="-1.1%" width="101.1%" height="104.6%" filterUnits="objectBoundingBox" id="filter-4">
            <feOffset dx="0" dy="1" in="SourceAlpha" result="shadowOffsetOuter1"></feOffset>
            <feColorMatrix values="0 0 0 0 0.433395607   0 0 0 0 0.433395607   0 0 0 0 0.433395607  0 0 0 0.5 0" type="matrix" in="shadowOffsetOuter1"></feColorMatrix>
        </filter>
        <path d="M1.89282329,-1.89826594e-16 L40.9264693,-2.14199817e-15 C41.5846452,1.24456262e-15 41.8233157,0.0685297759 42.063935,0.197214369 C42.3045542,0.325898962 42.4933936,0.514738373 42.6220782,0.755357641 C42.7507628,0.99597691 42.8192926,1.23464739 42.8192926,1.89282329 L42.8192926,41.664733 C42.8192926,42.3229089 42.7507628,42.5615794 42.6220782,42.8021986 C42.4933936,43.0428179 42.3045542,43.2316573 42.063935,43.3603419 C41.8233157,43.4890265 41.5846452,43.5575563 40.9264693,43.5575563 L1.89282329,43.5575563 C1.23464739,43.5575563 0.99597691,43.4890265 0.755357641,43.3603419 C0.514738373,43.2316573 0.325898962,43.0428179 0.197214369,42.8021986 C0.0685297759,42.5615794 1.61345937e-16,42.3229089 -2.77690086e-16,41.664733 L5.09815508e-17,1.89282329 C-2.96217492e-17,1.23464739 0.0685297759,0.99597691 0.197214369,0.755357641 C0.325898962,0.514738373 0.514738373,0.325898962 0.755357641,0.197214369 C0.99597691,0.0685297759 1.23464739,1.10294718e-16 1.89282329,-1.89826594e-16 Z" id="path-5"></path>
        <filter x="-1.2%" y="-1.1%" width="102.3%" height="104.6%" filterUnits="objectBoundingBox" id="filter-6">
            <feOffset dx="0" dy="1" in="SourceAlpha" result="shadowOffsetOuter1"></feOffset>
            <feColorMatrix values="0 0 0 0 0.433395607   0 0 0 0 0.433395607   0 0 0 0 0.433395607  0 0 0 0.5 0" type="matrix" in="shadowOffsetOuter1"></feColorMatrix>
        </filter>
        <path d="M1.89282329,-1.89826594e-16 L40.9264693,-2.14199817e-15 C41.5846452,1.24456262e-15 41.8233157,0.0685297759 42.063935,0.197214369 C42.3045542,0.325898962 42.4933936,0.514738373 42.6220782,0.755357641 C42.7507628,0.99597691 42.8192926,1.23464739 42.8192926,1.89282329 L42.8192926,41.664733 C42.8192926,42.3229089 42.7507628,42.5615794 42.6220782,42.8021986 C42.4933936,43.0428179 42.3045542,43.2316573 42.063935,43.3603419 C41.8233157,43.4890265 41.5846452,43.5575563 40.9264693,43.5575563 L1.89282329,43.5575563 C1.23464739,43.5575563 0.99597691,43.4890265 0.755357641,43.3603419 C0.514738373,43.2316573 0.325898962,43.0428179 0.197214369,42.8021986 C0.0685297759,42.5615794 1.61345937e-16,42.3229089 -2.77690086e-16,41.664733 L5.09815508e-17,1.89282329 C-2.96217492e-17,1.23464739 0.0685297759,0.99597691 0.197214369,0.755357641 C0.325898962,0.514738373 0.514738373,0.325898962 0.755357641,0.197214369 C0.99597691,0.0685297759 1.23464739,1.10294718e-16 1.89282329,-1.89826594e-16 Z" id="path-7"></path>
        <filter x="-1.2%" y="-1.1%" width="102.3%" height="104.6%" filterUnits="objectBoundingBox" id="filter-8">
            <feOffset dx="0" dy="1" in="SourceAlpha" result="shadowOffsetOuter1"></feOffset>
            <feColorMatrix values="0 0 0 0 0.433395607   0 0 0 0 0.433395607   0 0 0 0 0.433395607  0 0 0 0.5 0" type="matrix" in="shadowOffsetOuter1"></feColorMatrix>
        </filter>
        <path d="M1.89282329,-1.89826594e-16 L40.9264693,-2.14199817e-15 C41.5846452,1.24456262e-15 41.8233157,0.0685297759 42.063935,0.197214369 C42.3045542,0.325898962 42.4933936,0.514738373 42.6220782,0.755357641 C42.7507628,0.99597691 42.8192926,1.23464739 42.8192926,1.89282329 L42.8192926,41.664733 C42.8192926,42.3229089 42.7507628,42.5615794 42.6220782,42.8021986 C42.4933936,43.0428179 42.3045542,43.2316573 42.063935,43.3603419 C41.8233157,43.4890265 41.5846452,43.5575563 40.9264693,43.5575563 L1.89282329,43.5575563 C1.23464739,43.5575563 0.99597691,43.4890265 0.755357641,43.3603419 C0.514738373,43.2316573 0.325898962,43.0428179 0.197214369,42.8021986 C0.0685297759,42.5615794 1.61345937e-16,42.3229089 -2.77690086e-16,41.664733 L5.09815508e-17,1.89282329 C-2.96217492e-17,1.23464739 0.0685297759,0.99597691 0.197214369,0.755357641 C0.325898962,0.514738373 0.514738373,0.325898962 0.755357641,0.197214369 C0.99597691,0.0685297759 1.23464739,1.10294718e-16 1.89282329,-1.89826594e-16 Z" id="path-9"></path>
        <filter x="-1.2%" y="-1.1%" width="102.3%" height="104.6%" filterUnits="objectBoundingBox" id="filter-10">
            <feOffset dx="0" dy="1" in="SourceAlpha" result="shadowOffsetOuter1"></feOffset>
            <feColorMatrix values="0 0 0 0 0.433395607   0 0 0 0 0.433395607   0 0 0 0 0.433395607  0 0 0 0.5 0" type="matrix" in="shadowOffsetOuter1"></feColorMatrix>
        </filter>
        <path d="M1.89282329,-1.89826594e-16 L40.9264693,-2.14199817e-15 C41.5846452,1.24456262e-15 41.8233157,0.0685297759 42.063935,0.197214369 C42.3045542,0.325898962 42.4933936,0.514738373 42.6220782,0.755357641 C42.7507628,0.99597691 42.8192926,1.23464739 42.8192926,1.89282329 L42.8192926,41.664733 C42.8192926,42.3229089 42.7507628,42.5615794 42.6220782,42.8021986 C42.4933936,43.0428179 42.3045542,43.2316573 42.063935,43.3603419 C41.8233157,43.4890265 41.5846452,43.5575563 40.9264693,43.5575563 L1.89282329,43.5575563 C1.23464739,43.5575563 0.99597691,43.4890265 0.755357641,43.3603419 C0.514738373,43.2316573 0.325898962,43.0428179 0.197214369,42.8021986 C0.0685297759,42.5615794 1.61345937e-16,42.3229089 -2.77690086e-16,41.664733 L5.09815508e-17,1.89282329 C-2.96217492e-17,1.23464739 0.0685297759,0.99597691 0.197214369,0.755357641 C0.325898962,0.514738373 0.514738373,0.325898962 0.755357641,0.197214369 C0.99597691,0.0685297759 1.23464739,1.10294718e-16 1.89282329,-1.89826594e-16 Z" id="path-11"></path>
        <filter x="-1.2%" y="-1.1%" width="102.3%" height="104.6%" filterUnits="objectBoundingBox" id="filter-12">
            <feOffset dx="0" dy="1" in="SourceAlpha" result="shadowOffsetOuter1"></feOffset>
            <feColorMatrix values="0 0 0 0 0.433395607   0 0 0 0 0.433395607   0 0 0 0 0.433395607  0 0 0 0.5 0" type="matrix" in="shadowOffsetOuter1"></feColorMatrix>
        </filter>
        <path d="M1.89282329,-1.89826594e-16 L40.9264693,-2.14199817e-15 C41.5846452,1.24456262e-15 41.8233157,0.0685297759 42.063935,0.197214369 C42.3045542,0.325898962 42.4933936,0.514738373 42.6220782,0.755357641 C42.7507628,0.99597691 42.8192926,1.23464739 42.8192926,1.89282329 L42.8192926,41.664733 C42.8192926,42.3229089 42.7507628,42.5615794 42.6220782,42.8021986 C42.4933936,43.0428179 42.3045542,43.2316573 42.063935,43.3603419 C41.8233157,43.4890265 41.5846452,43.5575563 40.9264693,43.5575563 L1.89282329,43.5575563 C1.23464739,43.5575563 0.99597691,43.4890265 0.755357641,43.3603419 C0.514738373,43.2316573 0.325898962,43.0428179 0.197214369,42.8021986 C0.0685297759,42.5615794 1.61345937e-16,42.3229089 -2.77690086e-16,41.664733 L5.09815508e-17,1.89282329 C-2.96217492e-17,1.23464739 0.0685297759,0.99597691 0.197214369,0.755357641 C0.325898962,0.514738373 0.514738373,0.325898962 0.755357641,0.197214369 C0.99597691,0.0685297759 1.23464739,1.10294718e-16 1.89282329,-1.89826594e-16 Z" id="path-13"></path>
        <filter x="-1.2%" y="-1.1%" width="102.3%" height="104.6%" filterUnits="objectBoundingBox" id="filter-14">
            <feOffset dx="0" dy="1" in="SourceAlpha" result="shadowOffsetOuter1"></feOffset>
            <feColorMatrix values="0 0 0 0 0.433395607   0 0 0 0 0.433395607   0 0 0 0 0.433395607  0 0 0 0.5 0" type="matrix" in="shadowOffsetOuter1"></feColorMatrix>
        </filter>
        <path d="M1.89282329,-1.89826594e-16 L40.9264693,-2.14199817e-15 C41.5846452,1.24456262e-15 41.8233157,0.0685297759 42.063935,0.197214369 C42.3045542,0.325898962 42.4933936,0.514738373 42.6220782,0.755357641 C42.7507628,0.99597691 42.8192926,1.23464739 42.8192926,1.89282329 L42.8192926,41.664733 C42.8192926,42.3229089 42.7507628,42.5615794 42.6220782,42.8021986 C42.4933936,43.0428179 42.3045542,43.2316573 42.063935,43.3603419 C41.8233157,43.4890265 41.5846452,43.5575563 40.9264693,43.5575563 L1.89282329,43.5575563 C1.23464739,43.5575563 0.99597691,43.4890265 0.755357641,43.3603419 C0.514738373,43.2316573 0.325898962,43.0428179 0.197214369,42.8021986 C0.0685297759,42.5615794 1.61345937e-16,42.3229089 -2.77690086e-16,41.664733 L5.09815508e-17,1.89282329 C-2.96217492e-17,1.23464739 0.0685297759,0.99597691 0.197214369,0.755357641 C0.325898962,0.514738373 0.514738373,0.325898962 0.755357641,0.197214369 C0.99597691,0.0685297759 1.23464739,1.10294718e-16 1.89282329,-1.89826594e-16 Z" id="path-15"></path>
        <filter x="-1.2%" y="-1.1%" width="102.3%" height="104.6%" filterUnits="objectBoundingBox" id="filter-16">
            <feOffset dx="0" dy="1" in="SourceAlpha" result="shadowOffsetOuter1"></feOffset>
            <feColorMatrix values="0 0 0 0 0.433395607   0 0 0 0 0.433395607   0 0 0 0 0.433395607  0 0 0 0.5 0" type="matrix" in="shadowOffsetOuter1"></feColorMatrix>
        </filter>
        <path d="M1.89282329,-1.89826594e-16 L40.9264693,-2.14199817e-15 C41.5846452,1.24456262e-15 41.8233157,0.0685297759 42.063935,0.197214369 C42.3045542,0.325898962 42.4933936,0.514738373 42.6220782,0.755357641 C42.7507628,0.99597691 42.8192926,1.23464739 42.8192926,1.89282329 L42.8192926,41.664733 C42.8192926,42.3229089 42.7507628,42.5615794 42.6220782,42.8021986 C42.4933936,43.0428179 42.3045542,43.2316573 42.063935,43.3603419 C41.8233157,43.4890265 41.5846452,43.5575563 40.9264693,43.5575563 L1.89282329,43.5575563 C1.23464739,43.5575563 0.99597691,43.4890265 0.755357641,43.3603419 C0.514738373,43.2316573 0.325898962,43.0428179 0.197214369,42.8021986 C0.0685297759,42.5615794 1.61345937e-16,42.3229089 -2.77690086e-16,41.664733 L5.09815508e-17,1.89282329 C-2.96217492e-17,1.23464739 0.0685297759,0.99597691 0.197214369,0.755357641 C0.325898962,0.514738373 0.514738373,0.325898962 0.755357641,0.197214369 C0.99597691,0.0685297759 1.23464739,1.10294718e-16 1.89282329,-1.89826594e-16 Z" id="path-17"></path>
        <filter x="-1.2%" y="-1.1%" width="102.3%" height="104.6%" filterUnits="objectBoundingBox" id="filter-18">
            <feOffset dx="0" dy="1" in="SourceAlpha" result="shadowOffsetOuter1"></feOffset>
            <feColorMatrix values="0 0 0 0 0.433395607   0 0 0 0 0.433395607   0 0 0 0 0.433395607  0 0 0 0.5 0" type="matrix" in="shadowOffsetOuter1"></feColorMatrix>
        </filter>
        <path d="M1.89282329,-1.89826594e-16 L40.9264693,-2.14199817e-15 C41.5846452,1.24456262e-15 41.8233157,0.0685297759 42.063935,0.197214369 C42.3045542,0.325898962 42.4933936,0.514738373 42.6220782,0.755357641 C42.7507628,0.99597691 42.8192926,1.23464739 42.8192926,1.89282329 L42.8192926,41.664733 C42.8192926,42.3229089 42.7507628,42.5615794 42.6220782,42.8021986 C42.4933936,43.0428179 42.3045542,43.2316573 42.063935,43.3603419 C41.8233157,43.4890265 41.5846452,43.5575563 40.9264693,43.5575563 L1.89282329,43.5575563 C1.23464739,43.5575563 0.99597691,43.4890265 0.755357641,43.3603419 C0.514738373,43.2316573 0.325898962,43.0428179 0.197214369,42.8021986 C0.0685297759,42.5615794 1.61345937e-16,42.3229089 -2.77690086e-16,41.664733 L5.09815508e-17,1.89282329 C-2.96217492e-17,1.23464739 0.0685297759,0.99597691 0.197214369,0.755357641 C0.325898962,0.514738373 0.514738373,0.325898962 0.755357641,0.197214369 C0.99597691,0.0685297759 1.23464739,1.10294718e-16 1.89282329,-1.89826594e-16 Z" id="path-19"></path>
        <filter x="-1.2%" y="-1.1%" width="102.3%" height="104.6%" filterUnits="objectBoundingBox" id="filter-20">
            <feOffset dx="0" dy="1" in="SourceAlpha" result="shadowOffsetOuter1"></feOffset>
            <feColorMatrix values="0 0 0 0 0.433395607   0 0 0 0 0.433395607   0 0 0 0 0.433395607  0 0 0 0.5 0" type="matrix" in="shadowOffsetOuter1"></feColorMatrix>
        </filter>
        <path d="M1.89282329,-1.89826594e-16 L40.9264693,-2.14199817e-15 C41.5846452,1.24456262e-15 41.8233157,0.0685297759 42.063935,0.197214369 C42.3045542,0.325898962 42.4933936,0.514738373 42.6220782,0.755357641 C42.7507628,0.99597691 42.8192926,1.23464739 42.8192926,1.89282329 L42.8192926,41.664733 C42.8192926,42.3229089 42.7507628,42.5615794 42.6220782,42.8021986 C42.4933936,43.0428179 42.3045542,43.2316573 42.063935,43.3603419 C41.8233157,43.4890265 41.5846452,43.5575563 40.9264693,43.5575563 L1.89282329,43.5575563 C1.23464739,43.5575563 0.99597691,43.4890265 0.755357641,43.3603419 C0.514738373,43.2316573 0.325898962,43.0428179 0.197214369,42.8021986 C0.0685297759,42.5615794 1.61345937e-16,42.3229089 -2.77690086e-16,41.664733 L5.09815508e-17,1.89282329 C-2.96217492e-17,1.23464739 0.0685297759,0.99597691 0.197214369,0.755357641 C0.325898962,0.514738373 0.514738373,0.325898962 0.755357641,0.197214369 C0.99597691,0.0685297759 1.23464739,1.10294718e-16 1.89282329,-1.89826594e-16 Z" id="path-21"></path>
        <filter x="-1.2%" y="-1.1%" width="102.3%" height="104.6%" filterUnits="objectBoundingBox" id="filter-22">
            <feOffset dx="0" dy="1" in="SourceAlpha" result="shadowOffsetOuter1"></feOffset>
            <feColorMatrix values="0 0 0 0 0.433395607   0 0 0 0 0.433395607   0 0 0 0 0.433395607  0 0 0 0.5 0" type="matrix" in="shadowOffsetOuter1"></feColorMatrix>
        </filter>
        <path d="M1.89282329,-1.89826594e-16 L40.9264693,-2.14199817e-15 C41.5846452,1.24456262e-15 41.8233157,0.0685297759 42.063935,0.197214369 C42.3045542,0.325898962 42.4933936,0.514738373 42.6220782,0.755357641 C42.7507628,0.99597691 42.8192926,1.23464739 42.8192926,1.89282329 L42.8192926,41.664733 C42.8192926,42.3229089 42.7507628,42.5615794 42.6220782,42.8021986 C42.4933936,43.0428179 42.3045542,43.2316573 42.063935,43.3603419 C41.8233157,43.4890265 41.5846452,43.5575563 40.9264693,43.5575563 L1.89282329,43.5575563 C1.23464739,43.5575563 0.99597691,43.4890265 0.755357641,43.3603419 C0.514738373,43.2316573 0.325898962,43.0428179 0.197214369,42.8021986 C0.0685297759,42.5615794 1.61345937e-16,42.3229089 -2.77690086e-16,41.664733 L5.09815508e-17,1.89282329 C-2.96217492e-17,1.23464739 0.0685297759,0.99597691 0.197214369,0.755357641 C0.325898962,0.514738373 0.514738373,0.325898962 0.755357641,0.197214369 C0.99597691,0.0685297759 1.23464739,1.10294718e-16 1.89282329,-1.89826594e-16 Z" id="path-23"></path>
        <filter x="-1.2%" y="-1.1%" width="102.3%" height="104.6%" filterUnits="objectBoundingBox" id="filter-24">
            <feOffset dx="0" dy="1" in="SourceAlpha" result="shadowOffsetOuter1"></feOffset>
            <feColorMatrix values="0 0 0 0 0.433395607   0 0 0 0 0.433395607   0 0 0 0 0.433395607  0 0 0 0.5 0" type="matrix" in="shadowOffsetOuter1"></feColorMatrix>
        </filter>
        <path d="M1.89282329,-1.89826594e-16 L40.9264693,-2.14199817e-15 C41.5846452,1.24456262e-15 41.8233157,0.0685297759 42.063935,0.197214369 C42.3045542,0.325898962 42.4933936,0.514738373 42.6220782,0.755357641 C42.7507628,0.99597691 42.8192926,1.23464739 42.8192926,1.89282329 L42.8192926,41.664733 C42.8192926,42.3229089 42.7507628,42.5615794 42.6220782,42.8021986 C42.4933936,43.0428179 42.3045542,43.2316573 42.063935,43.3603419 C41.8233157,43.4890265 41.5846452,43.5575563 40.9264693,43.5575563 L1.89282329,43.5575563 C1.23464739,43.5575563 0.99597691,43.4890265 0.755357641,43.3603419 C0.514738373,43.2316573 0.325898962,43.0428179 0.197214369,42.8021986 C0.0685297759,42.5615794 1.61345937e-16,42.3229089 -2.77690086e-16,41.664733 L5.09815508e-17,1.89282329 C-2.96217492e-17,1.23464739 0.0685297759,0.99597691 0.197214369,0.755357641 C0.325898962,0.514738373 0.514738373,0.325898962 0.755357641,0.197214369 C0.99597691,0.0685297759 1.23464739,1.10294718e-16 1.89282329,-1.89826594e-16 Z" id="path-25"></path>
        <filter x="-1.2%" y="-1.1%" width="102.3%" height="104.6%" filterUnits="objectBoundingBox" id="filter-26">
            <feOffset dx="0" dy="1" in="SourceAlpha" result="shadowOffsetOuter1"></feOffset>
            <feColorMatrix values="0 0 0 0 0.433395607   0 0 0 0 0.433395607   0 0 0 0 0.433395607  0 0 0 0.5 0" type="matrix" in="shadowOffsetOuter1"></feColorMatrix>
        </filter>
        <path d="M1.89282329,-1.89826594e-16 L40.9264693,-2.14199817e-15 C41.5846452,1.24456262e-15 41.8233157,0.0685297759 42.063935,0.197214369 C42.3045542,0.325898962 42.4933936,0.514738373 42.6220782,0.755357641 C42.7507628,0.99597691 42.8192926,1.23464739 42.8192926,1.89282329 L42.8192926,41.664733 C42.8192926,42.3229089 42.7507628,42.5615794 42.6220782,42.8021986 C42.4933936,43.0428179 42.3045542,43.2316573 42.063935,43.3603419 C41.8233157,43.4890265 41.5846452,43.5575563 40.9264693,43.5575563 L1.89282329,43.5575563 C1.23464739,43.5575563 0.99597691,43.4890265 0.755357641,43.3603419 C0.514738373,43.2316573 0.325898962,43.0428179 0.197214369,42.8021986 C0.0685297759,42.5615794 1.61345937e-16,42.3229089 -2.77690086e-16,41.664733 L5.09815508e-17,1.89282329 C-2.96217492e-17,1.23464739 0.0685297759,0.99597691 0.197214369,0.755357641 C0.325898962,0.514738373 0.514738373,0.325898962 0.755357641,0.197214369 C0.99597691,0.0685297759 1.23464739,1.10294718e-16 1.89282329,-1.89826594e-16 Z" id="path-27"></path>
        <filter x="-1.2%" y="-1.1%" width="102.3%" height="104.6%" filterUnits="objectBoundingBox" id="filter-28">
            <feOffset dx="0" dy="1" in="SourceAlpha" result="shadowOffsetOuter1"></feOffset>
            <feColorMatrix values="0 0 0 0 0.433395607   0 0 0 0 0.433395607   0 0 0 0 0.433395607  0 0 0 0.5 0" type="matrix" in="shadowOffsetOuter1"></feColorMatrix>
        </filter>
        <path d="M1.89282329,-1.89826594e-16 L40.9264693,-2.14199817e-15 C41.5846452,1.24456262e-15 41.8233157,0.0685297759 42.063935,0.197214369 C42.3045542,0.325898962 42.4933936,0.514738373 42.6220782,0.755357641 C42.7507628,0.99597691 42.8192926,1.23464739 42.8192926,1.89282329 L42.8192926,41.664733 C42.8192926,42.3229089 42.7507628,42.5615794 42.6220782,42.8021986 C42.4933936,43.0428179 42.3045542,43.2316573 42.063935,43.3603419 C41.8233157,43.4890265 41.5846452,43.5575563 40.9264693,43.5575563 L1.89282329,43.5575563 C1.23464739,43.5575563 0.99597691,43.4890265 0.755357641,43.3603419 C0.514738373,43.2316573 0.325898962,43.0428179 0.197214369,42.8021986 C0.0685297759,42.5615794 1.61345937e-16,42.3229089 -2.77690086e-16,41.664733 L5.09815508e-17,1.89282329 C-2.96217492e-17,1.23464739 0.0685297759,0.99597691 0.197214369,0.755357641 C0.325898962,0.514738373 0.514738373,0.325898962 0.755357641,0.197214369 C0.99597691,0.0685297759 1.23464739,1.10294718e-16 1.89282329,-1.89826594e-16 Z" id="path-29"></path>
        <filter x="-1.2%" y="-1.1%" width="102.3%" height="104.6%" filterUnits="objectBoundingBox" id="filter-30">
            <feOffset dx="0" dy="1" in="SourceAlpha" result="shadowOffsetOuter1"></feOffset>
            <feColorMatrix values="0 0 0 0 0.433395607   0 0 0 0 0.433395607   0 0 0 0 0.433395607  0 0 0 0.5 0" type="matrix" in="shadowOffsetOuter1"></feColorMatrix>
        </filter>
        <path d="M1.89282329,-7.64723263e-17 L40.9264693,-2.14199817e-15 C41.5846452,1.24456262e-15 41.8233157,0.0685297759 42.063935,0.197214369 C42.3045542,0.325898962 42.4933936,0.514738373 42.6220782,0.755357641 C42.7507628,0.99597691 42.8192926,1.23464739 42.8192926,1.89282329 L42.8192926,40.9264693 C42.8192926,41.5846452 42.7507628,41.8233157 42.6220782,42.063935 C42.4933936,42.3045542 42.3045542,42.4933936 42.063935,42.6220782 C41.8233157,42.7507628 41.5846452,42.8192926 40.9264693,42.8192926 L1.89282329,42.8192926 C1.23464739,42.8192926 0.99597691,42.7507628 0.755357641,42.6220782 C0.514738373,42.4933936 0.325898962,42.3045542 0.197214369,42.063935 C0.0685297759,41.8233157 1.34292491e-15,41.5846452 -2.31128804e-15,40.9264693 L-1.75726984e-16,1.89282329 C1.02102438e-16,1.23464739 0.0685297759,0.99597691 0.197214369,0.755357641 C0.325898962,0.514738373 0.514738373,0.325898962 0.755357641,0.197214369 C0.99597691,0.0685297759 1.23464739,4.44326238e-17 1.89282329,-7.64723263e-17 Z" id="path-31"></path>
        <filter x="-1.2%" y="-1.2%" width="102.3%" height="104.7%" filterUnits="objectBoundingBox" id="filter-32">
            <feOffset dx="0" dy="1" in="SourceAlpha" result="shadowOffsetOuter1"></feOffset>
            <feComposite in="shadowOffsetOuter1" in2="SourceAlpha" operator="out" result="shadowOffsetOuter1"></feComposite>
            <feColorMatrix values="0 0 0 0 0.433395607   0 0 0 0 0.433395607   0 0 0 0 0.433395607  0 0 0 0.5 0" type="matrix" in="shadowOffsetOuter1"></feColorMatrix>
        </filter>
        <path d="M1.89282329,-7.64723263e-17 L40.9264693,-2.14199817e-15 C41.5846452,1.24456262e-15 41.8233157,0.0685297759 42.063935,0.197214369 C42.3045542,0.325898962 42.4933936,0.514738373 42.6220782,0.755357641 C42.7507628,0.99597691 42.8192926,1.23464739 42.8192926,1.89282329 L42.8192926,40.9264693 C42.8192926,41.5846452 42.7507628,41.8233157 42.6220782,42.063935 C42.4933936,42.3045542 42.3045542,42.4933936 42.063935,42.6220782 C41.8233157,42.7507628 41.5846452,42.8192926 40.9264693,42.8192926 L1.89282329,42.8192926 C1.23464739,42.8192926 0.99597691,42.7507628 0.755357641,42.6220782 C0.514738373,42.4933936 0.325898962,42.3045542 0.197214369,42.063935 C0.0685297759,41.8233157 1.34292491e-15,41.5846452 -2.31128804e-15,40.9264693 L-1.75726984e-16,1.89282329 C1.02102438e-16,1.23464739 0.0685297759,0.99597691 0.197214369,0.755357641 C0.325898962,0.514738373 0.514738373,0.325898962 0.755357641,0.197214369 C0.99597691,0.0685297759 1.23464739,4.44326238e-17 1.89282329,-7.64723263e-17 Z" id="path-33"></path>
        <filter x="-1.2%" y="-1.2%" width="102.3%" height="104.7%" filterUnits="objectBoundingBox" id="filter-34">
            <feOffset dx="0" dy="1" in="SourceAlpha" result="shadowOffsetOuter1"></feOffset>
            <feComposite in="shadowOffsetOuter1" in2="SourceAlpha" operator="out" result="shadowOffsetOuter1"></feComposite>
            <feColorMatrix values="0 0 0 0 0.433395607   0 0 0 0 0.433395607   0 0 0 0 0.433395607  0 0 0 0.5 0" type="matrix" in="shadowOffsetOuter1"></feColorMatrix>
        </filter>
        <path d="M1.89282329,-7.64723263e-17 L40.9264693,-2.14199817e-15 C41.5846452,1.24456262e-15 41.8233157,0.0685297759 42.063935,0.197214369 C42.3045542,0.325898962 42.4933936,0.514738373 42.6220782,0.755357641 C42.7507628,0.99597691 42.8192926,1.23464739 42.8192926,1.89282329 L42.8192926,40.9264693 C42.8192926,41.5846452 42.7507628,41.8233157 42.6220782,42.063935 C42.4933936,42.3045542 42.3045542,42.4933936 42.063935,42.6220782 C41.8233157,42.7507628 41.5846452,42.8192926 40.9264693,42.8192926 L1.89282329,42.8192926 C1.23464739,42.8192926 0.99597691,42.7507628 0.755357641,42.6220782 C0.514738373,42.4933936 0.325898962,42.3045542 0.197214369,42.063935 C0.0685297759,41.8233157 1.34292491e-15,41.5846452 -2.31128804e-15,40.9264693 L-1.75726984e-16,1.89282329 C1.02102438e-16,1.23464739 0.0685297759,0.99597691 0.197214369,0.755357641 C0.325898962,0.514738373 0.514738373,0.325898962 0.755357641,0.197214369 C0.99597691,0.0685297759 1.23464739,4.44326238e-17 1.89282329,-7.64723263e-17 Z" id="path-35"></path>
        <filter x="-1.2%" y="-1.2%" width="102.3%" height="104.7%" filterUnits="objectBoundingBox" id="filter-36">
            <feOffset dx="0" dy="1" in="SourceAlpha" result="shadowOffsetOuter1"></feOffset>
            <feComposite in="shadowOffsetOuter1" in2="SourceAlpha" operator="out" result="shadowOffsetOuter1"></feComposite>
            <feColorMatrix values="0 0 0 0 0.433395607   0 0 0 0 0.433395607   0 0 0 0 0.433395607  0 0 0 0.5 0" type="matrix" in="shadowOffsetOuter1"></feColorMatrix>
        </filter>
        <path d="M1.89282329,-7.64723263e-17 L40.9264693,-2.14199817e-15 C41.5846452,1.24456262e-15 41.8233157,0.0685297759 42.063935,0.197214369 C42.3045542,0.325898962 42.4933936,0.514738373 42.6220782,0.755357641 C42.7507628,0.99597691 42.8192926,1.23464739 42.8192926,1.89282329 L42.8192926,40.9264693 C42.8192926,41.5846452 42.7507628,41.8233157 42.6220782,42.063935 C42.4933936,42.3045542 42.3045542,42.4933936 42.063935,42.6220782 C41.8233157,42.7507628 41.5846452,42.8192926 40.9264693,42.8192926 L1.89282329,42.8192926 C1.23464739,42.8192926 0.99597691,42.7507628 0.755357641,42.6220782 C0.514738373,42.4933936 0.325898962,42.3045542 0.197214369,42.063935 C0.0685297759,41.8233157 1.34292491e-15,41.5846452 -2.31128804e-15,40.9264693 L-1.75726984e-16,1.89282329 C1.02102438e-16,1.23464739 0.0685297759,0.99597691 0.197214369,0.755357641 C0.325898962,0.514738373 0.514738373,0.325898962 0.755357641,0.197214369 C0.99597691,0.0685297759 1.23464739,4.44326238e-17 1.89282329,-7.64723263e-17 Z" id="path-37"></path>
        <filter x="-1.2%" y="-1.2%" width="102.3%" height="104.7%" filterUnits="objectBoundingBox" id="filter-38">
            <feOffset dx="0" dy="1" in="SourceAlpha" result="shadowOffsetOuter1"></feOffset>
            <feComposite in="shadowOffsetOuter1" in2="SourceAlpha" operator="out" result="shadowOffsetOuter1"></feComposite>
            <feColorMatrix values="0 0 0 0 0.433395607   0 0 0 0 0.433395607   0 0 0 0 0.433395607  0 0 0 0.5 0" type="matrix" in="shadowOffsetOuter1"></feColorMatrix>
        </filter>
        <path d="M1.89282329,-1.89826594e-16 L40.9264693,-2.14199817e-15 C41.5846452,1.24456262e-15 41.8233157,0.0685297759 42.063935,0.197214369 C42.3045542,0.325898962 42.4933936,0.514738373 42.6220782,0.755357641 C42.7507628,0.99597691 42.8192926,1.23464739 42.8192926,1.89282329 L42.8192926,41.664733 C42.8192926,42.3229089 42.7507628,42.5615794 42.6220782,42.8021986 C42.4933936,43.0428179 42.3045542,43.2316573 42.063935,43.3603419 C41.8233157,43.4890265 41.5846452,43.5575563 40.9264693,43.5575563 L1.89282329,43.5575563 C1.23464739,43.5575563 0.99597691,43.4890265 0.755357641,43.3603419 C0.514738373,43.2316573 0.325898962,43.0428179 0.197214369,42.8021986 C0.0685297759,42.5615794 1.61345937e-16,42.3229089 -2.77690086e-16,41.664733 L5.09815508e-17,1.89282329 C-2.96217492e-17,1.23464739 0.0685297759,0.99597691 0.197214369,0.755357641 C0.325898962,0.514738373 0.514738373,0.325898962 0.755357641,0.197214369 C0.99597691,0.0685297759 1.23464739,1.10294718e-16 1.89282329,-1.89826594e-16 Z" id="path-39"></path>
        <filter x="-1.2%" y="-1.1%" width="102.3%" height="104.6%" filterUnits="objectBoundingBox" id="filter-40">
            <feOffset dx="0" dy="1" in="SourceAlpha" result="shadowOffsetOuter1"></feOffset>
            <feColorMatrix values="0 0 0 0 0.433395607   0 0 0 0 0.433395607   0 0 0 0 0.433395607  0 0 0 0.5 0" type="matrix" in="shadowOffsetOuter1"></feColorMatrix>
        </filter>
        <path d="M1.89282329,-1.89826594e-16 L40.9264693,-2.14199817e-15 C41.5846452,1.24456262e-15 41.8233157,0.0685297759 42.063935,0.197214369 C42.3045542,0.325898962 42.4933936,0.514738373 42.6220782,0.755357641 C42.7507628,0.99597691 42.8192926,1.23464739 42.8192926,1.89282329 L42.8192926,41.664733 C42.8192926,42.3229089 42.7507628,42.5615794 42.6220782,42.8021986 C42.4933936,43.0428179 42.3045542,43.2316573 42.063935,43.3603419 C41.8233157,43.4890265 41.5846452,43.5575563 40.9264693,43.5575563 L1.89282329,43.5575563 C1.23464739,43.5575563 0.99597691,43.4890265 0.755357641,43.3603419 C0.514738373,43.2316573 0.325898962,43.0428179 0.197214369,42.8021986 C0.0685297759,42.5615794 1.61345937e-16,42.3229089 -2.77690086e-16,41.664733 L5.09815508e-17,1.89282329 C-2.96217492e-17,1.23464739 0.0685297759,0.99597691 0.197214369,0.755357641 C0.325898962,0.514738373 0.514738373,0.325898962 0.755357641,0.197214369 C0.99597691,0.0685297759 1.23464739,1.10294718e-16 1.89282329,-1.89826594e-16 Z" id="path-41"></path>
        <filter x="-1.2%" y="-1.1%" width="102.3%" height="104.6%" filterUnits="objectBoundingBox" id="filter-42">
            <feOffset dx="0" dy="1" in="SourceAlpha" result="shadowOffsetOuter1"></feOffset>
            <feColorMatrix values="0 0 0 0 0.433395607   0 0 0 0 0.433395607   0 0 0 0 0.433395607  0 0 0 0.5 0" type="matrix" in="shadowOffsetOuter1"></feColorMatrix>
        </filter>
        <path d="M1.89282329,-1.89826594e-16 L40.9264693,-2.14199817e-15 C41.5846452,1.24456262e-15 41.8233157,0.0685297759 42.063935,0.197214369 C42.3045542,0.325898962 42.4933936,0.514738373 42.6220782,0.755357641 C42.7507628,0.99597691 42.8192926,1.23464739 42.8192926,1.89282329 L42.8192926,41.664733 C42.8192926,42.3229089 42.7507628,42.5615794 42.6220782,42.8021986 C42.4933936,43.0428179 42.3045542,43.2316573 42.063935,43.3603419 C41.8233157,43.4890265 41.5846452,43.5575563 40.9264693,43.5575563 L1.89282329,43.5575563 C1.23464739,43.5575563 0.99597691,43.4890265 0.755357641,43.3603419 C0.514738373,43.2316573 0.325898962,43.0428179 0.197214369,42.8021986 C0.0685297759,42.5615794 1.61345937e-16,42.3229089 -2.77690086e-16,41.664733 L5.09815508e-17,1.89282329 C-2.96217492e-17,1.23464739 0.0685297759,0.99597691 0.197214369,0.755357641 C0.325898962,0.514738373 0.514738373,0.325898962 0.755357641,0.197214369 C0.99597691,0.0685297759 1.23464739,1.10294718e-16 1.89282329,-1.89826594e-16 Z" id="path-43"></path>
        <filter x="-1.2%" y="-1.1%" width="102.3%" height="104.6%" filterUnits="objectBoundingBox" id="filter-44">
            <feOffset dx="0" dy="1" in="SourceAlpha" result="shadowOffsetOuter1"></feOffset>
            <feColorMatrix values="0 0 0 0 0.433395607   0 0 0 0 0.433395607   0 0 0 0 0.433395607  0 0 0 0.5 0" type="matrix" in="shadowOffsetOuter1"></feColorMatrix>
        </filter>
        <path d="M1.89282329,-1.89826594e-16 L40.9264693,-2.14199817e-15 C41.5846452,1.24456262e-15 41.8233157,0.0685297759 42.063935,0.197214369 C42.3045542,0.325898962 42.4933936,0.514738373 42.6220782,0.755357641 C42.7507628,0.99597691 42.8192926,1.23464739 42.8192926,1.89282329 L42.8192926,41.664733 C42.8192926,42.3229089 42.7507628,42.5615794 42.6220782,42.8021986 C42.4933936,43.0428179 42.3045542,43.2316573 42.063935,43.3603419 C41.8233157,43.4890265 41.5846452,43.5575563 40.9264693,43.5575563 L1.89282329,43.5575563 C1.23464739,43.5575563 0.99597691,43.4890265 0.755357641,43.3603419 C0.514738373,43.2316573 0.325898962,43.0428179 0.197214369,42.8021986 C0.0685297759,42.5615794 1.61345937e-16,42.3229089 -2.77690086e-16,41.664733 L5.09815508e-17,1.89282329 C-2.96217492e-17,1.23464739 0.0685297759,0.99597691 0.197214369,0.755357641 C0.325898962,0.514738373 0.514738373,0.325898962 0.755357641,0.197214369 C0.99597691,0.0685297759 1.23464739,1.10294718e-16 1.89282329,-1.89826594e-16 Z" id="path-45"></path>
        <filter x="-1.2%" y="-1.1%" width="102.3%" height="104.6%" filterUnits="objectBoundingBox" id="filter-46">
            <feOffset dx="0" dy="1" in="SourceAlpha" result="shadowOffsetOuter1"></feOffset>
            <feColorMatrix values="0 0 0 0 0.433395607   0 0 0 0 0.433395607   0 0 0 0 0.433395607  0 0 0 0.5 0" type="matrix" in="shadowOffsetOuter1"></feColorMatrix>
        </filter>
        <path d="M1.89282329,-1.89826594e-16 L40.9264693,-2.14199817e-15 C41.5846452,1.24456262e-15 41.8233157,0.0685297759 42.063935,0.197214369 C42.3045542,0.325898962 42.4933936,0.514738373 42.6220782,0.755357641 C42.7507628,0.99597691 42.8192926,1.23464739 42.8192926,1.89282329 L42.8192926,41.664733 C42.8192926,42.3229089 42.7507628,42.5615794 42.6220782,42.8021986 C42.4933936,43.0428179 42.3045542,43.2316573 42.063935,43.3603419 C41.8233157,43.4890265 41.5846452,43.5575563 40.9264693,43.5575563 L1.89282329,43.5575563 C1.23464739,43.5575563 0.99597691,43.4890265 0.755357641,43.3603419 C0.514738373,43.2316573 0.325898962,43.0428179 0.197214369,42.8021986 C0.0685297759,42.5615794 1.61345937e-16,42.3229089 -2.77690086e-16,41.664733 L5.09815508e-17,1.89282329 C-2.96217492e-17,1.23464739 0.0685297759,0.99597691 0.197214369,0.755357641 C0.325898962,0.514738373 0.514738373,0.325898962 0.755357641,0.197214369 C0.99597691,0.0685297759 1.23464739,1.10294718e-16 1.89282329,-1.89826594e-16 Z" id="path-47"></path>
        <filter x="-1.2%" y="-1.1%" width="102.3%" height="104.6%" filterUnits="objectBoundingBox" id="filter-48">
            <feOffset dx="0" dy="1" in="SourceAlpha" result="shadowOffsetOuter1"></feOffset>
            <feColorMatrix values="0 0 0 0 0.433395607   0 0 0 0 0.433395607   0 0 0 0 0.433395607  0 0 0 0.5 0" type="matrix" in="shadowOffsetOuter1"></feColorMatrix>
        </filter>
        <path d="M1.89282329,-1.89826594e-16 L40.9264693,-2.14199817e-15 C41.5846452,1.24456262e-15 41.8233157,0.0685297759 42.063935,0.197214369 C42.3045542,0.325898962 42.4933936,0.514738373 42.6220782,0.755357641 C42.7507628,0.99597691 42.8192926,1.23464739 42.8192926,1.89282329 L42.8192926,41.664733 C42.8192926,42.3229089 42.7507628,42.5615794 42.6220782,42.8021986 C42.4933936,43.0428179 42.3045542,43.2316573 42.063935,43.3603419 C41.8233157,43.4890265 41.5846452,43.5575563 40.9264693,43.5575563 L1.89282329,43.5575563 C1.23464739,43.5575563 0.99597691,43.4890265 0.755357641,43.3603419 C0.514738373,43.2316573 0.325898962,43.0428179 0.197214369,42.8021986 C0.0685297759,42.5615794 1.61345937e-16,42.3229089 -2.77690086e-16,41.664733 L5.09815508e-17,1.89282329 C-2.96217492e-17,1.23464739 0.0685297759,0.99597691 0.197214369,0.755357641 C0.325898962,0.514738373 0.514738373,0.325898962 0.755357641,0.197214369 C0.99597691,0.0685297759 1.23464739,1.10294718e-16 1.89282329,-1.89826594e-16 Z" id="path-49"></path>
        <filter x="-1.2%" y="-1.1%" width="102.3%" height="104.6%" filterUnits="objectBoundingBox" id="filter-50">
            <feOffset dx="0" dy="1" in="SourceAlpha" result="shadowOffsetOuter1"></feOffset>
            <feColorMatrix values="0 0 0 0 0.433395607   0 0 0 0 0.433395607   0 0 0 0 0.433395607  0 0 0 0.5 0" type="matrix" in="shadowOffsetOuter1"></feColorMatrix>
        </filter>
        <path d="M1.89282329,-1.89826594e-16 L40.9264693,-2.14199817e-15 C41.5846452,1.24456262e-15 41.8233157,0.0685297759 42.063935,0.197214369 C42.3045542,0.325898962 42.4933936,0.514738373 42.6220782,0.755357641 C42.7507628,0.99597691 42.8192926,1.23464739 42.8192926,1.89282329 L42.8192926,41.664733 C42.8192926,42.3229089 42.7507628,42.5615794 42.6220782,42.8021986 C42.4933936,43.0428179 42.3045542,43.2316573 42.063935,43.3603419 C41.8233157,43.4890265 41.5846452,43.5575563 40.9264693,43.5575563 L1.89282329,43.5575563 C1.23464739,43.5575563 0.99597691,43.4890265 0.755357641,43.3603419 C0.514738373,43.2316573 0.325898962,43.0428179 0.197214369,42.8021986 C0.0685297759,42.5615794 1.61345937e-16,42.3229089 -2.77690086e-16,41.664733 L5.09815508e-17,1.89282329 C-2.96217492e-17,1.23464739 0.0685297759,0.99597691 0.197214369,0.755357641 C0.325898962,0.514738373 0.514738373,0.325898962 0.755357641,0.197214369 C0.99597691,0.0685297759 1.23464739,1.10294718e-16 1.89282329,-1.89826594e-16 Z" id="path-51"></path>
        <filter x="-1.2%" y="-1.1%" width="102.3%" height="104.6%" filterUnits="objectBoundingBox" id="filter-52">
            <feOffset dx="0" dy="1" in="SourceAlpha" result="shadowOffsetOuter1"></feOffset>
            <feColorMatrix values="0 0 0 0 0.433395607   0 0 0 0 0.433395607   0 0 0 0 0.433395607  0 0 0 0.5 0" type="matrix" in="shadowOffsetOuter1"></feColorMatrix>
        </filter>
        <path d="M1.89282329,-1.89826594e-16 L40.9264693,-2.14199817e-15 C41.5846452,1.24456262e-15 41.8233157,0.0685297759 42.063935,0.197214369 C42.3045542,0.325898962 42.4933936,0.514738373 42.6220782,0.755357641 C42.7507628,0.99597691 42.8192926,1.23464739 42.8192926,1.89282329 L42.8192926,41.664733 C42.8192926,42.3229089 42.7507628,42.5615794 42.6220782,42.8021986 C42.4933936,43.0428179 42.3045542,43.2316573 42.063935,43.3603419 C41.8233157,43.4890265 41.5846452,43.5575563 40.9264693,43.5575563 L1.89282329,43.5575563 C1.23464739,43.5575563 0.99597691,43.4890265 0.755357641,43.3603419 C0.514738373,43.2316573 0.325898962,43.0428179 0.197214369,42.8021986 C0.0685297759,42.5615794 1.61345937e-16,42.3229089 -2.77690086e-16,41.664733 L5.09815508e-17,1.89282329 C-2.96217492e-17,1.23464739 0.0685297759,0.99597691 0.197214369,0.755357641 C0.325898962,0.514738373 0.514738373,0.325898962 0.755357641,0.197214369 C0.99597691,0.0685297759 1.23464739,1.10294718e-16 1.89282329,-1.89826594e-16 Z" id="path-53"></path>
        <filter x="-1.2%" y="-1.1%" width="102.3%" height="104.6%" filterUnits="objectBoundingBox" id="filter-54">
            <feOffset dx="0" dy="1" in="SourceAlpha" result="shadowOffsetOuter1"></feOffset>
            <feColorMatrix values="0 0 0 0 0.433395607   0 0 0 0 0.433395607   0 0 0 0 0.433395607  0 0 0 0.5 0" type="matrix" in="shadowOffsetOuter1"></feColorMatrix>
        </filter>
        <path d="M1.89282329,-1.89826594e-16 L40.9264693,-2.14199817e-15 C41.5846452,1.24456262e-15 41.8233157,0.0685297759 42.063935,0.197214369 C42.3045542,0.325898962 42.4933936,0.514738373 42.6220782,0.755357641 C42.7507628,0.99597691 42.8192926,1.23464739 42.8192926,1.89282329 L42.8192926,41.664733 C42.8192926,42.3229089 42.7507628,42.5615794 42.6220782,42.8021986 C42.4933936,43.0428179 42.3045542,43.2316573 42.063935,43.3603419 C41.8233157,43.4890265 41.5846452,43.5575563 40.9264693,43.5575563 L1.89282329,43.5575563 C1.23464739,43.5575563 0.99597691,43.4890265 0.755357641,43.3603419 C0.514738373,43.2316573 0.325898962,43.0428179 0.197214369,42.8021986 C0.0685297759,42.5615794 1.61345937e-16,42.3229089 -2.77690086e-16,41.664733 L5.09815508e-17,1.89282329 C-2.96217492e-17,1.23464739 0.0685297759,0.99597691 0.197214369,0.755357641 C0.325898962,0.514738373 0.514738373,0.325898962 0.755357641,0.197214369 C0.99597691,0.0685297759 1.23464739,1.10294718e-16 1.89282329,-1.89826594e-16 Z" id="path-55"></path>
        <filter x="-1.2%" y="-1.1%" width="102.3%" height="104.6%" filterUnits="objectBoundingBox" id="filter-56">
            <feOffset dx="0" dy="1" in="SourceAlpha" result="shadowOffsetOuter1"></feOffset>
            <feColorMatrix values="0 0 0 0 0.433395607   0 0 0 0 0.433395607   0 0 0 0 0.433395607  0 0 0 0.5 0" type="matrix" in="shadowOffsetOuter1"></feColorMatrix>
        </filter>
        <path d="M1.89282329,-1.89826594e-16 L40.9264693,-2.14199817e-15 C41.5846452,1.24456262e-15 41.8233157,0.0685297759 42.063935,0.197214369 C42.3045542,0.325898962 42.4933936,0.514738373 42.6220782,0.755357641 C42.7507628,0.99597691 42.8192926,1.23464739 42.8192926,1.89282329 L42.8192926,41.664733 C42.8192926,42.3229089 42.7507628,42.5615794 42.6220782,42.8021986 C42.4933936,43.0428179 42.3045542,43.2316573 42.063935,43.3603419 C41.8233157,43.4890265 41.5846452,43.5575563 40.9264693,43.5575563 L1.89282329,43.5575563 C1.23464739,43.5575563 0.99597691,43.4890265 0.755357641,43.3603419 C0.514738373,43.2316573 0.325898962,43.0428179 0.197214369,42.8021986 C0.0685297759,42.5615794 1.61345937e-16,42.3229089 -2.77690086e-16,41.664733 L5.09815508e-17,1.89282329 C-2.96217492e-17,1.23464739 0.0685297759,0.99597691 0.197214369,0.755357641 C0.325898962,0.514738373 0.514738373,0.325898962 0.755357641,0.197214369 C0.99597691,0.0685297759 1.23464739,1.10294718e-16 1.89282329,-1.89826594e-16 Z" id="path-57"></path>
        <filter x="-1.2%" y="-1.1%" width="102.3%" height="104.6%" filterUnits="objectBoundingBox" id="filter-58">
            <feOffset dx="0" dy="1" in="SourceAlpha" result="shadowOffsetOuter1"></feOffset>
            <feColorMatrix values="0 0 0 0 0.433395607   0 0 0 0 0.433395607   0 0 0 0 0.433395607  0 0 0 0.5 0" type="matrix" in="shadowOffsetOuter1"></feColorMatrix>
        </filter>
        <path d="M1.89282329,-1.89826594e-16 L40.9264693,-2.14199817e-15 C41.5846452,1.24456262e-15 41.8233157,0.0685297759 42.063935,0.197214369 C42.3045542,0.325898962 42.4933936,0.514738373 42.6220782,0.755357641 C42.7507628,0.99597691 42.8192926,1.23464739 42.8192926,1.89282329 L42.8192926,41.664733 C42.8192926,42.3229089 42.7507628,42.5615794 42.6220782,42.8021986 C42.4933936,43.0428179 42.3045542,43.2316573 42.063935,43.3603419 C41.8233157,43.4890265 41.5846452,43.5575563 40.9264693,43.5575563 L1.89282329,43.5575563 C1.23464739,43.5575563 0.99597691,43.4890265 0.755357641,43.3603419 C0.514738373,43.2316573 0.325898962,43.0428179 0.197214369,42.8021986 C0.0685297759,42.5615794 1.61345937e-16,42.3229089 -2.77690086e-16,41.664733 L5.09815508e-17,1.89282329 C-2.96217492e-17,1.23464739 0.0685297759,0.99597691 0.197214369,0.755357641 C0.325898962,0.514738373 0.514738373,0.325898962 0.755357641,0.197214369 C0.99597691,0.0685297759 1.23464739,1.10294718e-16 1.89282329,-1.89826594e-16 Z" id="path-59"></path>
        <filter x="-1.2%" y="-1.1%" width="102.3%" height="104.6%" filterUnits="objectBoundingBox" id="filter-60">
            <feOffset dx="0" dy="1" in="SourceAlpha" result="shadowOffsetOuter1"></feOffset>
            <feColorMatrix values="0 0 0 0 0.433395607   0 0 0 0 0.433395607   0 0 0 0 0.433395607  0 0 0 0.5 0" type="matrix" in="shadowOffsetOuter1"></feColorMatrix>
        </filter>
        <path d="M1.89282329,-1.89826594e-16 L40.9264693,-2.14199817e-15 C41.5846452,1.24456262e-15 41.8233157,0.0685297759 42.063935,0.197214369 C42.3045542,0.325898962 42.4933936,0.514738373 42.6220782,0.755357641 C42.7507628,0.99597691 42.8192926,1.23464739 42.8192926,1.89282329 L42.8192926,41.664733 C42.8192926,42.3229089 42.7507628,42.5615794 42.6220782,42.8021986 C42.4933936,43.0428179 42.3045542,43.2316573 42.063935,43.3603419 C41.8233157,43.4890265 41.5846452,43.5575563 40.9264693,43.5575563 L1.89282329,43.5575563 C1.23464739,43.5575563 0.99597691,43.4890265 0.755357641,43.3603419 C0.514738373,43.2316573 0.325898962,43.0428179 0.197214369,42.8021986 C0.0685297759,42.5615794 1.61345937e-16,42.3229089 -2.77690086e-16,41.664733 L5.09815508e-17,1.89282329 C-2.96217492e-17,1.23464739 0.0685297759,0.99597691 0.197214369,0.755357641 C0.325898962,0.514738373 0.514738373,0.325898962 0.755357641,0.197214369 C0.99597691,0.0685297759 1.23464739,1.10294718e-16 1.89282329,-1.89826594e-16 Z" id="path-61"></path>
        <filter x="-1.2%" y="-1.1%" width="102.3%" height="104.6%" filterUnits="objectBoundingBox" id="filter-62">
            <feOffset dx="0" dy="1" in="SourceAlpha" result="shadowOffsetOuter1"></feOffset>
            <feColorMatrix values="0 0 0 0 0.433395607   0 0 0 0 0.433395607   0 0 0 0 0.433395607  0 0 0 0.5 0" type="matrix" in="shadowOffsetOuter1"></feColorMatrix>
        </filter>
        <path d="M1.89282329,-7.64723263e-17 L40.9264693,-2.14199817e-15 C41.5846452,1.24456262e-15 41.8233157,0.0685297759 42.063935,0.197214369 C42.3045542,0.325898962 42.4933936,0.514738373 42.6220782,0.755357641 C42.7507628,0.99597691 42.8192926,1.23464739 42.8192926,1.89282329 L42.8192926,40.9264693 C42.8192926,41.5846452 42.7507628,41.8233157 42.6220782,42.063935 C42.4933936,42.3045542 42.3045542,42.4933936 42.063935,42.6220782 C41.8233157,42.7507628 41.5846452,42.8192926 40.9264693,42.8192926 L1.89282329,42.8192926 C1.23464739,42.8192926 0.99597691,42.7507628 0.755357641,42.6220782 C0.514738373,42.4933936 0.325898962,42.3045542 0.197214369,42.063935 C0.0685297759,41.8233157 1.34292491e-15,41.5846452 -2.31128804e-15,40.9264693 L-1.75726984e-16,1.89282329 C1.02102438e-16,1.23464739 0.0685297759,0.99597691 0.197214369,0.755357641 C0.325898962,0.514738373 0.514738373,0.325898962 0.755357641,0.197214369 C0.99597691,0.0685297759 1.23464739,4.44326238e-17 1.89282329,-7.64723263e-17 Z" id="path-63"></path>
        <filter x="-1.2%" y="-1.2%" width="102.3%" height="104.7%" filterUnits="objectBoundingBox" id="filter-64">
            <feOffset dx="0" dy="1" in="SourceAlpha" result="shadowOffsetOuter1"></feOffset>
            <feComposite in="shadowOffsetOuter1" in2="SourceAlpha" operator="out" result="shadowOffsetOuter1"></feComposite>
            <feColorMatrix values="0 0 0 0 0.433395607   0 0 0 0 0.433395607   0 0 0 0 0.433395607  0 0 0 0.5 0" type="matrix" in="shadowOffsetOuter1"></feColorMatrix>
        </filter>
        <path d="M1.89282329,-7.64723263e-17 L40.9264693,-2.14199817e-15 C41.5846452,1.24456262e-15 41.8233157,0.0685297759 42.063935,0.197214369 C42.3045542,0.325898962 42.4933936,0.514738373 42.6220782,0.755357641 C42.7507628,0.99597691 42.8192926,1.23464739 42.8192926,1.89282329 L42.8192926,40.9264693 C42.8192926,41.5846452 42.7507628,41.8233157 42.6220782,42.063935 C42.4933936,42.3045542 42.3045542,42.4933936 42.063935,42.6220782 C41.8233157,42.7507628 41.5846452,42.8192926 40.9264693,42.8192926 L1.89282329,42.8192926 C1.23464739,42.8192926 0.99597691,42.7507628 0.755357641,42.6220782 C0.514738373,42.4933936 0.325898962,42.3045542 0.197214369,42.063935 C0.0685297759,41.8233157 1.34292491e-15,41.5846452 -2.31128804e-15,40.9264693 L-1.75726984e-16,1.89282329 C1.02102438e-16,1.23464739 0.0685297759,0.99597691 0.197214369,0.755357641 C0.325898962,0.514738373 0.514738373,0.325898962 0.755357641,0.197214369 C0.99597691,0.0685297759 1.23464739,4.44326238e-17 1.89282329,-7.64723263e-17 Z" id="path-65"></path>
        <filter x="-1.2%" y="-1.2%" width="102.3%" height="104.7%" filterUnits="objectBoundingBox" id="filter-66">
            <feOffset dx="0" dy="1" in="SourceAlpha" result="shadowOffsetOuter1"></feOffset>
            <feComposite in="shadowOffsetOuter1" in2="SourceAlpha" operator="out" result="shadowOffsetOuter1"></feComposite>
            <feColorMatrix values="0 0 0 0 0.433395607   0 0 0 0 0.433395607   0 0 0 0 0.433395607  0 0 0 0.5 0" type="matrix" in="shadowOffsetOuter1"></feColorMatrix>
        </filter>
        <path d="M1.89282329,-7.64723263e-17 L40.9264693,-2.14199817e-15 C41.5846452,1.24456262e-15 41.8233157,0.0685297759 42.063935,0.197214369 C42.3045542,0.325898962 42.4933936,0.514738373 42.6220782,0.755357641 C42.7507628,0.99597691 42.8192926,1.23464739 42.8192926,1.89282329 L42.8192926,40.9264693 C42.8192926,41.5846452 42.7507628,41.8233157 42.6220782,42.063935 C42.4933936,42.3045542 42.3045542,42.4933936 42.063935,42.6220782 C41.8233157,42.7507628 41.5846452,42.8192926 40.9264693,42.8192926 L1.89282329,42.8192926 C1.23464739,42.8192926 0.99597691,42.7507628 0.755357641,42.6220782 C0.514738373,42.4933936 0.325898962,42.3045542 0.197214369,42.063935 C0.0685297759,41.8233157 1.34292491e-15,41.5846452 -2.31128804e-15,40.9264693 L-1.75726984e-16,1.89282329 C1.02102438e-16,1.23464739 0.0685297759,0.99597691 0.197214369,0.755357641 C0.325898962,0.514738373 0.514738373,0.325898962 0.755357641,0.197214369 C0.99597691,0.0685297759 1.23464739,4.44326238e-17 1.89282329,-7.64723263e-17 Z" id="path-67"></path>
        <filter x="-1.2%" y="-1.2%" width="102.3%" height="104.7%" filterUnits="objectBoundingBox" id="filter-68">
            <feOffset dx="0" dy="1" in="SourceAlpha" result="shadowOffsetOuter1"></feOffset>
            <feComposite in="shadowOffsetOuter1" in2="SourceAlpha" operator="out" result="shadowOffsetOuter1"></feComposite>
            <feColorMatrix values="0 0 0 0 0.433395607   0 0 0 0 0.433395607   0 0 0 0 0.433395607  0 0 0 0.5 0" type="matrix" in="shadowOffsetOuter1"></feColorMatrix>
        </filter>
        <path d="M1.89282329,-7.64723263e-17 L40.9264693,-2.14199817e-15 C41.5846452,1.24456262e-15 41.8233157,0.0685297759 42.063935,0.197214369 C42.3045542,0.325898962 42.4933936,0.514738373 42.6220782,0.755357641 C42.7507628,0.99597691 42.8192926,1.23464739 42.8192926,1.89282329 L42.8192926,40.9264693 C42.8192926,41.5846452 42.7507628,41.8233157 42.6220782,42.063935 C42.4933936,42.3045542 42.3045542,42.4933936 42.063935,42.6220782 C41.8233157,42.7507628 41.5846452,42.8192926 40.9264693,42.8192926 L1.89282329,42.8192926 C1.23464739,42.8192926 0.99597691,42.7507628 0.755357641,42.6220782 C0.514738373,42.4933936 0.325898962,42.3045542 0.197214369,42.063935 C0.0685297759,41.8233157 1.34292491e-15,41.5846452 -2.31128804e-15,40.9264693 L-1.75726984e-16,1.89282329 C1.02102438e-16,1.23464739 0.0685297759,0.99597691 0.197214369,0.755357641 C0.325898962,0.514738373 0.514738373,0.325898962 0.755357641,0.197214369 C0.99597691,0.0685297759 1.23464739,4.44326238e-17 1.89282329,-7.64723263e-17 Z" id="path-69"></path>
        <filter x="-1.2%" y="-1.2%" width="102.3%" height="104.7%" filterUnits="objectBoundingBox" id="filter-70">
            <feOffset dx="0" dy="1" in="SourceAlpha" result="shadowOffsetOuter1"></feOffset>
            <feComposite in="shadowOffsetOuter1" in2="SourceAlpha" operator="out" result="shadowOffsetOuter1"></feComposite>
            <feColorMatrix values="0 0 0 0 0.433395607   0 0 0 0 0.433395607   0 0 0 0 0.433395607  0 0 0 0.5 0" type="matrix" in="shadowOffsetOuter1"></feColorMatrix>
        </filter>
        <path d="M1.89282329,-1.89826594e-16 L40.9264693,-2.14199817e-15 C41.5846452,1.24456262e-15 41.8233157,0.0685297759 42.063935,0.197214369 C42.3045542,0.325898962 42.4933936,0.514738373 42.6220782,0.755357641 C42.7507628,0.99597691 42.8192926,1.23464739 42.8192926,1.89282329 L42.8192926,41.664733 C42.8192926,42.3229089 42.7507628,42.5615794 42.6220782,42.8021986 C42.4933936,43.0428179 42.3045542,43.2316573 42.063935,43.3603419 C41.8233157,43.4890265 41.5846452,43.5575563 40.9264693,43.5575563 L1.89282329,43.5575563 C1.23464739,43.5575563 0.99597691,43.4890265 0.755357641,43.3603419 C0.514738373,43.2316573 0.325898962,43.0428179 0.197214369,42.8021986 C0.0685297759,42.5615794 1.61345937e-16,42.3229089 -2.77690086e-16,41.664733 L5.09815508e-17,1.89282329 C-2.96217492e-17,1.23464739 0.0685297759,0.99597691 0.197214369,0.755357641 C0.325898962,0.514738373 0.514738373,0.325898962 0.755357641,0.197214369 C0.99597691,0.0685297759 1.23464739,1.10294718e-16 1.89282329,-1.89826594e-16 Z" id="path-71"></path>
        <filter x="-1.2%" y="-1.1%" width="102.3%" height="104.6%" filterUnits="objectBoundingBox" id="filter-72">
            <feOffset dx="0" dy="1" in="SourceAlpha" result="shadowOffsetOuter1"></feOffset>
            <feColorMatrix values="0 0 0 0 0.433395607   0 0 0 0 0.433395607   0 0 0 0 0.433395607  0 0 0 0.5 0" type="matrix" in="shadowOffsetOuter1"></feColorMatrix>
        </filter>
        <path d="M1.89282329,-1.89826594e-16 L40.9264693,-2.14199817e-15 C41.5846452,1.24456262e-15 41.8233157,0.0685297759 42.063935,0.197214369 C42.3045542,0.325898962 42.4933936,0.514738373 42.6220782,0.755357641 C42.7507628,0.99597691 42.8192926,1.23464739 42.8192926,1.89282329 L42.8192926,41.664733 C42.8192926,42.3229089 42.7507628,42.5615794 42.6220782,42.8021986 C42.4933936,43.0428179 42.3045542,43.2316573 42.063935,43.3603419 C41.8233157,43.4890265 41.5846452,43.5575563 40.9264693,43.5575563 L1.89282329,43.5575563 C1.23464739,43.5575563 0.99597691,43.4890265 0.755357641,43.3603419 C0.514738373,43.2316573 0.325898962,43.0428179 0.197214369,42.8021986 C0.0685297759,42.5615794 1.61345937e-16,42.3229089 -2.77690086e-16,41.664733 L5.09815508e-17,1.89282329 C-2.96217492e-17,1.23464739 0.0685297759,0.99597691 0.197214369,0.755357641 C0.325898962,0.514738373 0.514738373,0.325898962 0.755357641,0.197214369 C0.99597691,0.0685297759 1.23464739,1.10294718e-16 1.89282329,-1.89826594e-16 Z" id="path-73"></path>
        <filter x="-1.2%" y="-1.1%" width="102.3%" height="104.6%" filterUnits="objectBoundingBox" id="filter-74">
            <feOffset dx="0" dy="1" in="SourceAlpha" result="shadowOffsetOuter1"></feOffset>
            <feColorMatrix values="0 0 0 0 0.433395607   0 0 0 0 0.433395607   0 0 0 0 0.433395607  0 0 0 0.5 0" type="matrix" in="shadowOffsetOuter1"></feColorMatrix>
        </filter>
        <path d="M1.89282329,-1.89826594e-16 L40.9264693,-2.14199817e-15 C41.5846452,1.24456262e-15 41.8233157,0.0685297759 42.063935,0.197214369 C42.3045542,0.325898962 42.4933936,0.514738373 42.6220782,0.755357641 C42.7507628,0.99597691 42.8192926,1.23464739 42.8192926,1.89282329 L42.8192926,41.664733 C42.8192926,42.3229089 42.7507628,42.5615794 42.6220782,42.8021986 C42.4933936,43.0428179 42.3045542,43.2316573 42.063935,43.3603419 C41.8233157,43.4890265 41.5846452,43.5575563 40.9264693,43.5575563 L1.89282329,43.5575563 C1.23464739,43.5575563 0.99597691,43.4890265 0.755357641,43.3603419 C0.514738373,43.2316573 0.325898962,43.0428179 0.197214369,42.8021986 C0.0685297759,42.5615794 1.61345937e-16,42.3229089 -2.77690086e-16,41.664733 L5.09815508e-17,1.89282329 C-2.96217492e-17,1.23464739 0.0685297759,0.99597691 0.197214369,0.755357641 C0.325898962,0.514738373 0.514738373,0.325898962 0.755357641,0.197214369 C0.99597691,0.0685297759 1.23464739,1.10294718e-16 1.89282329,-1.89826594e-16 Z" id="path-75"></path>
        <filter x="-1.2%" y="-1.1%" width="102.3%" height="104.6%" filterUnits="objectBoundingBox" id="filter-76">
            <feOffset dx="0" dy="1" in="SourceAlpha" result="shadowOffsetOuter1"></feOffset>
            <feColorMatrix values="0 0 0 0 0.433395607   0 0 0 0 0.433395607   0 0 0 0 0.433395607  0 0 0 0.5 0" type="matrix" in="shadowOffsetOuter1"></feColorMatrix>
        </filter>
        <path d="M1.89282329,-1.89826594e-16 L40.9264693,-2.14199817e-15 C41.5846452,1.24456262e-15 41.8233157,0.0685297759 42.063935,0.197214369 C42.3045542,0.325898962 42.4933936,0.514738373 42.6220782,0.755357641 C42.7507628,0.99597691 42.8192926,1.23464739 42.8192926,1.89282329 L42.8192926,41.664733 C42.8192926,42.3229089 42.7507628,42.5615794 42.6220782,42.8021986 C42.4933936,43.0428179 42.3045542,43.2316573 42.063935,43.3603419 C41.8233157,43.4890265 41.5846452,43.5575563 40.9264693,43.5575563 L1.89282329,43.5575563 C1.23464739,43.5575563 0.99597691,43.4890265 0.755357641,43.3603419 C0.514738373,43.2316573 0.325898962,43.0428179 0.197214369,42.8021986 C0.0685297759,42.5615794 1.61345937e-16,42.3229089 -2.77690086e-16,41.664733 L5.09815508e-17,1.89282329 C-2.96217492e-17,1.23464739 0.0685297759,0.99597691 0.197214369,0.755357641 C0.325898962,0.514738373 0.514738373,0.325898962 0.755357641,0.197214369 C0.99597691,0.0685297759 1.23464739,1.10294718e-16 1.89282329,-1.89826594e-16 Z" id="path-77"></path>
        <filter x="-1.2%" y="-1.1%" width="102.3%" height="104.6%" filterUnits="objectBoundingBox" id="filter-78">
            <feOffset dx="0" dy="1" in="SourceAlpha" result="shadowOffsetOuter1"></feOffset>
            <feColorMatrix values="0 0 0 0 0.433395607   0 0 0 0 0.433395607   0 0 0 0 0.433395607  0 0 0 0.5 0" type="matrix" in="shadowOffsetOuter1"></feColorMatrix>
        </filter>
        <path d="M1.89282329,-1.89826594e-16 L40.9264693,-2.14199817e-15 C41.5846452,1.24456262e-15 41.8233157,0.0685297759 42.063935,0.197214369 C42.3045542,0.325898962 42.4933936,0.514738373 42.6220782,0.755357641 C42.7507628,0.99597691 42.8192926,1.23464739 42.8192926,1.89282329 L42.8192926,41.664733 C42.8192926,42.3229089 42.7507628,42.5615794 42.6220782,42.8021986 C42.4933936,43.0428179 42.3045542,43.2316573 42.063935,43.3603419 C41.8233157,43.4890265 41.5846452,43.5575563 40.9264693,43.5575563 L1.89282329,43.5575563 C1.23464739,43.5575563 0.99597691,43.4890265 0.755357641,43.3603419 C0.514738373,43.2316573 0.325898962,43.0428179 0.197214369,42.8021986 C0.0685297759,42.5615794 1.61345937e-16,42.3229089 -2.77690086e-16,41.664733 L5.09815508e-17,1.89282329 C-2.96217492e-17,1.23464739 0.0685297759,0.99597691 0.197214369,0.755357641 C0.325898962,0.514738373 0.514738373,0.325898962 0.755357641,0.197214369 C0.99597691,0.0685297759 1.23464739,1.10294718e-16 1.89282329,-1.89826594e-16 Z" id="path-79"></path>
        <filter x="-1.2%" y="-1.1%" width="102.3%" height="104.6%" filterUnits="objectBoundingBox" id="filter-80">
            <feOffset dx="0" dy="1" in="SourceAlpha" result="shadowOffsetOuter1"></feOffset>
            <feColorMatrix values="0 0 0 0 0.433395607   0 0 0 0 0.433395607   0 0 0 0 0.433395607  0 0 0 0.5 0" type="matrix" in="shadowOffsetOuter1"></feColorMatrix>
        </filter>
        <path d="M1.89282329,-1.89826594e-16 L40.9264693,-2.14199817e-15 C41.5846452,1.24456262e-15 41.8233157,0.0685297759 42.063935,0.197214369 C42.3045542,0.325898962 42.4933936,0.514738373 42.6220782,0.755357641 C42.7507628,0.99597691 42.8192926,1.23464739 42.8192926,1.89282329 L42.8192926,41.664733 C42.8192926,42.3229089 42.7507628,42.5615794 42.6220782,42.8021986 C42.4933936,43.0428179 42.3045542,43.2316573 42.063935,43.3603419 C41.8233157,43.4890265 41.5846452,43.5575563 40.9264693,43.5575563 L1.89282329,43.5575563 C1.23464739,43.5575563 0.99597691,43.4890265 0.755357641,43.3603419 C0.514738373,43.2316573 0.325898962,43.0428179 0.197214369,42.8021986 C0.0685297759,42.5615794 1.61345937e-16,42.3229089 -2.77690086e-16,41.664733 L5.09815508e-17,1.89282329 C-2.96217492e-17,1.23464739 0.0685297759,0.99597691 0.197214369,0.755357641 C0.325898962,0.514738373 0.514738373,0.325898962 0.755357641,0.197214369 C0.99597691,0.0685297759 1.23464739,1.10294718e-16 1.89282329,-1.89826594e-16 Z" id="path-81"></path>
        <filter x="-1.2%" y="-1.1%" width="102.3%" height="104.6%" filterUnits="objectBoundingBox" id="filter-82">
            <feOffset dx="0" dy="1" in="SourceAlpha" result="shadowOffsetOuter1"></feOffset>
            <feColorMatrix values="0 0 0 0 0.433395607   0 0 0 0 0.433395607   0 0 0 0 0.433395607  0 0 0 0.5 0" type="matrix" in="shadowOffsetOuter1"></feColorMatrix>
        </filter>
        <path d="M1.89282329,-1.89826594e-16 L40.9264693,-2.14199817e-15 C41.5846452,1.24456262e-15 41.8233157,0.0685297759 42.063935,0.197214369 C42.3045542,0.325898962 42.4933936,0.514738373 42.6220782,0.755357641 C42.7507628,0.99597691 42.8192926,1.23464739 42.8192926,1.89282329 L42.8192926,41.664733 C42.8192926,42.3229089 42.7507628,42.5615794 42.6220782,42.8021986 C42.4933936,43.0428179 42.3045542,43.2316573 42.063935,43.3603419 C41.8233157,43.4890265 41.5846452,43.5575563 40.9264693,43.5575563 L1.89282329,43.5575563 C1.23464739,43.5575563 0.99597691,43.4890265 0.755357641,43.3603419 C0.514738373,43.2316573 0.325898962,43.0428179 0.197214369,42.8021986 C0.0685297759,42.5615794 1.61345937e-16,42.3229089 -2.77690086e-16,41.664733 L5.09815508e-17,1.89282329 C-2.96217492e-17,1.23464739 0.0685297759,0.99597691 0.197214369,0.755357641 C0.325898962,0.514738373 0.514738373,0.325898962 0.755357641,0.197214369 C0.99597691,0.0685297759 1.23464739,1.10294718e-16 1.89282329,-1.89826594e-16 Z" id="path-83"></path>
        <filter x="-1.2%" y="-1.1%" width="102.3%" height="104.6%" filterUnits="objectBoundingBox" id="filter-84">
            <feOffset dx="0" dy="1" in="SourceAlpha" result="shadowOffsetOuter1"></feOffset>
            <feColorMatrix values="0 0 0 0 0.433395607   0 0 0 0 0.433395607   0 0 0 0 0.433395607  0 0 0 0.5 0" type="matrix" in="shadowOffsetOuter1"></feColorMatrix>
        </filter>
        <path d="M1.89282329,-1.89826594e-16 L40.9264693,-2.14199817e-15 C41.5846452,1.24456262e-15 41.8233157,0.0685297759 42.063935,0.197214369 C42.3045542,0.325898962 42.4933936,0.514738373 42.6220782,0.755357641 C42.7507628,0.99597691 42.8192926,1.23464739 42.8192926,1.89282329 L42.8192926,41.664733 C42.8192926,42.3229089 42.7507628,42.5615794 42.6220782,42.8021986 C42.4933936,43.0428179 42.3045542,43.2316573 42.063935,43.3603419 C41.8233157,43.4890265 41.5846452,43.5575563 40.9264693,43.5575563 L1.89282329,43.5575563 C1.23464739,43.5575563 0.99597691,43.4890265 0.755357641,43.3603419 C0.514738373,43.2316573 0.325898962,43.0428179 0.197214369,42.8021986 C0.0685297759,42.5615794 1.61345937e-16,42.3229089 -2.77690086e-16,41.664733 L5.09815508e-17,1.89282329 C-2.96217492e-17,1.23464739 0.0685297759,0.99597691 0.197214369,0.755357641 C0.325898962,0.514738373 0.514738373,0.325898962 0.755357641,0.197214369 C0.99597691,0.0685297759 1.23464739,1.10294718e-16 1.89282329,-1.89826594e-16 Z" id="path-85"></path>
        <filter x="-1.2%" y="-1.1%" width="102.3%" height="104.6%" filterUnits="objectBoundingBox" id="filter-86">
            <feOffset dx="0" dy="1" in="SourceAlpha" result="shadowOffsetOuter1"></feOffset>
            <feColorMatrix values="0 0 0 0 0.433395607   0 0 0 0 0.433395607   0 0 0 0 0.433395607  0 0 0 0.5 0" type="matrix" in="shadowOffsetOuter1"></feColorMatrix>
        </filter>
        <path d="M1.89282329,-1.89826594e-16 L40.9264693,-2.14199817e-15 C41.5846452,1.24456262e-15 41.8233157,0.0685297759 42.063935,0.197214369 C42.3045542,0.325898962 42.4933936,0.514738373 42.6220782,0.755357641 C42.7507628,0.99597691 42.8192926,1.23464739 42.8192926,1.89282329 L42.8192926,41.664733 C42.8192926,42.3229089 42.7507628,42.5615794 42.6220782,42.8021986 C42.4933936,43.0428179 42.3045542,43.2316573 42.063935,43.3603419 C41.8233157,43.4890265 41.5846452,43.5575563 40.9264693,43.5575563 L1.89282329,43.5575563 C1.23464739,43.5575563 0.99597691,43.4890265 0.755357641,43.3603419 C0.514738373,43.2316573 0.325898962,43.0428179 0.197214369,42.8021986 C0.0685297759,42.5615794 1.61345937e-16,42.3229089 -2.77690086e-16,41.664733 L5.09815508e-17,1.89282329 C-2.96217492e-17,1.23464739 0.0685297759,0.99597691 0.197214369,0.755357641 C0.325898962,0.514738373 0.514738373,0.325898962 0.755357641,0.197214369 C0.99597691,0.0685297759 1.23464739,1.10294718e-16 1.89282329,-1.89826594e-16 Z" id="path-87"></path>
        <filter x="-1.2%" y="-1.1%" width="102.3%" height="104.6%" filterUnits="objectBoundingBox" id="filter-88">
            <feOffset dx="0" dy="1" in="SourceAlpha" result="shadowOffsetOuter1"></feOffset>
            <feColorMatrix values="0 0 0 0 0.433395607   0 0 0 0 0.433395607   0 0 0 0 0.433395607  0 0 0 0.5 0" type="matrix" in="shadowOffsetOuter1"></feColorMatrix>
        </filter>
        <path d="M1.89282329,-1.89826594e-16 L40.9264693,-2.14199817e-15 C41.5846452,1.24456262e-15 41.8233157,0.0685297759 42.063935,0.197214369 C42.3045542,0.325898962 42.4933936,0.514738373 42.6220782,0.755357641 C42.7507628,0.99597691 42.8192926,1.23464739 42.8192926,1.89282329 L42.8192926,41.664733 C42.8192926,42.3229089 42.7507628,42.5615794 42.6220782,42.8021986 C42.4933936,43.0428179 42.3045542,43.2316573 42.063935,43.3603419 C41.8233157,43.4890265 41.5846452,43.5575563 40.9264693,43.5575563 L1.89282329,43.5575563 C1.23464739,43.5575563 0.99597691,43.4890265 0.755357641,43.3603419 C0.514738373,43.2316573 0.325898962,43.0428179 0.197214369,42.8021986 C0.0685297759,42.5615794 1.61345937e-16,42.3229089 -2.77690086e-16,41.664733 L5.09815508e-17,1.89282329 C-2.96217492e-17,1.23464739 0.0685297759,0.99597691 0.197214369,0.755357641 C0.325898962,0.514738373 0.514738373,0.325898962 0.755357641,0.197214369 C0.99597691,0.0685297759 1.23464739,1.10294718e-16 1.89282329,-1.89826594e-16 Z" id="path-89"></path>
        <filter x="-1.2%" y="-1.1%" width="102.3%" height="104.6%" filterUnits="objectBoundingBox" id="filter-90">
            <feOffset dx="0" dy="1" in="SourceAlpha" result="shadowOffsetOuter1"></feOffset>
            <feColorMatrix values="0 0 0 0 0.433395607   0 0 0 0 0.433395607   0 0 0 0 0.433395607  0 0 0 0.5 0" type="matrix" in="shadowOffsetOuter1"></feColorMatrix>
        </filter>
        <path d="M1.89282329,-1.89826594e-16 L40.9264693,-2.14199817e-15 C41.5846452,1.24456262e-15 41.8233157,0.0685297759 42.063935,0.197214369 C42.3045542,0.325898962 42.4933936,0.514738373 42.6220782,0.755357641 C42.7507628,0.99597691 42.8192926,1.23464739 42.8192926,1.89282329 L42.8192926,41.664733 C42.8192926,42.3229089 42.7507628,42.5615794 42.6220782,42.8021986 C42.4933936,43.0428179 42.3045542,43.2316573 42.063935,43.3603419 C41.8233157,43.4890265 41.5846452,43.5575563 40.9264693,43.5575563 L1.89282329,43.5575563 C1.23464739,43.5575563 0.99597691,43.4890265 0.755357641,43.3603419 C0.514738373,43.2316573 0.325898962,43.0428179 0.197214369,42.8021986 C0.0685297759,42.5615794 1.61345937e-16,42.3229089 -2.77690086e-16,41.664733 L5.09815508e-17,1.89282329 C-2.96217492e-17,1.23464739 0.0685297759,0.99597691 0.197214369,0.755357641 C0.325898962,0.514738373 0.514738373,0.325898962 0.755357641,0.197214369 C0.99597691,0.0685297759 1.23464739,1.10294718e-16 1.89282329,-1.89826594e-16 Z" id="path-91"></path>
        <filter x="-1.2%" y="-1.1%" width="102.3%" height="104.6%" filterUnits="objectBoundingBox" id="filter-92">
            <feOffset dx="0" dy="1" in="SourceAlpha" result="shadowOffsetOuter1"></feOffset>
            <feColorMatrix values="0 0 0 0 0.433395607   0 0 0 0 0.433395607   0 0 0 0 0.433395607  0 0 0 0.5 0" type="matrix" in="shadowOffsetOuter1"></feColorMatrix>
        </filter>
        <path d="M1.89282329,-1.89826594e-16 L40.9264693,-2.14199817e-15 C41.5846452,1.24456262e-15 41.8233157,0.0685297759 42.063935,0.197214369 C42.3045542,0.325898962 42.4933936,0.514738373 42.6220782,0.755357641 C42.7507628,0.99597691 42.8192926,1.23464739 42.8192926,1.89282329 L42.8192926,41.664733 C42.8192926,42.3229089 42.7507628,42.5615794 42.6220782,42.8021986 C42.4933936,43.0428179 42.3045542,43.2316573 42.063935,43.3603419 C41.8233157,43.4890265 41.5846452,43.5575563 40.9264693,43.5575563 L1.89282329,43.5575563 C1.23464739,43.5575563 0.99597691,43.4890265 0.755357641,43.3603419 C0.514738373,43.2316573 0.325898962,43.0428179 0.197214369,42.8021986 C0.0685297759,42.5615794 1.61345937e-16,42.3229089 -2.77690086e-16,41.664733 L5.09815508e-17,1.89282329 C-2.96217492e-17,1.23464739 0.0685297759,0.99597691 0.197214369,0.755357641 C0.325898962,0.514738373 0.514738373,0.325898962 0.755357641,0.197214369 C0.99597691,0.0685297759 1.23464739,1.10294718e-16 1.89282329,-1.89826594e-16 Z" id="path-93"></path>
        <filter x="-1.2%" y="-1.1%" width="102.3%" height="104.6%" filterUnits="objectBoundingBox" id="filter-94">
            <feOffset dx="0" dy="1" in="SourceAlpha" result="shadowOffsetOuter1"></feOffset>
            <feColorMatrix values="0 0 0 0 0.433395607   0 0 0 0 0.433395607   0 0 0 0 0.433395607  0 0 0 0.5 0" type="matrix" in="shadowOffsetOuter1"></feColorMatrix>
        </filter>
    </defs>
    <g id="Page-1" stroke="none" stroke-width="1" fill="none" fill-rule="evenodd">
        <g id="Jian-manual-b2-Copy-2" transform="translate(-180.000000, -1486.000000)">
            <g id="Group-2" transform="translate(172.000000, 1486.000000)">
                <g id="Plank" transform="translate(8.859164, 0.000000)">
                    <g id="5" transform="translate(325.574277, 138.793569)">
                        <g id="btn-left-6">
                            <use fill="black" fill-opacity="1" filter="url(#filter-2)" xlink:href="#path-1"></use>
                            <use fill="#6FA1B8" fill-rule="evenodd" xlink:href="#path-1"></use>
                        </g>
                    </g>
                    <g id="5" transform="translate(232.553055, 138.793569)">
                        <g id="btn-left-6">
                            <use fill="black" fill-opacity="1" filter="url(#filter-4)" xlink:href="#path-3"></use>
                            <use fill="#6FA1B8" fill-rule="evenodd" xlink:href="#path-3"></use>
                        </g>
                    </g>
                    <g id="5" transform="translate(186.042444, 138.793569)">
                        <g id="btn-left-6">
                            <use fill="black" fill-opacity="1" filter="url(#filter-6)" xlink:href="#path-5"></use>
                            <use fill="#6FA1B8" fill-rule="evenodd" xlink:href="#path-5"></use>
                        </g>
                    </g>
                    <g id="4l" transform="translate(325.574277, 93.021222)">
                        <g id="btn-left-6">
                            <use fill="black" fill-opacity="1" filter="url(#filter-8)" xlink:href="#path-7"></use>
                            <use fill="#B5DAEA" fill-rule="evenodd" xlink:href="#path-7"></use>
                        </g>
                    </g>
                    <g id="4l" transform="translate(279.063666, 93.021222)">
                        <g id="btn-left-6">
                            <use fill="black" fill-opacity="1" filter="url(#filter-10)" xlink:href="#path-9"></use>
                            <use fill="#B5DAEA" fill-rule="evenodd" xlink:href="#path-9"></use>
                        </g>
                    </g>
                    <g id="4l" transform="translate(232.553055, 93.021222)">
                        <g id="btn-left-6">
                            <use fill="black" fill-opacity="1" filter="url(#filter-12)" xlink:href="#path-11"></use>
                            <use fill="#B5DAEA" fill-rule="evenodd" xlink:href="#path-11"></use>
                        </g>
                    </g>
                    <g id="4l" transform="translate(186.042444, 93.021222)">
                        <g id="btn-left-6">
                            <use fill="black" fill-opacity="1" filter="url(#filter-14)" xlink:href="#path-13"></use>
                            <use fill="#B5DAEA" fill-rule="evenodd" xlink:href="#path-13"></use>
                        </g>
                    </g>
                    <g id="4l" transform="translate(325.574277, 46.510611)">
                        <g id="btn-left-6">
                            <use fill="black" fill-opacity="1" filter="url(#filter-16)" xlink:href="#path-15"></use>
                            <use fill="#B5DAEA" fill-rule="evenodd" xlink:href="#path-15"></use>
                        </g>
                    </g>
                    <g id="4l" transform="translate(279.063666, 46.510611)">
                        <g id="btn-left-6">
                            <use fill="black" fill-opacity="1" filter="url(#filter-18)" xlink:href="#path-17"></use>
                            <use fill="#B5DAEA" fill-rule="evenodd" xlink:href="#path-17"></use>
                        </g>
                    </g>
                    <g id="4l" transform="translate(232.553055, 46.510611)">
                        <g id="btn-left-6">
                            <use fill="black" fill-opacity="1" filter="url(#filter-20)" xlink:href="#path-19"></use>
                            <use fill="#B5DAEA" fill-rule="evenodd" xlink:href="#path-19"></use>
                        </g>
                    </g>
                    <g id="4l" transform="translate(186.042444, 46.510611)">
                        <g id="btn-left-6">
                            <use fill="black" fill-opacity="1" filter="url(#filter-22)" xlink:href="#path-21"></use>
                            <use fill="#B5DAEA" fill-rule="evenodd" xlink:href="#path-21"></use>
                        </g>
                    </g>
                    <g id="4l" transform="translate(325.574277, -0.000000)">
                        <g id="btn-left-6">
                            <use fill="black" fill-opacity="1" filter="url(#filter-24)" xlink:href="#path-23"></use>
                            <use fill="#B5DAEA" fill-rule="evenodd" xlink:href="#path-23"></use>
                        </g>
                    </g>
                    <g id="4l" transform="translate(279.063666, -0.000000)">
                        <g id="btn-left-6">
                            <use fill="black" fill-opacity="1" filter="url(#filter-26)" xlink:href="#path-25"></use>
                            <use fill="#B5DAEA" fill-rule="evenodd" xlink:href="#path-25"></use>
                        </g>
                    </g>
                    <g id="4l" transform="translate(232.553055, -0.000000)">
                        <g id="btn-left-6">
                            <use fill="black" fill-opacity="1" filter="url(#filter-28)" xlink:href="#path-27"></use>
                            <use fill="#B5DAEA" fill-rule="evenodd" xlink:href="#path-27"></use>
                        </g>
                    </g>
                    <g id="4l" transform="translate(186.042444, -0.000000)">
                        <g id="btn-left-6">
                            <use fill="black" fill-opacity="1" filter="url(#filter-30)" xlink:href="#path-29"></use>
                            <use fill="#B5DAEA" fill-rule="evenodd" xlink:href="#path-29"></use>
                        </g>
                    </g>
                    <g id="1" transform="translate(511.616720, 139.531833)">
                        <g id="btn-left-6">
                            <use fill="black" fill-opacity="1" filter="url(#filter-32)" xlink:href="#path-31"></use>
                            <path stroke="#FF0000" stroke-width="1.47652733" d="M40.9264693,0.738263666 L1.89282329,0.738263666 C1.44372161,0.738263666 1.2704906,0.758929198 0.848225013,1.10352194 C0.758929198,1.2704906 0.738263666,1.44372161 0.738263666,1.89282329 L0.738263666,40.9264693 C0.738263666,41.375571 0.758929198,41.548802 1.10352194,41.9710676 C1.2704906,42.0603634 1.44372161,42.0810289 1.89282329,42.0810289 L40.9264693,42.0810289 C41.375571,42.0810289 41.548802,42.0603634 41.9710676,41.7157707 C42.0603634,41.548802 42.0810289,41.375571 42.0810289,40.9264693 L42.0810289,1.89282329 C42.0810289,1.44372161 42.0603634,1.2704906 41.7157707,0.848225013 C41.548802,0.758929198 41.375571,0.738263666 40.9264693,0.738263666 Z" stroke-linejoin="square" fill="#BDD6D2" fill-rule="evenodd"></path>
                        </g>
                    </g>
                    <g id="1" transform="translate(465.106109, 139.531833)">
                        <g id="btn-left-6">
                            <use fill="black" fill-opacity="1" filter="url(#filter-34)" xlink:href="#path-33"></use>
                            <path stroke="#FF0000" stroke-width="1.47652733" d="M40.9264693,0.738263666 L1.89282329,0.738263666 C1.44372161,0.738263666 1.2704906,0.758929198 0.848225013,1.10352194 C0.758929198,1.2704906 0.738263666,1.44372161 0.738263666,1.89282329 L0.738263666,40.9264693 C0.738263666,41.375571 0.758929198,41.548802 1.10352194,41.9710676 C1.2704906,42.0603634 1.44372161,42.0810289 1.89282329,42.0810289 L40.9264693,42.0810289 C41.375571,42.0810289 41.548802,42.0603634 41.9710676,41.7157707 C42.0603634,41.548802 42.0810289,41.375571 42.0810289,40.9264693 L42.0810289,1.89282329 C42.0810289,1.44372161 42.0603634,1.2704906 41.7157707,0.848225013 C41.548802,0.758929198 41.375571,0.738263666 40.9264693,0.738263666 Z" stroke-linejoin="square" fill="#BDD6D2" fill-rule="evenodd"></path>
                        </g>
                    </g>
                    <g id="2" transform="translate(418.595498, 139.531833)">
                        <g id="btn-left-6">
                            <use fill="black" fill-opacity="1" filter="url(#filter-36)" xlink:href="#path-35"></use>
                            <path stroke="#FF0000" stroke-width="1.47652733" d="M40.9264693,0.738263666 L1.89282329,0.738263666 C1.44372161,0.738263666 1.2704906,0.758929198 0.848225013,1.10352194 C0.758929198,1.2704906 0.738263666,1.44372161 0.738263666,1.89282329 L0.738263666,40.9264693 C0.738263666,41.375571 0.758929198,41.548802 1.10352194,41.9710676 C1.2704906,42.0603634 1.44372161,42.0810289 1.89282329,42.0810289 L40.9264693,42.0810289 C41.375571,42.0810289 41.548802,42.0603634 41.9710676,41.7157707 C42.0603634,41.548802 42.0810289,41.375571 42.0810289,40.9264693 L42.0810289,1.89282329 C42.0810289,1.44372161 42.0603634,1.2704906 41.7157707,0.848225013 C41.548802,0.758929198 41.375571,0.738263666 40.9264693,0.738263666 Z" stroke-linejoin="square" fill="#B5DAEA" fill-rule="evenodd"></path>
                        </g>
                    </g>
                    <g id="3" transform="translate(372.084887, 139.531833)">
                        <g id="btn-left-6">
                            <use fill="black" fill-opacity="1" filter="url(#filter-38)" xlink:href="#path-37"></use>
                            <path stroke="#FF0000" stroke-width="1.47652733" d="M40.9264693,0.738263666 L1.89282329,0.738263666 C1.44372161,0.738263666 1.2704906,0.758929198 0.848225013,1.10352194 C0.758929198,1.2704906 0.738263666,1.44372161 0.738263666,1.89282329 L0.738263666,40.9264693 C0.738263666,41.375571 0.758929198,41.548802 1.10352194,41.9710676 C1.2704906,42.0603634 1.44372161,42.0810289 1.89282329,42.0810289 L40.9264693,42.0810289 C41.375571,42.0810289 41.548802,42.0603634 41.9710676,41.7157707 C42.0603634,41.548802 42.0810289,41.375571 42.0810289,40.9264693 L42.0810289,1.89282329 C42.0810289,1.44372161 42.0603634,1.2704906 41.7157707,0.848225013 C41.548802,0.758929198 41.375571,0.738263666 40.9264693,0.738263666 Z" stroke-linejoin="square" fill="#6FA1B8" fill-rule="evenodd"></path>
                        </g>
                    </g>
                    <g id="3" transform="translate(511.616720, 93.021222)">
                        <g id="btn-left-6">
                            <use fill="black" fill-opacity="1" filter="url(#filter-40)" xlink:href="#path-39"></use>
                            <use fill="#BDD6D2" fill-rule="evenodd" xlink:href="#path-39"></use>
                        </g>
                    </g>
                    <g id="3" transform="translate(465.106109, 93.021222)">
                        <g id="btn-left-6">
                            <use fill="black" fill-opacity="1" filter="url(#filter-42)" xlink:href="#path-41"></use>
                            <use fill="#BDD6D2" fill-rule="evenodd" xlink:href="#path-41"></use>
                        </g>
                    </g>
                    <g id="4l" transform="translate(418.595498, 93.021222)">
                        <g id="btn-left-6">
                            <use fill="black" fill-opacity="1" filter="url(#filter-44)" xlink:href="#path-43"></use>
                            <use fill="#B5DAEA" fill-rule="evenodd" xlink:href="#path-43"></use>
                        </g>
                    </g>
                    <g id="3" transform="translate(372.084887, 93.021222)">
                        <g id="btn-left-6">
                            <use fill="black" fill-opacity="1" filter="url(#filter-46)" xlink:href="#path-45"></use>
                            <use fill="#BDD6D2" fill-rule="evenodd" xlink:href="#path-45"></use>
                        </g>
                    </g>
                    <g id="3" transform="translate(511.616720, 46.510611)">
                        <g id="btn-left-6">
                            <use fill="black" fill-opacity="1" filter="url(#filter-48)" xlink:href="#path-47"></use>
                            <use fill="#BDD6D2" fill-rule="evenodd" xlink:href="#path-47"></use>
                        </g>
                    </g>
                    <g id="3" transform="translate(465.106109, 46.510611)">
                        <g id="btn-left-6">
                            <use fill="black" fill-opacity="1" filter="url(#filter-50)" xlink:href="#path-49"></use>
                            <use fill="#BDD6D2" fill-rule="evenodd" xlink:href="#path-49"></use>
                        </g>
                    </g>
                    <g id="4l" transform="translate(418.595498, 46.510611)">
                        <g id="btn-left-6">
                            <use fill="black" fill-opacity="1" filter="url(#filter-52)" xlink:href="#path-51"></use>
                            <use fill="#B5DAEA" fill-rule="evenodd" xlink:href="#path-51"></use>
                        </g>
                    </g>
                    <g id="3" transform="translate(372.084887, 46.510611)">
                        <g id="btn-left-6">
                            <use fill="black" fill-opacity="1" filter="url(#filter-54)" xlink:href="#path-53"></use>
                            <use fill="#BDD6D2" fill-rule="evenodd" xlink:href="#path-53"></use>
                        </g>
                    </g>
                    <g id="3" transform="translate(511.616720, -0.000000)">
                        <g id="btn-left-6">
                            <use fill="black" fill-opacity="1" filter="url(#filter-56)" xlink:href="#path-55"></use>
                            <use fill="#BDD6D2" fill-rule="evenodd" xlink:href="#path-55"></use>
                        </g>
                    </g>
                    <g id="3" transform="translate(465.106109, -0.000000)">
                        <g id="btn-left-6">
                            <use fill="black" fill-opacity="1" filter="url(#filter-58)" xlink:href="#path-57"></use>
                            <use fill="#BDD6D2" fill-rule="evenodd" xlink:href="#path-57"></use>
                        </g>
                    </g>
                    <g id="4l" transform="translate(418.595498, -0.000000)">
                        <g id="btn-left-6">
                            <use fill="black" fill-opacity="1" filter="url(#filter-60)" xlink:href="#path-59"></use>
                            <use fill="#B5DAEA" fill-rule="evenodd" xlink:href="#path-59"></use>
                        </g>
                    </g>
                    <g id="3" transform="translate(372.084887, -0.000000)">
                        <g id="btn-left-6">
                            <use fill="black" fill-opacity="1" filter="url(#filter-62)" xlink:href="#path-61"></use>
                            <use fill="#BDD6D2" fill-rule="evenodd" xlink:href="#path-61"></use>
                        </g>
                    </g>
                    <g id="3" transform="translate(139.531833, 139.531833)">
                        <g id="btn-left-6">
                            <use fill="black" fill-opacity="1" filter="url(#filter-64)" xlink:href="#path-63"></use>
                            <path stroke="#FF0000" stroke-width="1.47652733" d="M40.9264693,0.738263666 L1.89282329,0.738263666 C1.44372161,0.738263666 1.2704906,0.758929198 0.848225013,1.10352194 C0.758929198,1.2704906 0.738263666,1.44372161 0.738263666,1.89282329 L0.738263666,40.9264693 C0.738263666,41.375571 0.758929198,41.548802 1.10352194,41.9710676 C1.2704906,42.0603634 1.44372161,42.0810289 1.89282329,42.0810289 L40.9264693,42.0810289 C41.375571,42.0810289 41.548802,42.0603634 41.9710676,41.7157707 C42.0603634,41.548802 42.0810289,41.375571 42.0810289,40.9264693 L42.0810289,1.89282329 C42.0810289,1.44372161 42.0603634,1.2704906 41.7157707,0.848225013 C41.548802,0.758929198 41.375571,0.738263666 40.9264693,0.738263666 Z" stroke-linejoin="square" fill="#6FA1B8" fill-rule="evenodd"></path>
                        </g>
                    </g>
                    <g id="2" transform="translate(93.021222, 139.531833)">
                        <g id="btn-left-6">
                            <use fill="black" fill-opacity="1" filter="url(#filter-66)" xlink:href="#path-65"></use>
                            <path stroke="#FF0000" stroke-width="1.47652733" d="M40.9264693,0.738263666 L1.89282329,0.738263666 C1.44372161,0.738263666 1.2704906,0.758929198 0.848225013,1.10352194 C0.758929198,1.2704906 0.738263666,1.44372161 0.738263666,1.89282329 L0.738263666,40.9264693 C0.738263666,41.375571 0.758929198,41.548802 1.10352194,41.9710676 C1.2704906,42.0603634 1.44372161,42.0810289 1.89282329,42.0810289 L40.9264693,42.0810289 C41.375571,42.0810289 41.548802,42.0603634 41.9710676,41.7157707 C42.0603634,41.548802 42.0810289,41.375571 42.0810289,40.9264693 L42.0810289,1.89282329 C42.0810289,1.44372161 42.0603634,1.2704906 41.7157707,0.848225013 C41.548802,0.758929198 41.375571,0.738263666 40.9264693,0.738263666 Z" stroke-linejoin="square" fill="#B5DAEA" fill-rule="evenodd"></path>
                        </g>
                    </g>
                    <g id="1" transform="translate(46.510611, 139.531833)">
                        <g id="btn-left-6">
                            <use fill="black" fill-opacity="1" filter="url(#filter-68)" xlink:href="#path-67"></use>
                            <path stroke="#FF0000" stroke-width="1.47652733" d="M40.9264693,0.738263666 L1.89282329,0.738263666 C1.44372161,0.738263666 1.2704906,0.758929198 0.848225013,1.10352194 C0.758929198,1.2704906 0.738263666,1.44372161 0.738263666,1.89282329 L0.738263666,40.9264693 C0.738263666,41.375571 0.758929198,41.548802 1.10352194,41.9710676 C1.2704906,42.0603634 1.44372161,42.0810289 1.89282329,42.0810289 L40.9264693,42.0810289 C41.375571,42.0810289 41.548802,42.0603634 41.9710676,41.7157707 C42.0603634,41.548802 42.0810289,41.375571 42.0810289,40.9264693 L42.0810289,1.89282329 C42.0810289,1.44372161 42.0603634,1.2704906 41.7157707,0.848225013 C41.548802,0.758929198 41.375571,0.738263666 40.9264693,0.738263666 Z" stroke-linejoin="square" fill="#BDD6D2" fill-rule="evenodd"></path>
                        </g>
                    </g>
                    <g id="1" transform="translate(-0.000000, 139.531833)">
                        <g id="btn-left-6">
                            <use fill="black" fill-opacity="1" filter="url(#filter-70)" xlink:href="#path-69"></use>
                            <path stroke="#FF0000" stroke-width="1.47652733" d="M40.9264693,0.738263666 L1.89282329,0.738263666 C1.44372161,0.738263666 1.2704906,0.758929198 0.848225013,1.10352194 C0.758929198,1.2704906 0.738263666,1.44372161 0.738263666,1.89282329 L0.738263666,40.9264693 C0.738263666,41.375571 0.758929198,41.548802 1.10352194,41.9710676 C1.2704906,42.0603634 1.44372161,42.0810289 1.89282329,42.0810289 L40.9264693,42.0810289 C41.375571,42.0810289 41.548802,42.0603634 41.9710676,41.7157707 C42.0603634,41.548802 42.0810289,41.375571 42.0810289,40.9264693 L42.0810289,1.89282329 C42.0810289,1.44372161 42.0603634,1.2704906 41.7157707,0.848225013 C41.548802,0.758929198 41.375571,0.738263666 40.9264693,0.738263666 Z" stroke-linejoin="square" fill="#BDD6D2" fill-rule="evenodd"></path>
                        </g>
                    </g>
                    <g id="3" transform="translate(139.531833, 93.021222)">
                        <g id="btn-left-6">
                            <use fill="black" fill-opacity="1" filter="url(#filter-72)" xlink:href="#path-71"></use>
                            <use fill="#BDD6D2" fill-rule="evenodd" xlink:href="#path-71"></use>
                        </g>
                    </g>
                    <g id="4l" transform="translate(93.021222, 93.021222)">
                        <g id="btn-left-6">
                            <use fill="black" fill-opacity="1" filter="url(#filter-74)" xlink:href="#path-73"></use>
                            <use fill="#B5DAEA" fill-rule="evenodd" xlink:href="#path-73"></use>
                        </g>
                    </g>
                    <g id="3" transform="translate(46.510611, 93.021222)">
                        <g id="btn-left-6">
                            <use fill="black" fill-opacity="1" filter="url(#filter-76)" xlink:href="#path-75"></use>
                            <use fill="#BDD6D2" fill-rule="evenodd" xlink:href="#path-75"></use>
                        </g>
                    </g>
                    <g id="3" transform="translate(-0.000000, 93.021222)">
                        <g id="btn-left-6">
                            <use fill="black" fill-opacity="1" filter="url(#filter-78)" xlink:href="#path-77"></use>
                            <use fill="#BDD6D2" fill-rule="evenodd" xlink:href="#path-77"></use>
                        </g>
                    </g>
                    <g id="3" transform="translate(139.531833, 46.510611)">
                        <g id="btn-left-6">
                            <use fill="black" fill-opacity="1" filter="url(#filter-80)" xlink:href="#path-79"></use>
                            <use fill="#BDD6D2" fill-rule="evenodd" xlink:href="#path-79"></use>
                        </g>
                    </g>
                    <g id="4l" transform="translate(93.021222, 46.510611)">
                        <g id="btn-left-6">
                            <use fill="black" fill-opacity="1" filter="url(#filter-82)" xlink:href="#path-81"></use>
                            <use fill="#B5DAEA" fill-rule="evenodd" xlink:href="#path-81"></use>
                        </g>
                    </g>
                    <g id="3" transform="translate(46.510611, 46.510611)">
                        <g id="btn-left-6">
                            <use fill="black" fill-opacity="1" filter="url(#filter-84)" xlink:href="#path-83"></use>
                            <use fill="#BDD6D2" fill-rule="evenodd" xlink:href="#path-83"></use>
                        </g>
                    </g>
                    <g id="3" transform="translate(-0.000000, 46.510611)">
                        <g id="btn-left-6">
                            <use fill="black" fill-opacity="1" filter="url(#filter-86)" xlink:href="#path-85"></use>
                            <use fill="#BDD6D2" fill-rule="evenodd" xlink:href="#path-85"></use>
                        </g>
                    </g>
                    <g id="3" transform="translate(139.531833, -0.000000)">
                        <g id="btn-left-6">
                            <use fill="black" fill-opacity="1" filter="url(#filter-88)" xlink:href="#path-87"></use>
                            <use fill="#BDD6D2" fill-rule="evenodd" xlink:href="#path-87"></use>
                        </g>
                    </g>
                    <g id="4l" transform="translate(93.021222, -0.000000)">
                        <g id="btn-left-6">
                            <use fill="black" fill-opacity="1" filter="url(#filter-90)" xlink:href="#path-89"></use>
                            <use fill="#B5DAEA" fill-rule="evenodd" xlink:href="#path-89"></use>
                        </g>
                    </g>
                    <g id="3" transform="translate(46.510611, -0.000000)">
                        <g id="btn-left-6">
                            <use fill="black" fill-opacity="1" filter="url(#filter-92)" xlink:href="#path-91"></use>
                            <use fill="#BDD6D2" fill-rule="evenodd" xlink:href="#path-91"></use>
                        </g>
                    </g>
                    <g id="3" transform="translate(-0.000000, -0.000000)">
                        <g id="btn-left-6">
                            <use fill="black" fill-opacity="1" filter="url(#filter-94)" xlink:href="#path-93"></use>
                            <use fill="#BDD6D2" fill-rule="evenodd" xlink:href="#path-93"></use>
                        </g>
                    </g>
                    <text id="" font-family="AppleColorEmoji, Apple Color Emoji" font-size="22.14791" font-weight="normal" fill="#000000">
                        <tspan x="475.441801" y="171.390997"></tspan>
                    </text>
                    <text id="" font-family="AppleColorEmoji, Apple Color Emoji" font-size="22.14791" font-weight="normal" fill="#000000">
                        <tspan x="521.952412" y="171.390997"></tspan>
                    </text>
                    <text id="" font-family="AppleColorEmoji, Apple Color Emoji" font-size="22.14791" font-weight="normal" fill="#000000">
                        <tspan x="382.420579" y="171.390997"></tspan>
                    </text>
                    <text id="-copy-2" font-family="AppleColorEmoji, Apple Color Emoji" font-size="22.14791" font-weight="normal" fill="#000000">
                        <tspan x="428.93119" y="171.390997"></tspan>
                    </text>
                    <text id="-copy" font-family="AppleColorEmoji, Apple Color Emoji" font-size="22.14791" font-weight="normal" fill="#000000">
                        <tspan x="103.356913" y="171.390997"></tspan>
                    </text>
                    <text id="-copy-2" font-family="AppleColorEmoji, Apple Color Emoji" font-size="22.14791" font-weight="normal" fill="#000000">
                        <tspan x="149.867524" y="171.390997"></tspan>
                    </text>
                    <text id="-copy" font-family="AppleColorEmoji, Apple Color Emoji" font-size="22.14791" font-weight="normal" fill="#000000">
                        <tspan x="10.3356913" y="171.390997"></tspan>
                    </text>
                    <text id="-copy-3" font-family="AppleColorEmoji, Apple Color Emoji" font-size="22.14791" font-weight="normal" fill="#000000">
                        <tspan x="56.8463023" y="171.390997"></tspan>
                    </text>
                </g>
            </g>
        </g>
    </g>
</svg>