<?xml version="1.0" encoding="UTF-8"?>
<svg width="1061px" height="468px" viewBox="0 0 1061 468" version="1.1" xmlns="http://www.w3.org/2000/svg" xmlns:xlink="http://www.w3.org/1999/xlink">
    <title>Split</title>
    <defs>
        <path d="M2.5638852,-1.03584031e-16 L55.4361148,1.03584031e-16 C56.3276335,-6.01853049e-17 56.6509198,0.0928256111 56.9768457,0.267132704 C57.3027716,0.441439796 57.5585602,0.697228371 57.7328673,1.0231543 C57.9071744,1.34908022 58,1.67236646 58,2.5638852 L58,56.4361148 C58,57.3276335 57.9071744,57.6509198 57.7328673,57.9768457 C57.5585602,58.3027716 57.3027716,58.5585602 56.9768457,58.7328673 C56.6509198,58.9071744 56.3276335,59 55.4361148,59 L2.5638852,59 C1.67236646,59 1.34908022,58.9071744 1.0231543,58.7328673 C0.697228371,58.5585602 0.441439796,58.3027716 0.267132704,57.9768457 C0.0928256111,57.6509198 4.01235366e-17,57.3276335 -6.90560205e-17,56.4361148 L6.90560205e-17,2.5638852 C-4.01235366e-17,1.67236646 0.0928256111,1.34908022 0.267132704,1.0231543 C0.441439796,0.697228371 0.697228371,0.441439796 1.0231543,0.267132704 C1.34908022,0.0928256111 1.67236646,6.01853049e-17 2.5638852,-1.03584031e-16 Z" id="path-1"></path>
        <filter x="-0.9%" y="-0.8%" width="101.7%" height="103.4%" filterUnits="objectBoundingBox" id="filter-2">
            <feOffset dx="0" dy="1" in="SourceAlpha" result="shadowOffsetOuter1"></feOffset>
            <feColorMatrix values="0 0 0 0 0.433395607   0 0 0 0 0.433395607   0 0 0 0 0.433395607  0 0 0 0.5 0" type="matrix" in="shadowOffsetOuter1"></feColorMatrix>
        </filter>
        <path d="M2.5638852,-1.03584031e-16 L55.4361148,1.03584031e-16 C56.3276335,-6.01853049e-17 56.6509198,0.0928256111 56.9768457,0.267132704 C57.3027716,0.441439796 57.5585602,0.697228371 57.7328673,1.0231543 C57.9071744,1.34908022 58,1.67236646 58,2.5638852 L58,56.4361148 C58,57.3276335 57.9071744,57.6509198 57.7328673,57.9768457 C57.5585602,58.3027716 57.3027716,58.5585602 56.9768457,58.7328673 C56.6509198,58.9071744 56.3276335,59 55.4361148,59 L2.5638852,59 C1.67236646,59 1.34908022,58.9071744 1.0231543,58.7328673 C0.697228371,58.5585602 0.441439796,58.3027716 0.267132704,57.9768457 C0.0928256111,57.6509198 4.01235366e-17,57.3276335 -6.90560205e-17,56.4361148 L6.90560205e-17,2.5638852 C-4.01235366e-17,1.67236646 0.0928256111,1.34908022 0.267132704,1.0231543 C0.441439796,0.697228371 0.697228371,0.441439796 1.0231543,0.267132704 C1.34908022,0.0928256111 1.67236646,6.01853049e-17 2.5638852,-1.03584031e-16 Z" id="path-3"></path>
        <filter x="-0.9%" y="-0.8%" width="101.7%" height="103.4%" filterUnits="objectBoundingBox" id="filter-4">
            <feOffset dx="0" dy="1" in="SourceAlpha" result="shadowOffsetOuter1"></feOffset>
            <feColorMatrix values="0 0 0 0 0.433395607   0 0 0 0 0.433395607   0 0 0 0 0.433395607  0 0 0 0.5 0" type="matrix" in="shadowOffsetOuter1"></feColorMatrix>
        </filter>
        <path d="M2.5638852,-1.03584031e-16 L55.4361148,1.03584031e-16 C56.3276335,-6.01853049e-17 56.6509198,0.0928256111 56.9768457,0.267132704 C57.3027716,0.441439796 57.5585602,0.697228371 57.7328673,1.0231543 C57.9071744,1.34908022 58,1.67236646 58,2.5638852 L58,56.4361148 C58,57.3276335 57.9071744,57.6509198 57.7328673,57.9768457 C57.5585602,58.3027716 57.3027716,58.5585602 56.9768457,58.7328673 C56.6509198,58.9071744 56.3276335,59 55.4361148,59 L2.5638852,59 C1.67236646,59 1.34908022,58.9071744 1.0231543,58.7328673 C0.697228371,58.5585602 0.441439796,58.3027716 0.267132704,57.9768457 C0.0928256111,57.6509198 4.01235366e-17,57.3276335 -6.90560205e-17,56.4361148 L6.90560205e-17,2.5638852 C-4.01235366e-17,1.67236646 0.0928256111,1.34908022 0.267132704,1.0231543 C0.441439796,0.697228371 0.697228371,0.441439796 1.0231543,0.267132704 C1.34908022,0.0928256111 1.67236646,6.01853049e-17 2.5638852,-1.03584031e-16 Z" id="path-5"></path>
        <filter x="-0.9%" y="-0.8%" width="101.7%" height="103.4%" filterUnits="objectBoundingBox" id="filter-6">
            <feOffset dx="0" dy="1" in="SourceAlpha" result="shadowOffsetOuter1"></feOffset>
            <feColorMatrix values="0 0 0 0 0.433395607   0 0 0 0 0.433395607   0 0 0 0 0.433395607  0 0 0 0.5 0" type="matrix" in="shadowOffsetOuter1"></feColorMatrix>
        </filter>
        <path d="M2.5638852,-1.03584031e-16 L55.4361148,1.03584031e-16 C56.3276335,-6.01853049e-17 56.6509198,0.0928256111 56.9768457,0.267132704 C57.3027716,0.441439796 57.5585602,0.697228371 57.7328673,1.0231543 C57.9071744,1.34908022 58,1.67236646 58,2.5638852 L58,56.4361148 C58,57.3276335 57.9071744,57.6509198 57.7328673,57.9768457 C57.5585602,58.3027716 57.3027716,58.5585602 56.9768457,58.7328673 C56.6509198,58.9071744 56.3276335,59 55.4361148,59 L2.5638852,59 C1.67236646,59 1.34908022,58.9071744 1.0231543,58.7328673 C0.697228371,58.5585602 0.441439796,58.3027716 0.267132704,57.9768457 C0.0928256111,57.6509198 4.01235366e-17,57.3276335 -6.90560205e-17,56.4361148 L6.90560205e-17,2.5638852 C-4.01235366e-17,1.67236646 0.0928256111,1.34908022 0.267132704,1.0231543 C0.441439796,0.697228371 0.697228371,0.441439796 1.0231543,0.267132704 C1.34908022,0.0928256111 1.67236646,6.01853049e-17 2.5638852,-1.03584031e-16 Z" id="path-7"></path>
        <filter x="-0.9%" y="-0.8%" width="101.7%" height="103.4%" filterUnits="objectBoundingBox" id="filter-8">
            <feOffset dx="0" dy="1" in="SourceAlpha" result="shadowOffsetOuter1"></feOffset>
            <feColorMatrix values="0 0 0 0 0.433395607   0 0 0 0 0.433395607   0 0 0 0 0.433395607  0 0 0 0.5 0" type="matrix" in="shadowOffsetOuter1"></feColorMatrix>
        </filter>
        <path d="M2.5638852,-1.03584031e-16 L55.4361148,1.03584031e-16 C56.3276335,-6.01853049e-17 56.6509198,0.0928256111 56.9768457,0.267132704 C57.3027716,0.441439796 57.5585602,0.697228371 57.7328673,1.0231543 C57.9071744,1.34908022 58,1.67236646 58,2.5638852 L58,56.4361148 C58,57.3276335 57.9071744,57.6509198 57.7328673,57.9768457 C57.5585602,58.3027716 57.3027716,58.5585602 56.9768457,58.7328673 C56.6509198,58.9071744 56.3276335,59 55.4361148,59 L2.5638852,59 C1.67236646,59 1.34908022,58.9071744 1.0231543,58.7328673 C0.697228371,58.5585602 0.441439796,58.3027716 0.267132704,57.9768457 C0.0928256111,57.6509198 4.01235366e-17,57.3276335 -6.90560205e-17,56.4361148 L6.90560205e-17,2.5638852 C-4.01235366e-17,1.67236646 0.0928256111,1.34908022 0.267132704,1.0231543 C0.441439796,0.697228371 0.697228371,0.441439796 1.0231543,0.267132704 C1.34908022,0.0928256111 1.67236646,6.01853049e-17 2.5638852,-1.03584031e-16 Z" id="path-9"></path>
        <filter x="-0.9%" y="-0.8%" width="101.7%" height="103.4%" filterUnits="objectBoundingBox" id="filter-10">
            <feOffset dx="0" dy="1" in="SourceAlpha" result="shadowOffsetOuter1"></feOffset>
            <feColorMatrix values="0 0 0 0 0.433395607   0 0 0 0 0.433395607   0 0 0 0 0.433395607  0 0 0 0.5 0" type="matrix" in="shadowOffsetOuter1"></feColorMatrix>
        </filter>
        <path d="M2.5638852,-1.03584031e-16 L55.4361148,1.03584031e-16 C56.3276335,-6.01853049e-17 56.6509198,0.0928256111 56.9768457,0.267132704 C57.3027716,0.441439796 57.5585602,0.697228371 57.7328673,1.0231543 C57.9071744,1.34908022 58,1.67236646 58,2.5638852 L58,56.4361148 C58,57.3276335 57.9071744,57.6509198 57.7328673,57.9768457 C57.5585602,58.3027716 57.3027716,58.5585602 56.9768457,58.7328673 C56.6509198,58.9071744 56.3276335,59 55.4361148,59 L2.5638852,59 C1.67236646,59 1.34908022,58.9071744 1.0231543,58.7328673 C0.697228371,58.5585602 0.441439796,58.3027716 0.267132704,57.9768457 C0.0928256111,57.6509198 4.01235366e-17,57.3276335 -6.90560205e-17,56.4361148 L6.90560205e-17,2.5638852 C-4.01235366e-17,1.67236646 0.0928256111,1.34908022 0.267132704,1.0231543 C0.441439796,0.697228371 0.697228371,0.441439796 1.0231543,0.267132704 C1.34908022,0.0928256111 1.67236646,6.01853049e-17 2.5638852,-1.03584031e-16 Z" id="path-11"></path>
        <filter x="-0.9%" y="-0.8%" width="101.7%" height="103.4%" filterUnits="objectBoundingBox" id="filter-12">
            <feOffset dx="0" dy="1" in="SourceAlpha" result="shadowOffsetOuter1"></feOffset>
            <feColorMatrix values="0 0 0 0 0.433395607   0 0 0 0 0.433395607   0 0 0 0 0.433395607  0 0 0 0.5 0" type="matrix" in="shadowOffsetOuter1"></feColorMatrix>
        </filter>
        <path d="M2.5638852,-1.03584031e-16 L55.4361148,1.03584031e-16 C56.3276335,-6.01853049e-17 56.6509198,0.0928256111 56.9768457,0.267132704 C57.3027716,0.441439796 57.5585602,0.697228371 57.7328673,1.0231543 C57.9071744,1.34908022 58,1.67236646 58,2.5638852 L58,56.4361148 C58,57.3276335 57.9071744,57.6509198 57.7328673,57.9768457 C57.5585602,58.3027716 57.3027716,58.5585602 56.9768457,58.7328673 C56.6509198,58.9071744 56.3276335,59 55.4361148,59 L2.5638852,59 C1.67236646,59 1.34908022,58.9071744 1.0231543,58.7328673 C0.697228371,58.5585602 0.441439796,58.3027716 0.267132704,57.9768457 C0.0928256111,57.6509198 4.01235366e-17,57.3276335 -6.90560205e-17,56.4361148 L6.90560205e-17,2.5638852 C-4.01235366e-17,1.67236646 0.0928256111,1.34908022 0.267132704,1.0231543 C0.441439796,0.697228371 0.697228371,0.441439796 1.0231543,0.267132704 C1.34908022,0.0928256111 1.67236646,6.01853049e-17 2.5638852,-1.03584031e-16 Z" id="path-13"></path>
        <filter x="-0.9%" y="-0.8%" width="101.7%" height="103.4%" filterUnits="objectBoundingBox" id="filter-14">
            <feOffset dx="0" dy="1" in="SourceAlpha" result="shadowOffsetOuter1"></feOffset>
            <feColorMatrix values="0 0 0 0 0.433395607   0 0 0 0 0.433395607   0 0 0 0 0.433395607  0 0 0 0.5 0" type="matrix" in="shadowOffsetOuter1"></feColorMatrix>
        </filter>
        <path d="M2.5638852,-1.03584031e-16 L55.4361148,1.03584031e-16 C56.3276335,-6.01853049e-17 56.6509198,0.0928256111 56.9768457,0.267132704 C57.3027716,0.441439796 57.5585602,0.697228371 57.7328673,1.0231543 C57.9071744,1.34908022 58,1.67236646 58,2.5638852 L58,56.4361148 C58,57.3276335 57.9071744,57.6509198 57.7328673,57.9768457 C57.5585602,58.3027716 57.3027716,58.5585602 56.9768457,58.7328673 C56.6509198,58.9071744 56.3276335,59 55.4361148,59 L2.5638852,59 C1.67236646,59 1.34908022,58.9071744 1.0231543,58.7328673 C0.697228371,58.5585602 0.441439796,58.3027716 0.267132704,57.9768457 C0.0928256111,57.6509198 4.01235366e-17,57.3276335 -6.90560205e-17,56.4361148 L6.90560205e-17,2.5638852 C-4.01235366e-17,1.67236646 0.0928256111,1.34908022 0.267132704,1.0231543 C0.441439796,0.697228371 0.697228371,0.441439796 1.0231543,0.267132704 C1.34908022,0.0928256111 1.67236646,6.01853049e-17 2.5638852,-1.03584031e-16 Z" id="path-15"></path>
        <filter x="-0.9%" y="-0.8%" width="101.7%" height="103.4%" filterUnits="objectBoundingBox" id="filter-16">
            <feOffset dx="0" dy="1" in="SourceAlpha" result="shadowOffsetOuter1"></feOffset>
            <feColorMatrix values="0 0 0 0 0.433395607   0 0 0 0 0.433395607   0 0 0 0 0.433395607  0 0 0 0.5 0" type="matrix" in="shadowOffsetOuter1"></feColorMatrix>
        </filter>
        <path d="M2.5638852,-1.03584031e-16 L55.4361148,1.03584031e-16 C56.3276335,-6.01853049e-17 56.6509198,0.0928256111 56.9768457,0.267132704 C57.3027716,0.441439796 57.5585602,0.697228371 57.7328673,1.0231543 C57.9071744,1.34908022 58,1.67236646 58,2.5638852 L58,56.4361148 C58,57.3276335 57.9071744,57.6509198 57.7328673,57.9768457 C57.5585602,58.3027716 57.3027716,58.5585602 56.9768457,58.7328673 C56.6509198,58.9071744 56.3276335,59 55.4361148,59 L2.5638852,59 C1.67236646,59 1.34908022,58.9071744 1.0231543,58.7328673 C0.697228371,58.5585602 0.441439796,58.3027716 0.267132704,57.9768457 C0.0928256111,57.6509198 4.01235366e-17,57.3276335 -6.90560205e-17,56.4361148 L6.90560205e-17,2.5638852 C-4.01235366e-17,1.67236646 0.0928256111,1.34908022 0.267132704,1.0231543 C0.441439796,0.697228371 0.697228371,0.441439796 1.0231543,0.267132704 C1.34908022,0.0928256111 1.67236646,6.01853049e-17 2.5638852,-1.03584031e-16 Z" id="path-17"></path>
        <filter x="-0.9%" y="-0.8%" width="101.7%" height="103.4%" filterUnits="objectBoundingBox" id="filter-18">
            <feOffset dx="0" dy="1" in="SourceAlpha" result="shadowOffsetOuter1"></feOffset>
            <feColorMatrix values="0 0 0 0 0.433395607   0 0 0 0 0.433395607   0 0 0 0 0.433395607  0 0 0 0.5 0" type="matrix" in="shadowOffsetOuter1"></feColorMatrix>
        </filter>
        <path d="M2.5638852,-1.03584031e-16 L55.4361148,1.03584031e-16 C56.3276335,-6.01853049e-17 56.6509198,0.0928256111 56.9768457,0.267132704 C57.3027716,0.441439796 57.5585602,0.697228371 57.7328673,1.0231543 C57.9071744,1.34908022 58,1.67236646 58,2.5638852 L58,56.4361148 C58,57.3276335 57.9071744,57.6509198 57.7328673,57.9768457 C57.5585602,58.3027716 57.3027716,58.5585602 56.9768457,58.7328673 C56.6509198,58.9071744 56.3276335,59 55.4361148,59 L2.5638852,59 C1.67236646,59 1.34908022,58.9071744 1.0231543,58.7328673 C0.697228371,58.5585602 0.441439796,58.3027716 0.267132704,57.9768457 C0.0928256111,57.6509198 4.01235366e-17,57.3276335 -6.90560205e-17,56.4361148 L6.90560205e-17,2.5638852 C-4.01235366e-17,1.67236646 0.0928256111,1.34908022 0.267132704,1.0231543 C0.441439796,0.697228371 0.697228371,0.441439796 1.0231543,0.267132704 C1.34908022,0.0928256111 1.67236646,6.01853049e-17 2.5638852,-1.03584031e-16 Z" id="path-19"></path>
        <filter x="-0.9%" y="-0.8%" width="101.7%" height="103.4%" filterUnits="objectBoundingBox" id="filter-20">
            <feOffset dx="0" dy="1" in="SourceAlpha" result="shadowOffsetOuter1"></feOffset>
            <feColorMatrix values="0 0 0 0 0.433395607   0 0 0 0 0.433395607   0 0 0 0 0.433395607  0 0 0 0.5 0" type="matrix" in="shadowOffsetOuter1"></feColorMatrix>
        </filter>
        <path d="M2.5638852,-1.03584031e-16 L55.4361148,1.03584031e-16 C56.3276335,-6.01853049e-17 56.6509198,0.0928256111 56.9768457,0.267132704 C57.3027716,0.441439796 57.5585602,0.697228371 57.7328673,1.0231543 C57.9071744,1.34908022 58,1.67236646 58,2.5638852 L58,56.4361148 C58,57.3276335 57.9071744,57.6509198 57.7328673,57.9768457 C57.5585602,58.3027716 57.3027716,58.5585602 56.9768457,58.7328673 C56.6509198,58.9071744 56.3276335,59 55.4361148,59 L2.5638852,59 C1.67236646,59 1.34908022,58.9071744 1.0231543,58.7328673 C0.697228371,58.5585602 0.441439796,58.3027716 0.267132704,57.9768457 C0.0928256111,57.6509198 4.01235366e-17,57.3276335 -6.90560205e-17,56.4361148 L6.90560205e-17,2.5638852 C-4.01235366e-17,1.67236646 0.0928256111,1.34908022 0.267132704,1.0231543 C0.441439796,0.697228371 0.697228371,0.441439796 1.0231543,0.267132704 C1.34908022,0.0928256111 1.67236646,6.01853049e-17 2.5638852,-1.03584031e-16 Z" id="path-21"></path>
        <filter x="-0.9%" y="-0.8%" width="101.7%" height="103.4%" filterUnits="objectBoundingBox" id="filter-22">
            <feOffset dx="0" dy="1" in="SourceAlpha" result="shadowOffsetOuter1"></feOffset>
            <feColorMatrix values="0 0 0 0 0.433395607   0 0 0 0 0.433395607   0 0 0 0 0.433395607  0 0 0 0.5 0" type="matrix" in="shadowOffsetOuter1"></feColorMatrix>
        </filter>
        <path d="M2.5638852,-1.03584031e-16 L55.4361148,1.03584031e-16 C56.3276335,-6.01853049e-17 56.6509198,0.0928256111 56.9768457,0.267132704 C57.3027716,0.441439796 57.5585602,0.697228371 57.7328673,1.0231543 C57.9071744,1.34908022 58,1.67236646 58,2.5638852 L58,56.4361148 C58,57.3276335 57.9071744,57.6509198 57.7328673,57.9768457 C57.5585602,58.3027716 57.3027716,58.5585602 56.9768457,58.7328673 C56.6509198,58.9071744 56.3276335,59 55.4361148,59 L2.5638852,59 C1.67236646,59 1.34908022,58.9071744 1.0231543,58.7328673 C0.697228371,58.5585602 0.441439796,58.3027716 0.267132704,57.9768457 C0.0928256111,57.6509198 4.01235366e-17,57.3276335 -6.90560205e-17,56.4361148 L6.90560205e-17,2.5638852 C-4.01235366e-17,1.67236646 0.0928256111,1.34908022 0.267132704,1.0231543 C0.441439796,0.697228371 0.697228371,0.441439796 1.0231543,0.267132704 C1.34908022,0.0928256111 1.67236646,6.01853049e-17 2.5638852,-1.03584031e-16 Z" id="path-23"></path>
        <filter x="-0.9%" y="-0.8%" width="101.7%" height="103.4%" filterUnits="objectBoundingBox" id="filter-24">
            <feOffset dx="0" dy="1" in="SourceAlpha" result="shadowOffsetOuter1"></feOffset>
            <feColorMatrix values="0 0 0 0 0.433395607   0 0 0 0 0.433395607   0 0 0 0 0.433395607  0 0 0 0.5 0" type="matrix" in="shadowOffsetOuter1"></feColorMatrix>
        </filter>
        <path d="M2.5638852,-1.03584031e-16 L55.4361148,1.03584031e-16 C56.3276335,-6.01853049e-17 56.6509198,0.0928256111 56.9768457,0.267132704 C57.3027716,0.441439796 57.5585602,0.697228371 57.7328673,1.0231543 C57.9071744,1.34908022 58,1.67236646 58,2.5638852 L58,56.4361148 C58,57.3276335 57.9071744,57.6509198 57.7328673,57.9768457 C57.5585602,58.3027716 57.3027716,58.5585602 56.9768457,58.7328673 C56.6509198,58.9071744 56.3276335,59 55.4361148,59 L2.5638852,59 C1.67236646,59 1.34908022,58.9071744 1.0231543,58.7328673 C0.697228371,58.5585602 0.441439796,58.3027716 0.267132704,57.9768457 C0.0928256111,57.6509198 4.01235366e-17,57.3276335 -6.90560205e-17,56.4361148 L6.90560205e-17,2.5638852 C-4.01235366e-17,1.67236646 0.0928256111,1.34908022 0.267132704,1.0231543 C0.441439796,0.697228371 0.697228371,0.441439796 1.0231543,0.267132704 C1.34908022,0.0928256111 1.67236646,6.01853049e-17 2.5638852,-1.03584031e-16 Z" id="path-25"></path>
        <filter x="-0.9%" y="-0.8%" width="101.7%" height="103.4%" filterUnits="objectBoundingBox" id="filter-26">
            <feOffset dx="0" dy="1" in="SourceAlpha" result="shadowOffsetOuter1"></feOffset>
            <feColorMatrix values="0 0 0 0 0.433395607   0 0 0 0 0.433395607   0 0 0 0 0.433395607  0 0 0 0.5 0" type="matrix" in="shadowOffsetOuter1"></feColorMatrix>
        </filter>
        <path d="M2.5638852,-1.03584031e-16 L55.4361148,1.03584031e-16 C56.3276335,-6.01853049e-17 56.6509198,0.0928256111 56.9768457,0.267132704 C57.3027716,0.441439796 57.5585602,0.697228371 57.7328673,1.0231543 C57.9071744,1.34908022 58,1.67236646 58,2.5638852 L58,56.4361148 C58,57.3276335 57.9071744,57.6509198 57.7328673,57.9768457 C57.5585602,58.3027716 57.3027716,58.5585602 56.9768457,58.7328673 C56.6509198,58.9071744 56.3276335,59 55.4361148,59 L2.5638852,59 C1.67236646,59 1.34908022,58.9071744 1.0231543,58.7328673 C0.697228371,58.5585602 0.441439796,58.3027716 0.267132704,57.9768457 C0.0928256111,57.6509198 4.01235366e-17,57.3276335 -6.90560205e-17,56.4361148 L6.90560205e-17,2.5638852 C-4.01235366e-17,1.67236646 0.0928256111,1.34908022 0.267132704,1.0231543 C0.441439796,0.697228371 0.697228371,0.441439796 1.0231543,0.267132704 C1.34908022,0.0928256111 1.67236646,6.01853049e-17 2.5638852,-1.03584031e-16 Z" id="path-27"></path>
        <filter x="-0.9%" y="-0.8%" width="101.7%" height="103.4%" filterUnits="objectBoundingBox" id="filter-28">
            <feOffset dx="0" dy="1" in="SourceAlpha" result="shadowOffsetOuter1"></feOffset>
            <feColorMatrix values="0 0 0 0 0.433395607   0 0 0 0 0.433395607   0 0 0 0 0.433395607  0 0 0 0.5 0" type="matrix" in="shadowOffsetOuter1"></feColorMatrix>
        </filter>
        <path d="M2.5638852,-1.03584031e-16 L55.4361148,1.03584031e-16 C56.3276335,-6.01853049e-17 56.6509198,0.0928256111 56.9768457,0.267132704 C57.3027716,0.441439796 57.5585602,0.697228371 57.7328673,1.0231543 C57.9071744,1.34908022 58,1.67236646 58,2.5638852 L58,56.4361148 C58,57.3276335 57.9071744,57.6509198 57.7328673,57.9768457 C57.5585602,58.3027716 57.3027716,58.5585602 56.9768457,58.7328673 C56.6509198,58.9071744 56.3276335,59 55.4361148,59 L2.5638852,59 C1.67236646,59 1.34908022,58.9071744 1.0231543,58.7328673 C0.697228371,58.5585602 0.441439796,58.3027716 0.267132704,57.9768457 C0.0928256111,57.6509198 4.01235366e-17,57.3276335 -6.90560205e-17,56.4361148 L6.90560205e-17,2.5638852 C-4.01235366e-17,1.67236646 0.0928256111,1.34908022 0.267132704,1.0231543 C0.441439796,0.697228371 0.697228371,0.441439796 1.0231543,0.267132704 C1.34908022,0.0928256111 1.67236646,6.01853049e-17 2.5638852,-1.03584031e-16 Z" id="path-29"></path>
        <filter x="-0.9%" y="-0.8%" width="101.7%" height="103.4%" filterUnits="objectBoundingBox" id="filter-30">
            <feOffset dx="0" dy="1" in="SourceAlpha" result="shadowOffsetOuter1"></feOffset>
            <feColorMatrix values="0 0 0 0 0.433395607   0 0 0 0 0.433395607   0 0 0 0 0.433395607  0 0 0 0.5 0" type="matrix" in="shadowOffsetOuter1"></feColorMatrix>
        </filter>
        <path d="M2.5638852,-1.03584031e-16 L55.4361148,1.03584031e-16 C56.3276335,-6.01853049e-17 56.6509198,0.0928256111 56.9768457,0.267132704 C57.3027716,0.441439796 57.5585602,0.697228371 57.7328673,1.0231543 C57.9071744,1.34908022 58,1.67236646 58,2.5638852 L58,56.4361148 C58,57.3276335 57.9071744,57.6509198 57.7328673,57.9768457 C57.5585602,58.3027716 57.3027716,58.5585602 56.9768457,58.7328673 C56.6509198,58.9071744 56.3276335,59 55.4361148,59 L2.5638852,59 C1.67236646,59 1.34908022,58.9071744 1.0231543,58.7328673 C0.697228371,58.5585602 0.441439796,58.3027716 0.267132704,57.9768457 C0.0928256111,57.6509198 4.01235366e-17,57.3276335 -6.90560205e-17,56.4361148 L6.90560205e-17,2.5638852 C-4.01235366e-17,1.67236646 0.0928256111,1.34908022 0.267132704,1.0231543 C0.441439796,0.697228371 0.697228371,0.441439796 1.0231543,0.267132704 C1.34908022,0.0928256111 1.67236646,6.01853049e-17 2.5638852,-1.03584031e-16 Z" id="path-31"></path>
        <filter x="-0.9%" y="-0.8%" width="101.7%" height="103.4%" filterUnits="objectBoundingBox" id="filter-32">
            <feOffset dx="0" dy="1" in="SourceAlpha" result="shadowOffsetOuter1"></feOffset>
            <feColorMatrix values="0 0 0 0 0.433395607   0 0 0 0 0.433395607   0 0 0 0 0.433395607  0 0 0 0.5 0" type="matrix" in="shadowOffsetOuter1"></feColorMatrix>
        </filter>
        <path d="M2.5638852,-1.03584031e-16 L55.4361148,1.03584031e-16 C56.3276335,-6.01853049e-17 56.6509198,0.0928256111 56.9768457,0.267132704 C57.3027716,0.441439796 57.5585602,0.697228371 57.7328673,1.0231543 C57.9071744,1.34908022 58,1.67236646 58,2.5638852 L58,56.4361148 C58,57.3276335 57.9071744,57.6509198 57.7328673,57.9768457 C57.5585602,58.3027716 57.3027716,58.5585602 56.9768457,58.7328673 C56.6509198,58.9071744 56.3276335,59 55.4361148,59 L2.5638852,59 C1.67236646,59 1.34908022,58.9071744 1.0231543,58.7328673 C0.697228371,58.5585602 0.441439796,58.3027716 0.267132704,57.9768457 C0.0928256111,57.6509198 4.01235366e-17,57.3276335 -6.90560205e-17,56.4361148 L6.90560205e-17,2.5638852 C-4.01235366e-17,1.67236646 0.0928256111,1.34908022 0.267132704,1.0231543 C0.441439796,0.697228371 0.697228371,0.441439796 1.0231543,0.267132704 C1.34908022,0.0928256111 1.67236646,6.01853049e-17 2.5638852,-1.03584031e-16 Z" id="path-33"></path>
        <filter x="-0.9%" y="-0.8%" width="101.7%" height="103.4%" filterUnits="objectBoundingBox" id="filter-34">
            <feOffset dx="0" dy="1" in="SourceAlpha" result="shadowOffsetOuter1"></feOffset>
            <feColorMatrix values="0 0 0 0 0.433395607   0 0 0 0 0.433395607   0 0 0 0 0.433395607  0 0 0 0.5 0" type="matrix" in="shadowOffsetOuter1"></feColorMatrix>
        </filter>
        <path d="M2.5638852,-1.03584031e-16 L55.4361148,1.03584031e-16 C56.3276335,-6.01853049e-17 56.6509198,0.0928256111 56.9768457,0.267132704 C57.3027716,0.441439796 57.5585602,0.697228371 57.7328673,1.0231543 C57.9071744,1.34908022 58,1.67236646 58,2.5638852 L58,56.4361148 C58,57.3276335 57.9071744,57.6509198 57.7328673,57.9768457 C57.5585602,58.3027716 57.3027716,58.5585602 56.9768457,58.7328673 C56.6509198,58.9071744 56.3276335,59 55.4361148,59 L2.5638852,59 C1.67236646,59 1.34908022,58.9071744 1.0231543,58.7328673 C0.697228371,58.5585602 0.441439796,58.3027716 0.267132704,57.9768457 C0.0928256111,57.6509198 4.01235366e-17,57.3276335 -6.90560205e-17,56.4361148 L6.90560205e-17,2.5638852 C-4.01235366e-17,1.67236646 0.0928256111,1.34908022 0.267132704,1.0231543 C0.441439796,0.697228371 0.697228371,0.441439796 1.0231543,0.267132704 C1.34908022,0.0928256111 1.67236646,6.01853049e-17 2.5638852,-1.03584031e-16 Z" id="path-35"></path>
        <filter x="-0.9%" y="-0.8%" width="101.7%" height="103.4%" filterUnits="objectBoundingBox" id="filter-36">
            <feOffset dx="0" dy="1" in="SourceAlpha" result="shadowOffsetOuter1"></feOffset>
            <feColorMatrix values="0 0 0 0 0.433395607   0 0 0 0 0.433395607   0 0 0 0 0.433395607  0 0 0 0.5 0" type="matrix" in="shadowOffsetOuter1"></feColorMatrix>
        </filter>
        <path d="M2.5638852,-1.03584031e-16 L55.4361148,1.03584031e-16 C56.3276335,-6.01853049e-17 56.6509198,0.0928256111 56.9768457,0.267132704 C57.3027716,0.441439796 57.5585602,0.697228371 57.7328673,1.0231543 C57.9071744,1.34908022 58,1.67236646 58,2.5638852 L58,56.4361148 C58,57.3276335 57.9071744,57.6509198 57.7328673,57.9768457 C57.5585602,58.3027716 57.3027716,58.5585602 56.9768457,58.7328673 C56.6509198,58.9071744 56.3276335,59 55.4361148,59 L2.5638852,59 C1.67236646,59 1.34908022,58.9071744 1.0231543,58.7328673 C0.697228371,58.5585602 0.441439796,58.3027716 0.267132704,57.9768457 C0.0928256111,57.6509198 4.01235366e-17,57.3276335 -6.90560205e-17,56.4361148 L6.90560205e-17,2.5638852 C-4.01235366e-17,1.67236646 0.0928256111,1.34908022 0.267132704,1.0231543 C0.441439796,0.697228371 0.697228371,0.441439796 1.0231543,0.267132704 C1.34908022,0.0928256111 1.67236646,6.01853049e-17 2.5638852,-1.03584031e-16 Z" id="path-37"></path>
        <filter x="-0.9%" y="-0.8%" width="101.7%" height="103.4%" filterUnits="objectBoundingBox" id="filter-38">
            <feOffset dx="0" dy="1" in="SourceAlpha" result="shadowOffsetOuter1"></feOffset>
            <feColorMatrix values="0 0 0 0 0.433395607   0 0 0 0 0.433395607   0 0 0 0 0.433395607  0 0 0 0.5 0" type="matrix" in="shadowOffsetOuter1"></feColorMatrix>
        </filter>
        <path d="M2.5638852,-1.03584031e-16 L55.4361148,1.03584031e-16 C56.3276335,-6.01853049e-17 56.6509198,0.0928256111 56.9768457,0.267132704 C57.3027716,0.441439796 57.5585602,0.697228371 57.7328673,1.0231543 C57.9071744,1.34908022 58,1.67236646 58,2.5638852 L58,56.4361148 C58,57.3276335 57.9071744,57.6509198 57.7328673,57.9768457 C57.5585602,58.3027716 57.3027716,58.5585602 56.9768457,58.7328673 C56.6509198,58.9071744 56.3276335,59 55.4361148,59 L2.5638852,59 C1.67236646,59 1.34908022,58.9071744 1.0231543,58.7328673 C0.697228371,58.5585602 0.441439796,58.3027716 0.267132704,57.9768457 C0.0928256111,57.6509198 4.01235366e-17,57.3276335 -6.90560205e-17,56.4361148 L6.90560205e-17,2.5638852 C-4.01235366e-17,1.67236646 0.0928256111,1.34908022 0.267132704,1.0231543 C0.441439796,0.697228371 0.697228371,0.441439796 1.0231543,0.267132704 C1.34908022,0.0928256111 1.67236646,6.01853049e-17 2.5638852,-1.03584031e-16 Z" id="path-39"></path>
        <filter x="-0.9%" y="-0.8%" width="101.7%" height="103.4%" filterUnits="objectBoundingBox" id="filter-40">
            <feOffset dx="0" dy="1" in="SourceAlpha" result="shadowOffsetOuter1"></feOffset>
            <feColorMatrix values="0 0 0 0 0.433395607   0 0 0 0 0.433395607   0 0 0 0 0.433395607  0 0 0 0.5 0" type="matrix" in="shadowOffsetOuter1"></feColorMatrix>
        </filter>
        <path d="M2.5638852,-1.03584031e-16 L55.4361148,1.03584031e-16 C56.3276335,-6.01853049e-17 56.6509198,0.0928256111 56.9768457,0.267132704 C57.3027716,0.441439796 57.5585602,0.697228371 57.7328673,1.0231543 C57.9071744,1.34908022 58,1.67236646 58,2.5638852 L58,56.4361148 C58,57.3276335 57.9071744,57.6509198 57.7328673,57.9768457 C57.5585602,58.3027716 57.3027716,58.5585602 56.9768457,58.7328673 C56.6509198,58.9071744 56.3276335,59 55.4361148,59 L2.5638852,59 C1.67236646,59 1.34908022,58.9071744 1.0231543,58.7328673 C0.697228371,58.5585602 0.441439796,58.3027716 0.267132704,57.9768457 C0.0928256111,57.6509198 4.01235366e-17,57.3276335 -6.90560205e-17,56.4361148 L6.90560205e-17,2.5638852 C-4.01235366e-17,1.67236646 0.0928256111,1.34908022 0.267132704,1.0231543 C0.441439796,0.697228371 0.697228371,0.441439796 1.0231543,0.267132704 C1.34908022,0.0928256111 1.67236646,6.01853049e-17 2.5638852,-1.03584031e-16 Z" id="path-41"></path>
        <filter x="-0.9%" y="-0.8%" width="101.7%" height="103.4%" filterUnits="objectBoundingBox" id="filter-42">
            <feOffset dx="0" dy="1" in="SourceAlpha" result="shadowOffsetOuter1"></feOffset>
            <feColorMatrix values="0 0 0 0 0.433395607   0 0 0 0 0.433395607   0 0 0 0 0.433395607  0 0 0 0.5 0" type="matrix" in="shadowOffsetOuter1"></feColorMatrix>
        </filter>
        <path d="M2.5638852,-1.03584031e-16 L55.4361148,1.03584031e-16 C56.3276335,-6.01853049e-17 56.6509198,0.0928256111 56.9768457,0.267132704 C57.3027716,0.441439796 57.5585602,0.697228371 57.7328673,1.0231543 C57.9071744,1.34908022 58,1.67236646 58,2.5638852 L58,56.4361148 C58,57.3276335 57.9071744,57.6509198 57.7328673,57.9768457 C57.5585602,58.3027716 57.3027716,58.5585602 56.9768457,58.7328673 C56.6509198,58.9071744 56.3276335,59 55.4361148,59 L2.5638852,59 C1.67236646,59 1.34908022,58.9071744 1.0231543,58.7328673 C0.697228371,58.5585602 0.441439796,58.3027716 0.267132704,57.9768457 C0.0928256111,57.6509198 4.01235366e-17,57.3276335 -6.90560205e-17,56.4361148 L6.90560205e-17,2.5638852 C-4.01235366e-17,1.67236646 0.0928256111,1.34908022 0.267132704,1.0231543 C0.441439796,0.697228371 0.697228371,0.441439796 1.0231543,0.267132704 C1.34908022,0.0928256111 1.67236646,6.01853049e-17 2.5638852,-1.03584031e-16 Z" id="path-43"></path>
        <filter x="-0.9%" y="-0.8%" width="101.7%" height="103.4%" filterUnits="objectBoundingBox" id="filter-44">
            <feOffset dx="0" dy="1" in="SourceAlpha" result="shadowOffsetOuter1"></feOffset>
            <feColorMatrix values="0 0 0 0 0.433395607   0 0 0 0 0.433395607   0 0 0 0 0.433395607  0 0 0 0.5 0" type="matrix" in="shadowOffsetOuter1"></feColorMatrix>
        </filter>
        <path d="M2.5638852,-1.03584031e-16 L55.4361148,1.03584031e-16 C56.3276335,-6.01853049e-17 56.6509198,0.0928256111 56.9768457,0.267132704 C57.3027716,0.441439796 57.5585602,0.697228371 57.7328673,1.0231543 C57.9071744,1.34908022 58,1.67236646 58,2.5638852 L58,56.4361148 C58,57.3276335 57.9071744,57.6509198 57.7328673,57.9768457 C57.5585602,58.3027716 57.3027716,58.5585602 56.9768457,58.7328673 C56.6509198,58.9071744 56.3276335,59 55.4361148,59 L2.5638852,59 C1.67236646,59 1.34908022,58.9071744 1.0231543,58.7328673 C0.697228371,58.5585602 0.441439796,58.3027716 0.267132704,57.9768457 C0.0928256111,57.6509198 4.01235366e-17,57.3276335 -6.90560205e-17,56.4361148 L6.90560205e-17,2.5638852 C-4.01235366e-17,1.67236646 0.0928256111,1.34908022 0.267132704,1.0231543 C0.441439796,0.697228371 0.697228371,0.441439796 1.0231543,0.267132704 C1.34908022,0.0928256111 1.67236646,6.01853049e-17 2.5638852,-1.03584031e-16 Z" id="path-45"></path>
        <filter x="-0.9%" y="-0.8%" width="101.7%" height="103.4%" filterUnits="objectBoundingBox" id="filter-46">
            <feOffset dx="0" dy="1" in="SourceAlpha" result="shadowOffsetOuter1"></feOffset>
            <feColorMatrix values="0 0 0 0 0.433395607   0 0 0 0 0.433395607   0 0 0 0 0.433395607  0 0 0 0.5 0" type="matrix" in="shadowOffsetOuter1"></feColorMatrix>
        </filter>
        <path d="M2.5638852,-1.03584031e-16 L55.4361148,1.03584031e-16 C56.3276335,-6.01853049e-17 56.6509198,0.0928256111 56.9768457,0.267132704 C57.3027716,0.441439796 57.5585602,0.697228371 57.7328673,1.0231543 C57.9071744,1.34908022 58,1.67236646 58,2.5638852 L58,56.4361148 C58,57.3276335 57.9071744,57.6509198 57.7328673,57.9768457 C57.5585602,58.3027716 57.3027716,58.5585602 56.9768457,58.7328673 C56.6509198,58.9071744 56.3276335,59 55.4361148,59 L2.5638852,59 C1.67236646,59 1.34908022,58.9071744 1.0231543,58.7328673 C0.697228371,58.5585602 0.441439796,58.3027716 0.267132704,57.9768457 C0.0928256111,57.6509198 4.01235366e-17,57.3276335 -6.90560205e-17,56.4361148 L6.90560205e-17,2.5638852 C-4.01235366e-17,1.67236646 0.0928256111,1.34908022 0.267132704,1.0231543 C0.441439796,0.697228371 0.697228371,0.441439796 1.0231543,0.267132704 C1.34908022,0.0928256111 1.67236646,6.01853049e-17 2.5638852,-1.03584031e-16 Z" id="path-47"></path>
        <filter x="-0.9%" y="-0.8%" width="101.7%" height="103.4%" filterUnits="objectBoundingBox" id="filter-48">
            <feOffset dx="0" dy="1" in="SourceAlpha" result="shadowOffsetOuter1"></feOffset>
            <feColorMatrix values="0 0 0 0 0.433395607   0 0 0 0 0.433395607   0 0 0 0 0.433395607  0 0 0 0.5 0" type="matrix" in="shadowOffsetOuter1"></feColorMatrix>
        </filter>
        <path d="M2.5638852,-1.03584031e-16 L55.4361148,1.03584031e-16 C56.3276335,-6.01853049e-17 56.6509198,0.0928256111 56.9768457,0.267132704 C57.3027716,0.441439796 57.5585602,0.697228371 57.7328673,1.0231543 C57.9071744,1.34908022 58,1.67236646 58,2.5638852 L58,56.4361148 C58,57.3276335 57.9071744,57.6509198 57.7328673,57.9768457 C57.5585602,58.3027716 57.3027716,58.5585602 56.9768457,58.7328673 C56.6509198,58.9071744 56.3276335,59 55.4361148,59 L2.5638852,59 C1.67236646,59 1.34908022,58.9071744 1.0231543,58.7328673 C0.697228371,58.5585602 0.441439796,58.3027716 0.267132704,57.9768457 C0.0928256111,57.6509198 4.01235366e-17,57.3276335 -6.90560205e-17,56.4361148 L6.90560205e-17,2.5638852 C-4.01235366e-17,1.67236646 0.0928256111,1.34908022 0.267132704,1.0231543 C0.441439796,0.697228371 0.697228371,0.441439796 1.0231543,0.267132704 C1.34908022,0.0928256111 1.67236646,6.01853049e-17 2.5638852,-1.03584031e-16 Z" id="path-49"></path>
        <filter x="-0.9%" y="-0.8%" width="101.7%" height="103.4%" filterUnits="objectBoundingBox" id="filter-50">
            <feOffset dx="0" dy="1" in="SourceAlpha" result="shadowOffsetOuter1"></feOffset>
            <feColorMatrix values="0 0 0 0 0.433395607   0 0 0 0 0.433395607   0 0 0 0 0.433395607  0 0 0 0.5 0" type="matrix" in="shadowOffsetOuter1"></feColorMatrix>
        </filter>
        <path d="M2.5638852,-1.03584031e-16 L55.4361148,1.03584031e-16 C56.3276335,-6.01853049e-17 56.6509198,0.0928256111 56.9768457,0.267132704 C57.3027716,0.441439796 57.5585602,0.697228371 57.7328673,1.0231543 C57.9071744,1.34908022 58,1.67236646 58,2.5638852 L58,56.4361148 C58,57.3276335 57.9071744,57.6509198 57.7328673,57.9768457 C57.5585602,58.3027716 57.3027716,58.5585602 56.9768457,58.7328673 C56.6509198,58.9071744 56.3276335,59 55.4361148,59 L2.5638852,59 C1.67236646,59 1.34908022,58.9071744 1.0231543,58.7328673 C0.697228371,58.5585602 0.441439796,58.3027716 0.267132704,57.9768457 C0.0928256111,57.6509198 4.01235366e-17,57.3276335 -6.90560205e-17,56.4361148 L6.90560205e-17,2.5638852 C-4.01235366e-17,1.67236646 0.0928256111,1.34908022 0.267132704,1.0231543 C0.441439796,0.697228371 0.697228371,0.441439796 1.0231543,0.267132704 C1.34908022,0.0928256111 1.67236646,6.01853049e-17 2.5638852,-1.03584031e-16 Z" id="path-51"></path>
        <filter x="-0.9%" y="-0.8%" width="101.7%" height="103.4%" filterUnits="objectBoundingBox" id="filter-52">
            <feOffset dx="0" dy="1" in="SourceAlpha" result="shadowOffsetOuter1"></feOffset>
            <feColorMatrix values="0 0 0 0 0.433395607   0 0 0 0 0.433395607   0 0 0 0 0.433395607  0 0 0 0.5 0" type="matrix" in="shadowOffsetOuter1"></feColorMatrix>
        </filter>
        <path d="M2.5638852,-1.03584031e-16 L55.4361148,1.03584031e-16 C56.3276335,-6.01853049e-17 56.6509198,0.0928256111 56.9768457,0.267132704 C57.3027716,0.441439796 57.5585602,0.697228371 57.7328673,1.0231543 C57.9071744,1.34908022 58,1.67236646 58,2.5638852 L58,56.4361148 C58,57.3276335 57.9071744,57.6509198 57.7328673,57.9768457 C57.5585602,58.3027716 57.3027716,58.5585602 56.9768457,58.7328673 C56.6509198,58.9071744 56.3276335,59 55.4361148,59 L2.5638852,59 C1.67236646,59 1.34908022,58.9071744 1.0231543,58.7328673 C0.697228371,58.5585602 0.441439796,58.3027716 0.267132704,57.9768457 C0.0928256111,57.6509198 4.01235366e-17,57.3276335 -6.90560205e-17,56.4361148 L6.90560205e-17,2.5638852 C-4.01235366e-17,1.67236646 0.0928256111,1.34908022 0.267132704,1.0231543 C0.441439796,0.697228371 0.697228371,0.441439796 1.0231543,0.267132704 C1.34908022,0.0928256111 1.67236646,6.01853049e-17 2.5638852,-1.03584031e-16 Z" id="path-53"></path>
        <filter x="-0.9%" y="-0.8%" width="101.7%" height="103.4%" filterUnits="objectBoundingBox" id="filter-54">
            <feOffset dx="0" dy="1" in="SourceAlpha" result="shadowOffsetOuter1"></feOffset>
            <feColorMatrix values="0 0 0 0 0.433395607   0 0 0 0 0.433395607   0 0 0 0 0.433395607  0 0 0 0.5 0" type="matrix" in="shadowOffsetOuter1"></feColorMatrix>
        </filter>
        <path d="M2.5638852,-1.03584031e-16 L55.4361148,1.03584031e-16 C56.3276335,-6.01853049e-17 56.6509198,0.0928256111 56.9768457,0.267132704 C57.3027716,0.441439796 57.5585602,0.697228371 57.7328673,1.0231543 C57.9071744,1.34908022 58,1.67236646 58,2.5638852 L58,56.4361148 C58,57.3276335 57.9071744,57.6509198 57.7328673,57.9768457 C57.5585602,58.3027716 57.3027716,58.5585602 56.9768457,58.7328673 C56.6509198,58.9071744 56.3276335,59 55.4361148,59 L2.5638852,59 C1.67236646,59 1.34908022,58.9071744 1.0231543,58.7328673 C0.697228371,58.5585602 0.441439796,58.3027716 0.267132704,57.9768457 C0.0928256111,57.6509198 4.01235366e-17,57.3276335 -6.90560205e-17,56.4361148 L6.90560205e-17,2.5638852 C-4.01235366e-17,1.67236646 0.0928256111,1.34908022 0.267132704,1.0231543 C0.441439796,0.697228371 0.697228371,0.441439796 1.0231543,0.267132704 C1.34908022,0.0928256111 1.67236646,6.01853049e-17 2.5638852,-1.03584031e-16 Z" id="path-55"></path>
        <filter x="-0.9%" y="-0.8%" width="101.7%" height="103.4%" filterUnits="objectBoundingBox" id="filter-56">
            <feOffset dx="0" dy="1" in="SourceAlpha" result="shadowOffsetOuter1"></feOffset>
            <feColorMatrix values="0 0 0 0 0.433395607   0 0 0 0 0.433395607   0 0 0 0 0.433395607  0 0 0 0.5 0" type="matrix" in="shadowOffsetOuter1"></feColorMatrix>
        </filter>
        <path d="M2.5638852,-1.03584031e-16 L55.4361148,1.03584031e-16 C56.3276335,-6.01853049e-17 56.6509198,0.0928256111 56.9768457,0.267132704 C57.3027716,0.441439796 57.5585602,0.697228371 57.7328673,1.0231543 C57.9071744,1.34908022 58,1.67236646 58,2.5638852 L58,56.4361148 C58,57.3276335 57.9071744,57.6509198 57.7328673,57.9768457 C57.5585602,58.3027716 57.3027716,58.5585602 56.9768457,58.7328673 C56.6509198,58.9071744 56.3276335,59 55.4361148,59 L2.5638852,59 C1.67236646,59 1.34908022,58.9071744 1.0231543,58.7328673 C0.697228371,58.5585602 0.441439796,58.3027716 0.267132704,57.9768457 C0.0928256111,57.6509198 4.01235366e-17,57.3276335 -6.90560205e-17,56.4361148 L6.90560205e-17,2.5638852 C-4.01235366e-17,1.67236646 0.0928256111,1.34908022 0.267132704,1.0231543 C0.441439796,0.697228371 0.697228371,0.441439796 1.0231543,0.267132704 C1.34908022,0.0928256111 1.67236646,6.01853049e-17 2.5638852,-1.03584031e-16 Z" id="path-57"></path>
        <filter x="-0.9%" y="-0.8%" width="101.7%" height="103.4%" filterUnits="objectBoundingBox" id="filter-58">
            <feOffset dx="0" dy="1" in="SourceAlpha" result="shadowOffsetOuter1"></feOffset>
            <feColorMatrix values="0 0 0 0 0.433395607   0 0 0 0 0.433395607   0 0 0 0 0.433395607  0 0 0 0.5 0" type="matrix" in="shadowOffsetOuter1"></feColorMatrix>
        </filter>
        <path d="M2.5638852,-1.03584031e-16 L55.4361148,1.03584031e-16 C56.3276335,-6.01853049e-17 56.6509198,0.0928256111 56.9768457,0.267132704 C57.3027716,0.441439796 57.5585602,0.697228371 57.7328673,1.0231543 C57.9071744,1.34908022 58,1.67236646 58,2.5638852 L58,56.4361148 C58,57.3276335 57.9071744,57.6509198 57.7328673,57.9768457 C57.5585602,58.3027716 57.3027716,58.5585602 56.9768457,58.7328673 C56.6509198,58.9071744 56.3276335,59 55.4361148,59 L2.5638852,59 C1.67236646,59 1.34908022,58.9071744 1.0231543,58.7328673 C0.697228371,58.5585602 0.441439796,58.3027716 0.267132704,57.9768457 C0.0928256111,57.6509198 4.01235366e-17,57.3276335 -6.90560205e-17,56.4361148 L6.90560205e-17,2.5638852 C-4.01235366e-17,1.67236646 0.0928256111,1.34908022 0.267132704,1.0231543 C0.441439796,0.697228371 0.697228371,0.441439796 1.0231543,0.267132704 C1.34908022,0.0928256111 1.67236646,6.01853049e-17 2.5638852,-1.03584031e-16 Z" id="path-59"></path>
        <filter x="-0.9%" y="-0.8%" width="101.7%" height="103.4%" filterUnits="objectBoundingBox" id="filter-60">
            <feOffset dx="0" dy="1" in="SourceAlpha" result="shadowOffsetOuter1"></feOffset>
            <feColorMatrix values="0 0 0 0 0.433395607   0 0 0 0 0.433395607   0 0 0 0 0.433395607  0 0 0 0.5 0" type="matrix" in="shadowOffsetOuter1"></feColorMatrix>
        </filter>
        <path d="M2.5638852,-1.03584031e-16 L55.4361148,1.03584031e-16 C56.3276335,-6.01853049e-17 56.6509198,0.0928256111 56.9768457,0.267132704 C57.3027716,0.441439796 57.5585602,0.697228371 57.7328673,1.0231543 C57.9071744,1.34908022 58,1.67236646 58,2.5638852 L58,56.4361148 C58,57.3276335 57.9071744,57.6509198 57.7328673,57.9768457 C57.5585602,58.3027716 57.3027716,58.5585602 56.9768457,58.7328673 C56.6509198,58.9071744 56.3276335,59 55.4361148,59 L2.5638852,59 C1.67236646,59 1.34908022,58.9071744 1.0231543,58.7328673 C0.697228371,58.5585602 0.441439796,58.3027716 0.267132704,57.9768457 C0.0928256111,57.6509198 4.01235366e-17,57.3276335 -6.90560205e-17,56.4361148 L6.90560205e-17,2.5638852 C-4.01235366e-17,1.67236646 0.0928256111,1.34908022 0.267132704,1.0231543 C0.441439796,0.697228371 0.697228371,0.441439796 1.0231543,0.267132704 C1.34908022,0.0928256111 1.67236646,6.01853049e-17 2.5638852,-1.03584031e-16 Z" id="path-61"></path>
        <filter x="-0.9%" y="-0.8%" width="101.7%" height="103.4%" filterUnits="objectBoundingBox" id="filter-62">
            <feOffset dx="0" dy="1" in="SourceAlpha" result="shadowOffsetOuter1"></feOffset>
            <feColorMatrix values="0 0 0 0 0.433395607   0 0 0 0 0.433395607   0 0 0 0 0.433395607  0 0 0 0.5 0" type="matrix" in="shadowOffsetOuter1"></feColorMatrix>
        </filter>
        <path d="M2.5638852,-1.03584031e-16 L55.4361148,1.03584031e-16 C56.3276335,-6.01853049e-17 56.6509198,0.0928256111 56.9768457,0.267132704 C57.3027716,0.441439796 57.5585602,0.697228371 57.7328673,1.0231543 C57.9071744,1.34908022 58,1.67236646 58,2.5638852 L58,56.4361148 C58,57.3276335 57.9071744,57.6509198 57.7328673,57.9768457 C57.5585602,58.3027716 57.3027716,58.5585602 56.9768457,58.7328673 C56.6509198,58.9071744 56.3276335,59 55.4361148,59 L2.5638852,59 C1.67236646,59 1.34908022,58.9071744 1.0231543,58.7328673 C0.697228371,58.5585602 0.441439796,58.3027716 0.267132704,57.9768457 C0.0928256111,57.6509198 4.01235366e-17,57.3276335 -6.90560205e-17,56.4361148 L6.90560205e-17,2.5638852 C-4.01235366e-17,1.67236646 0.0928256111,1.34908022 0.267132704,1.0231543 C0.441439796,0.697228371 0.697228371,0.441439796 1.0231543,0.267132704 C1.34908022,0.0928256111 1.67236646,6.01853049e-17 2.5638852,-1.03584031e-16 Z" id="path-63"></path>
        <filter x="-0.9%" y="-0.8%" width="101.7%" height="103.4%" filterUnits="objectBoundingBox" id="filter-64">
            <feOffset dx="0" dy="1" in="SourceAlpha" result="shadowOffsetOuter1"></feOffset>
            <feColorMatrix values="0 0 0 0 0.433395607   0 0 0 0 0.433395607   0 0 0 0 0.433395607  0 0 0 0.5 0" type="matrix" in="shadowOffsetOuter1"></feColorMatrix>
        </filter>
        <path d="M2.5638852,-1.03584031e-16 L55.4361148,1.03584031e-16 C56.3276335,-6.01853049e-17 56.6509198,0.0928256111 56.9768457,0.267132704 C57.3027716,0.441439796 57.5585602,0.697228371 57.7328673,1.0231543 C57.9071744,1.34908022 58,1.67236646 58,2.5638852 L58,56.4361148 C58,57.3276335 57.9071744,57.6509198 57.7328673,57.9768457 C57.5585602,58.3027716 57.3027716,58.5585602 56.9768457,58.7328673 C56.6509198,58.9071744 56.3276335,59 55.4361148,59 L2.5638852,59 C1.67236646,59 1.34908022,58.9071744 1.0231543,58.7328673 C0.697228371,58.5585602 0.441439796,58.3027716 0.267132704,57.9768457 C0.0928256111,57.6509198 4.01235366e-17,57.3276335 -6.90560205e-17,56.4361148 L6.90560205e-17,2.5638852 C-4.01235366e-17,1.67236646 0.0928256111,1.34908022 0.267132704,1.0231543 C0.441439796,0.697228371 0.697228371,0.441439796 1.0231543,0.267132704 C1.34908022,0.0928256111 1.67236646,6.01853049e-17 2.5638852,-1.03584031e-16 Z" id="path-65"></path>
        <filter x="-0.9%" y="-0.8%" width="101.7%" height="103.4%" filterUnits="objectBoundingBox" id="filter-66">
            <feOffset dx="0" dy="1" in="SourceAlpha" result="shadowOffsetOuter1"></feOffset>
            <feColorMatrix values="0 0 0 0 0.433395607   0 0 0 0 0.433395607   0 0 0 0 0.433395607  0 0 0 0.5 0" type="matrix" in="shadowOffsetOuter1"></feColorMatrix>
        </filter>
        <path d="M2.5638852,-1.03584031e-16 L55.4361148,1.03584031e-16 C56.3276335,-6.01853049e-17 56.6509198,0.0928256111 56.9768457,0.267132704 C57.3027716,0.441439796 57.5585602,0.697228371 57.7328673,1.0231543 C57.9071744,1.34908022 58,1.67236646 58,2.5638852 L58,56.4361148 C58,57.3276335 57.9071744,57.6509198 57.7328673,57.9768457 C57.5585602,58.3027716 57.3027716,58.5585602 56.9768457,58.7328673 C56.6509198,58.9071744 56.3276335,59 55.4361148,59 L2.5638852,59 C1.67236646,59 1.34908022,58.9071744 1.0231543,58.7328673 C0.697228371,58.5585602 0.441439796,58.3027716 0.267132704,57.9768457 C0.0928256111,57.6509198 4.01235366e-17,57.3276335 -6.90560205e-17,56.4361148 L6.90560205e-17,2.5638852 C-4.01235366e-17,1.67236646 0.0928256111,1.34908022 0.267132704,1.0231543 C0.441439796,0.697228371 0.697228371,0.441439796 1.0231543,0.267132704 C1.34908022,0.0928256111 1.67236646,6.01853049e-17 2.5638852,-1.03584031e-16 Z" id="path-67"></path>
        <filter x="-0.9%" y="-0.8%" width="101.7%" height="103.4%" filterUnits="objectBoundingBox" id="filter-68">
            <feOffset dx="0" dy="1" in="SourceAlpha" result="shadowOffsetOuter1"></feOffset>
            <feColorMatrix values="0 0 0 0 0.433395607   0 0 0 0 0.433395607   0 0 0 0 0.433395607  0 0 0 0.5 0" type="matrix" in="shadowOffsetOuter1"></feColorMatrix>
        </filter>
        <path d="M2.5638852,-1.03584031e-16 L55.4361148,1.03584031e-16 C56.3276335,-6.01853049e-17 56.6509198,0.0928256111 56.9768457,0.267132704 C57.3027716,0.441439796 57.5585602,0.697228371 57.7328673,1.0231543 C57.9071744,1.34908022 58,1.67236646 58,2.5638852 L58,56.4361148 C58,57.3276335 57.9071744,57.6509198 57.7328673,57.9768457 C57.5585602,58.3027716 57.3027716,58.5585602 56.9768457,58.7328673 C56.6509198,58.9071744 56.3276335,59 55.4361148,59 L2.5638852,59 C1.67236646,59 1.34908022,58.9071744 1.0231543,58.7328673 C0.697228371,58.5585602 0.441439796,58.3027716 0.267132704,57.9768457 C0.0928256111,57.6509198 4.01235366e-17,57.3276335 -6.90560205e-17,56.4361148 L6.90560205e-17,2.5638852 C-4.01235366e-17,1.67236646 0.0928256111,1.34908022 0.267132704,1.0231543 C0.441439796,0.697228371 0.697228371,0.441439796 1.0231543,0.267132704 C1.34908022,0.0928256111 1.67236646,6.01853049e-17 2.5638852,-1.03584031e-16 Z" id="path-69"></path>
        <filter x="-0.9%" y="-0.8%" width="101.7%" height="103.4%" filterUnits="objectBoundingBox" id="filter-70">
            <feOffset dx="0" dy="1" in="SourceAlpha" result="shadowOffsetOuter1"></feOffset>
            <feColorMatrix values="0 0 0 0 0.433395607   0 0 0 0 0.433395607   0 0 0 0 0.433395607  0 0 0 0.5 0" type="matrix" in="shadowOffsetOuter1"></feColorMatrix>
        </filter>
        <path d="M2.5638852,-1.03584031e-16 L55.4361148,1.03584031e-16 C56.3276335,-6.01853049e-17 56.6509198,0.0928256111 56.9768457,0.267132704 C57.3027716,0.441439796 57.5585602,0.697228371 57.7328673,1.0231543 C57.9071744,1.34908022 58,1.67236646 58,2.5638852 L58,56.4361148 C58,57.3276335 57.9071744,57.6509198 57.7328673,57.9768457 C57.5585602,58.3027716 57.3027716,58.5585602 56.9768457,58.7328673 C56.6509198,58.9071744 56.3276335,59 55.4361148,59 L2.5638852,59 C1.67236646,59 1.34908022,58.9071744 1.0231543,58.7328673 C0.697228371,58.5585602 0.441439796,58.3027716 0.267132704,57.9768457 C0.0928256111,57.6509198 4.01235366e-17,57.3276335 -6.90560205e-17,56.4361148 L6.90560205e-17,2.5638852 C-4.01235366e-17,1.67236646 0.0928256111,1.34908022 0.267132704,1.0231543 C0.441439796,0.697228371 0.697228371,0.441439796 1.0231543,0.267132704 C1.34908022,0.0928256111 1.67236646,6.01853049e-17 2.5638852,-1.03584031e-16 Z" id="path-71"></path>
        <filter x="-0.9%" y="-0.8%" width="101.7%" height="103.4%" filterUnits="objectBoundingBox" id="filter-72">
            <feOffset dx="0" dy="1" in="SourceAlpha" result="shadowOffsetOuter1"></feOffset>
            <feColorMatrix values="0 0 0 0 0.433395607   0 0 0 0 0.433395607   0 0 0 0 0.433395607  0 0 0 0.5 0" type="matrix" in="shadowOffsetOuter1"></feColorMatrix>
        </filter>
        <path d="M2.5638852,-1.03584031e-16 L55.4361148,1.03584031e-16 C56.3276335,-6.01853049e-17 56.6509198,0.0928256111 56.9768457,0.267132704 C57.3027716,0.441439796 57.5585602,0.697228371 57.7328673,1.0231543 C57.9071744,1.34908022 58,1.67236646 58,2.5638852 L58,56.4361148 C58,57.3276335 57.9071744,57.6509198 57.7328673,57.9768457 C57.5585602,58.3027716 57.3027716,58.5585602 56.9768457,58.7328673 C56.6509198,58.9071744 56.3276335,59 55.4361148,59 L2.5638852,59 C1.67236646,59 1.34908022,58.9071744 1.0231543,58.7328673 C0.697228371,58.5585602 0.441439796,58.3027716 0.267132704,57.9768457 C0.0928256111,57.6509198 4.01235366e-17,57.3276335 -6.90560205e-17,56.4361148 L6.90560205e-17,2.5638852 C-4.01235366e-17,1.67236646 0.0928256111,1.34908022 0.267132704,1.0231543 C0.441439796,0.697228371 0.697228371,0.441439796 1.0231543,0.267132704 C1.34908022,0.0928256111 1.67236646,6.01853049e-17 2.5638852,-1.03584031e-16 Z" id="path-73"></path>
        <filter x="-0.9%" y="-0.8%" width="101.7%" height="103.4%" filterUnits="objectBoundingBox" id="filter-74">
            <feOffset dx="0" dy="1" in="SourceAlpha" result="shadowOffsetOuter1"></feOffset>
            <feColorMatrix values="0 0 0 0 0.433395607   0 0 0 0 0.433395607   0 0 0 0 0.433395607  0 0 0 0.5 0" type="matrix" in="shadowOffsetOuter1"></feColorMatrix>
        </filter>
        <path d="M2.5638852,-1.03584031e-16 L55.4361148,1.03584031e-16 C56.3276335,-6.01853049e-17 56.6509198,0.0928256111 56.9768457,0.267132704 C57.3027716,0.441439796 57.5585602,0.697228371 57.7328673,1.0231543 C57.9071744,1.34908022 58,1.67236646 58,2.5638852 L58,56.4361148 C58,57.3276335 57.9071744,57.6509198 57.7328673,57.9768457 C57.5585602,58.3027716 57.3027716,58.5585602 56.9768457,58.7328673 C56.6509198,58.9071744 56.3276335,59 55.4361148,59 L2.5638852,59 C1.67236646,59 1.34908022,58.9071744 1.0231543,58.7328673 C0.697228371,58.5585602 0.441439796,58.3027716 0.267132704,57.9768457 C0.0928256111,57.6509198 4.01235366e-17,57.3276335 -6.90560205e-17,56.4361148 L6.90560205e-17,2.5638852 C-4.01235366e-17,1.67236646 0.0928256111,1.34908022 0.267132704,1.0231543 C0.441439796,0.697228371 0.697228371,0.441439796 1.0231543,0.267132704 C1.34908022,0.0928256111 1.67236646,6.01853049e-17 2.5638852,-1.03584031e-16 Z" id="path-75"></path>
        <filter x="-0.9%" y="-0.8%" width="101.7%" height="103.4%" filterUnits="objectBoundingBox" id="filter-76">
            <feOffset dx="0" dy="1" in="SourceAlpha" result="shadowOffsetOuter1"></feOffset>
            <feColorMatrix values="0 0 0 0 0.433395607   0 0 0 0 0.433395607   0 0 0 0 0.433395607  0 0 0 0.5 0" type="matrix" in="shadowOffsetOuter1"></feColorMatrix>
        </filter>
        <path d="M2.5638852,-1.03584031e-16 L55.4361148,1.03584031e-16 C56.3276335,-6.01853049e-17 56.6509198,0.0928256111 56.9768457,0.267132704 C57.3027716,0.441439796 57.5585602,0.697228371 57.7328673,1.0231543 C57.9071744,1.34908022 58,1.67236646 58,2.5638852 L58,56.4361148 C58,57.3276335 57.9071744,57.6509198 57.7328673,57.9768457 C57.5585602,58.3027716 57.3027716,58.5585602 56.9768457,58.7328673 C56.6509198,58.9071744 56.3276335,59 55.4361148,59 L2.5638852,59 C1.67236646,59 1.34908022,58.9071744 1.0231543,58.7328673 C0.697228371,58.5585602 0.441439796,58.3027716 0.267132704,57.9768457 C0.0928256111,57.6509198 4.01235366e-17,57.3276335 -6.90560205e-17,56.4361148 L6.90560205e-17,2.5638852 C-4.01235366e-17,1.67236646 0.0928256111,1.34908022 0.267132704,1.0231543 C0.441439796,0.697228371 0.697228371,0.441439796 1.0231543,0.267132704 C1.34908022,0.0928256111 1.67236646,6.01853049e-17 2.5638852,-1.03584031e-16 Z" id="path-77"></path>
        <filter x="-0.9%" y="-0.8%" width="101.7%" height="103.4%" filterUnits="objectBoundingBox" id="filter-78">
            <feOffset dx="0" dy="1" in="SourceAlpha" result="shadowOffsetOuter1"></feOffset>
            <feColorMatrix values="0 0 0 0 0.433395607   0 0 0 0 0.433395607   0 0 0 0 0.433395607  0 0 0 0.5 0" type="matrix" in="shadowOffsetOuter1"></feColorMatrix>
        </filter>
        <path d="M2.5638852,-1.03584031e-16 L55.4361148,1.03584031e-16 C56.3276335,-6.01853049e-17 56.6509198,0.0928256111 56.9768457,0.267132704 C57.3027716,0.441439796 57.5585602,0.697228371 57.7328673,1.0231543 C57.9071744,1.34908022 58,1.67236646 58,2.5638852 L58,56.4361148 C58,57.3276335 57.9071744,57.6509198 57.7328673,57.9768457 C57.5585602,58.3027716 57.3027716,58.5585602 56.9768457,58.7328673 C56.6509198,58.9071744 56.3276335,59 55.4361148,59 L2.5638852,59 C1.67236646,59 1.34908022,58.9071744 1.0231543,58.7328673 C0.697228371,58.5585602 0.441439796,58.3027716 0.267132704,57.9768457 C0.0928256111,57.6509198 4.01235366e-17,57.3276335 -6.90560205e-17,56.4361148 L6.90560205e-17,2.5638852 C-4.01235366e-17,1.67236646 0.0928256111,1.34908022 0.267132704,1.0231543 C0.441439796,0.697228371 0.697228371,0.441439796 1.0231543,0.267132704 C1.34908022,0.0928256111 1.67236646,6.01853049e-17 2.5638852,-1.03584031e-16 Z" id="path-79"></path>
        <filter x="-0.9%" y="-0.8%" width="101.7%" height="103.4%" filterUnits="objectBoundingBox" id="filter-80">
            <feOffset dx="0" dy="1" in="SourceAlpha" result="shadowOffsetOuter1"></feOffset>
            <feColorMatrix values="0 0 0 0 0.433395607   0 0 0 0 0.433395607   0 0 0 0 0.433395607  0 0 0 0.5 0" type="matrix" in="shadowOffsetOuter1"></feColorMatrix>
        </filter>
        <path d="M2.5638852,-1.03584031e-16 L55.4361148,1.03584031e-16 C56.3276335,-6.01853049e-17 56.6509198,0.0928256111 56.9768457,0.267132704 C57.3027716,0.441439796 57.5585602,0.697228371 57.7328673,1.0231543 C57.9071744,1.34908022 58,1.67236646 58,2.5638852 L58,56.4361148 C58,57.3276335 57.9071744,57.6509198 57.7328673,57.9768457 C57.5585602,58.3027716 57.3027716,58.5585602 56.9768457,58.7328673 C56.6509198,58.9071744 56.3276335,59 55.4361148,59 L2.5638852,59 C1.67236646,59 1.34908022,58.9071744 1.0231543,58.7328673 C0.697228371,58.5585602 0.441439796,58.3027716 0.267132704,57.9768457 C0.0928256111,57.6509198 4.01235366e-17,57.3276335 -6.90560205e-17,56.4361148 L6.90560205e-17,2.5638852 C-4.01235366e-17,1.67236646 0.0928256111,1.34908022 0.267132704,1.0231543 C0.441439796,0.697228371 0.697228371,0.441439796 1.0231543,0.267132704 C1.34908022,0.0928256111 1.67236646,6.01853049e-17 2.5638852,-1.03584031e-16 Z" id="path-81"></path>
        <filter x="-0.9%" y="-0.8%" width="101.7%" height="103.4%" filterUnits="objectBoundingBox" id="filter-82">
            <feOffset dx="0" dy="1" in="SourceAlpha" result="shadowOffsetOuter1"></feOffset>
            <feColorMatrix values="0 0 0 0 0.433395607   0 0 0 0 0.433395607   0 0 0 0 0.433395607  0 0 0 0.5 0" type="matrix" in="shadowOffsetOuter1"></feColorMatrix>
        </filter>
        <path d="M2.5638852,-1.03584031e-16 L55.4361148,1.03584031e-16 C56.3276335,-6.01853049e-17 56.6509198,0.0928256111 56.9768457,0.267132704 C57.3027716,0.441439796 57.5585602,0.697228371 57.7328673,1.0231543 C57.9071744,1.34908022 58,1.67236646 58,2.5638852 L58,56.4361148 C58,57.3276335 57.9071744,57.6509198 57.7328673,57.9768457 C57.5585602,58.3027716 57.3027716,58.5585602 56.9768457,58.7328673 C56.6509198,58.9071744 56.3276335,59 55.4361148,59 L2.5638852,59 C1.67236646,59 1.34908022,58.9071744 1.0231543,58.7328673 C0.697228371,58.5585602 0.441439796,58.3027716 0.267132704,57.9768457 C0.0928256111,57.6509198 4.01235366e-17,57.3276335 -6.90560205e-17,56.4361148 L6.90560205e-17,2.5638852 C-4.01235366e-17,1.67236646 0.0928256111,1.34908022 0.267132704,1.0231543 C0.441439796,0.697228371 0.697228371,0.441439796 1.0231543,0.267132704 C1.34908022,0.0928256111 1.67236646,6.01853049e-17 2.5638852,-1.03584031e-16 Z" id="path-83"></path>
        <filter x="-0.9%" y="-0.8%" width="101.7%" height="103.4%" filterUnits="objectBoundingBox" id="filter-84">
            <feOffset dx="0" dy="1" in="SourceAlpha" result="shadowOffsetOuter1"></feOffset>
            <feColorMatrix values="0 0 0 0 0.433395607   0 0 0 0 0.433395607   0 0 0 0 0.433395607  0 0 0 0.5 0" type="matrix" in="shadowOffsetOuter1"></feColorMatrix>
        </filter>
        <path d="M2.5638852,-1.03584031e-16 L55.4361148,1.03584031e-16 C56.3276335,-6.01853049e-17 56.6509198,0.0928256111 56.9768457,0.267132704 C57.3027716,0.441439796 57.5585602,0.697228371 57.7328673,1.0231543 C57.9071744,1.34908022 58,1.67236646 58,2.5638852 L58,56.4361148 C58,57.3276335 57.9071744,57.6509198 57.7328673,57.9768457 C57.5585602,58.3027716 57.3027716,58.5585602 56.9768457,58.7328673 C56.6509198,58.9071744 56.3276335,59 55.4361148,59 L2.5638852,59 C1.67236646,59 1.34908022,58.9071744 1.0231543,58.7328673 C0.697228371,58.5585602 0.441439796,58.3027716 0.267132704,57.9768457 C0.0928256111,57.6509198 4.01235366e-17,57.3276335 -6.90560205e-17,56.4361148 L6.90560205e-17,2.5638852 C-4.01235366e-17,1.67236646 0.0928256111,1.34908022 0.267132704,1.0231543 C0.441439796,0.697228371 0.697228371,0.441439796 1.0231543,0.267132704 C1.34908022,0.0928256111 1.67236646,6.01853049e-17 2.5638852,-1.03584031e-16 Z" id="path-85"></path>
        <filter x="-0.9%" y="-0.8%" width="101.7%" height="103.4%" filterUnits="objectBoundingBox" id="filter-86">
            <feOffset dx="0" dy="1" in="SourceAlpha" result="shadowOffsetOuter1"></feOffset>
            <feColorMatrix values="0 0 0 0 0.433395607   0 0 0 0 0.433395607   0 0 0 0 0.433395607  0 0 0 0.5 0" type="matrix" in="shadowOffsetOuter1"></feColorMatrix>
        </filter>
        <path d="M2.5638852,-1.03584031e-16 L55.4361148,1.03584031e-16 C56.3276335,-6.01853049e-17 56.6509198,0.0928256111 56.9768457,0.267132704 C57.3027716,0.441439796 57.5585602,0.697228371 57.7328673,1.0231543 C57.9071744,1.34908022 58,1.67236646 58,2.5638852 L58,56.4361148 C58,57.3276335 57.9071744,57.6509198 57.7328673,57.9768457 C57.5585602,58.3027716 57.3027716,58.5585602 56.9768457,58.7328673 C56.6509198,58.9071744 56.3276335,59 55.4361148,59 L2.5638852,59 C1.67236646,59 1.34908022,58.9071744 1.0231543,58.7328673 C0.697228371,58.5585602 0.441439796,58.3027716 0.267132704,57.9768457 C0.0928256111,57.6509198 4.01235366e-17,57.3276335 -6.90560205e-17,56.4361148 L6.90560205e-17,2.5638852 C-4.01235366e-17,1.67236646 0.0928256111,1.34908022 0.267132704,1.0231543 C0.441439796,0.697228371 0.697228371,0.441439796 1.0231543,0.267132704 C1.34908022,0.0928256111 1.67236646,6.01853049e-17 2.5638852,-1.03584031e-16 Z" id="path-87"></path>
        <filter x="-0.9%" y="-0.8%" width="101.7%" height="103.4%" filterUnits="objectBoundingBox" id="filter-88">
            <feOffset dx="0" dy="1" in="SourceAlpha" result="shadowOffsetOuter1"></feOffset>
            <feColorMatrix values="0 0 0 0 0.433395607   0 0 0 0 0.433395607   0 0 0 0 0.433395607  0 0 0 0.5 0" type="matrix" in="shadowOffsetOuter1"></feColorMatrix>
        </filter>
        <linearGradient x1="77.7715021%" y1="2.61551%" x2="35.468671%" y2="100%" id="linearGradient-89">
            <stop stop-color="#BDD6D2" offset="0%"></stop>
            <stop stop-color="#FFFFFF" stop-opacity="0" offset="100%"></stop>
        </linearGradient>
        <linearGradient x1="50%" y1="-18.4816153%" x2="27.7150337%" y2="131.471601%" id="linearGradient-90">
            <stop stop-color="#000000" stop-opacity="0.8" offset="0%"></stop>
            <stop stop-color="#979797" stop-opacity="0" offset="100%"></stop>
        </linearGradient>
        <linearGradient x1="73.3971807%" y1="3.34497882%" x2="24.5285138%" y2="139.247849%" id="linearGradient-91">
            <stop stop-color="#B5DAEA" offset="0%"></stop>
            <stop stop-color="#FFFFFF" stop-opacity="0" offset="100%"></stop>
        </linearGradient>
        <linearGradient x1="50%" y1="-18.4816153%" x2="38.5078576%" y2="151.43801%" id="linearGradient-92">
            <stop stop-color="#000000" stop-opacity="0.8" offset="0%"></stop>
            <stop stop-color="#979797" stop-opacity="0" offset="100%"></stop>
        </linearGradient>
        <linearGradient x1="69.4541272%" y1="19.7802808%" x2="50%" y2="80.2197192%" id="linearGradient-93">
            <stop stop-color="#6FA1B8" offset="0%"></stop>
            <stop stop-color="#FFFFFF" stop-opacity="0" offset="100%"></stop>
        </linearGradient>
        <linearGradient x1="50%" y1="8.61009625%" x2="36.4094521%" y2="111.192022%" id="linearGradient-94">
            <stop stop-color="#000000" stop-opacity="0.8" offset="0%"></stop>
            <stop stop-color="#979797" stop-opacity="0" offset="100%"></stop>
        </linearGradient>
        <linearGradient x1="35.4161884%" y1="0%" x2="72.9293436%" y2="100%" id="linearGradient-95">
            <stop stop-color="#B5DAEA" offset="0%"></stop>
            <stop stop-color="#FFFFFF" stop-opacity="0" offset="100%"></stop>
        </linearGradient>
        <linearGradient x1="50%" y1="-18.4816153%" x2="72.9293436%" y2="136.575774%" id="linearGradient-96">
            <stop stop-color="#000000" stop-opacity="0.8" offset="0%"></stop>
            <stop stop-color="#7F7F7F" stop-opacity="0.129586819" offset="83.8016476%"></stop>
            <stop stop-color="#979797" stop-opacity="0" offset="100%"></stop>
        </linearGradient>
        <linearGradient x1="35.08275%" y1="0%" x2="64.2139729%" y2="100%" id="linearGradient-97">
            <stop stop-color="#BDD6D2" offset="0%"></stop>
            <stop stop-color="#FFFFFF" stop-opacity="0" offset="100%"></stop>
        </linearGradient>
        <linearGradient x1="50%" y1="-18.4816153%" x2="60.683842%" y2="120.671695%" id="linearGradient-98">
            <stop stop-color="#000000" stop-opacity="0.8" offset="0%"></stop>
            <stop stop-color="#979797" stop-opacity="0" offset="100%"></stop>
        </linearGradient>
    </defs>
    <g id="Page-1" stroke="none" stroke-width="1" fill="none" fill-rule="evenodd">
        <g id="Jian-manual-b2-Copy-2" transform="translate(-133.000000, -1804.000000)">
            <g id="Split" transform="translate(133.590013, 1804.198161)">
                <g>
                    <g id="Right-split" transform="translate(784.500000, 201.000000) rotate(-16.000000) translate(-784.500000, -201.000000) translate(538.000000, 63.000000)">
                        <g id="4l" transform="translate(63.000000, 146.000000)">
                            <g id="btn-left-6">
                                <use fill="black" fill-opacity="1" filter="url(#filter-2)" xlink:href="#path-1"></use>
                                <use fill="#B5DAEA" fill-rule="evenodd" xlink:href="#path-1"></use>
                            </g>
                        </g>
                        <g id="4l" transform="translate(125.000000, 138.000000)">
                            <g id="btn-left-6">
                                <use fill="black" fill-opacity="1" filter="url(#filter-4)" xlink:href="#path-3"></use>
                                <use fill="#B5DAEA" fill-rule="evenodd" xlink:href="#path-3"></use>
                            </g>
                        </g>
                        <g id="3" transform="translate(187.000000, 126.000000)">
                            <g id="btn-left-6">
                                <use fill="black" fill-opacity="1" filter="url(#filter-6)" xlink:href="#path-5"></use>
                                <use fill="#BDD6D2" fill-rule="evenodd" xlink:href="#path-5"></use>
                            </g>
                        </g>
                        <g id="4l" transform="translate(249.000000, 138.000000)">
                            <g id="btn-left-6">
                                <use fill="black" fill-opacity="1" filter="url(#filter-8)" xlink:href="#path-7"></use>
                                <use fill="#B5DAEA" fill-rule="evenodd" xlink:href="#path-7"></use>
                            </g>
                        </g>
                        <g id="3" transform="translate(311.000000, 160.000000)">
                            <g id="btn-left-6">
                                <use fill="black" fill-opacity="1" filter="url(#filter-10)" xlink:href="#path-9"></use>
                                <use fill="#BDD6D2" fill-rule="evenodd" xlink:href="#path-9"></use>
                            </g>
                        </g>
                        <g id="4l" transform="translate(63.000000, 83.000000)">
                            <g id="btn-left-6">
                                <use fill="black" fill-opacity="1" filter="url(#filter-12)" xlink:href="#path-11"></use>
                                <use fill="#B5DAEA" fill-rule="evenodd" xlink:href="#path-11"></use>
                            </g>
                        </g>
                        <g id="4l" transform="translate(125.000000, 75.000000)">
                            <g id="btn-left-6">
                                <use fill="black" fill-opacity="1" filter="url(#filter-14)" xlink:href="#path-13"></use>
                                <use fill="#B5DAEA" fill-rule="evenodd" xlink:href="#path-13"></use>
                            </g>
                        </g>
                        <g id="3" transform="translate(187.000000, 63.000000)">
                            <g id="btn-left-6">
                                <use fill="black" fill-opacity="1" filter="url(#filter-16)" xlink:href="#path-15"></use>
                                <use fill="#BDD6D2" fill-rule="evenodd" xlink:href="#path-15"></use>
                            </g>
                        </g>
                        <g id="4l" transform="translate(249.000000, 75.000000)">
                            <g id="btn-left-6">
                                <use fill="black" fill-opacity="1" filter="url(#filter-18)" xlink:href="#path-17"></use>
                                <use fill="#B5DAEA" fill-rule="evenodd" xlink:href="#path-17"></use>
                            </g>
                        </g>
                        <g id="3" transform="translate(311.000000, 97.000000)">
                            <g id="btn-left-6">
                                <use fill="black" fill-opacity="1" filter="url(#filter-20)" xlink:href="#path-19"></use>
                                <use fill="#BDD6D2" fill-rule="evenodd" xlink:href="#path-19"></use>
                            </g>
                        </g>
                        <g id="3" transform="translate(373.000000, 107.000000)">
                            <g id="btn-left-6">
                                <use fill="black" fill-opacity="1" filter="url(#filter-22)" xlink:href="#path-21"></use>
                                <use fill="#BDD6D2" fill-rule="evenodd" xlink:href="#path-21"></use>
                            </g>
                        </g>
                        <g id="3" transform="translate(435.000000, 93.000000)">
                            <g id="btn-left-6">
                                <use fill="black" fill-opacity="1" filter="url(#filter-24)" xlink:href="#path-23"></use>
                                <use fill="#BDD6D2" fill-rule="evenodd" xlink:href="#path-23"></use>
                            </g>
                        </g>
                        <g id="4l" transform="translate(63.000000, 20.000000)">
                            <g id="btn-left-6">
                                <use fill="black" fill-opacity="1" filter="url(#filter-26)" xlink:href="#path-25"></use>
                                <use fill="#B5DAEA" fill-rule="evenodd" xlink:href="#path-25"></use>
                            </g>
                        </g>
                        <g id="4l" transform="translate(125.000000, 12.000000)">
                            <g id="btn-left-6">
                                <use fill="black" fill-opacity="1" filter="url(#filter-28)" xlink:href="#path-27"></use>
                                <use fill="#B5DAEA" fill-rule="evenodd" xlink:href="#path-27"></use>
                            </g>
                        </g>
                        <g id="3" transform="translate(187.000000, 0.000000)">
                            <g id="btn-left-6">
                                <use fill="black" fill-opacity="1" filter="url(#filter-30)" xlink:href="#path-29"></use>
                                <use fill="#BDD6D2" fill-rule="evenodd" xlink:href="#path-29"></use>
                            </g>
                        </g>
                        <g id="4l" transform="translate(249.000000, 12.000000)">
                            <g id="btn-left-6">
                                <use fill="black" fill-opacity="1" filter="url(#filter-32)" xlink:href="#path-31"></use>
                                <use fill="#B5DAEA" fill-rule="evenodd" xlink:href="#path-31"></use>
                            </g>
                        </g>
                        <g id="3" transform="translate(311.000000, 34.000000)">
                            <g id="btn-left-6">
                                <use fill="black" fill-opacity="1" filter="url(#filter-34)" xlink:href="#path-33"></use>
                                <use fill="#BDD6D2" fill-rule="evenodd" xlink:href="#path-33"></use>
                            </g>
                        </g>
                        <g id="3" transform="translate(373.000000, 44.000000)">
                            <g id="btn-left-6">
                                <use fill="black" fill-opacity="1" filter="url(#filter-36)" xlink:href="#path-35"></use>
                                <use fill="#BDD6D2" fill-rule="evenodd" xlink:href="#path-35"></use>
                            </g>
                        </g>
                        <g id="5" transform="translate(0.897451, 216.845047)">
                            <g id="btn-left-6">
                                <use fill="black" fill-opacity="1" filter="url(#filter-38)" xlink:href="#path-37"></use>
                                <use fill="#6FA1B8" fill-rule="evenodd" xlink:href="#path-37"></use>
                            </g>
                        </g>
                        <g id="5" transform="translate(63.000000, 209.000000)">
                            <g id="btn-left-6">
                                <use fill="black" fill-opacity="1" filter="url(#filter-40)" xlink:href="#path-39"></use>
                                <use fill="#6FA1B8" fill-rule="evenodd" xlink:href="#path-39"></use>
                            </g>
                        </g>
                        <g id="5" transform="translate(125.000000, 201.000000)">
                            <g id="btn-left-6">
                                <use fill="black" fill-opacity="1" filter="url(#filter-42)" xlink:href="#path-41"></use>
                                <use fill="#6FA1B8" fill-rule="evenodd" xlink:href="#path-41"></use>
                            </g>
                        </g>
                        <g id="3" transform="translate(373.000000, 170.000000)">
                            <g id="btn-left-6">
                                <use fill="black" fill-opacity="1" filter="url(#filter-44)" xlink:href="#path-43"></use>
                                <use fill="#BDD6D2" fill-rule="evenodd" xlink:href="#path-43"></use>
                            </g>
                        </g>
                    </g>
                    <g id="Left-split" transform="translate(255.269256, 310.831846) scale(-1, 1) rotate(-4.000000) translate(-255.269256, -310.831846) translate(9.269256, 172.831846)">
                        <g id="4l" transform="translate(62.000000, 146.000000)">
                            <g id="btn-left-6">
                                <use fill="black" fill-opacity="1" filter="url(#filter-46)" xlink:href="#path-45"></use>
                                <use fill="#B5DAEA" fill-rule="evenodd" xlink:href="#path-45"></use>
                            </g>
                        </g>
                        <g id="4l" transform="translate(124.000000, 138.000000)">
                            <g id="btn-left-6">
                                <use fill="black" fill-opacity="1" filter="url(#filter-48)" xlink:href="#path-47"></use>
                                <use fill="#B5DAEA" fill-rule="evenodd" xlink:href="#path-47"></use>
                            </g>
                        </g>
                        <g id="3" transform="translate(186.000000, 126.000000)">
                            <g id="btn-left-6">
                                <use fill="black" fill-opacity="1" filter="url(#filter-50)" xlink:href="#path-49"></use>
                                <use fill="#BDD6D2" fill-rule="evenodd" xlink:href="#path-49"></use>
                            </g>
                        </g>
                        <g id="4l" transform="translate(248.000000, 138.000000)">
                            <g id="btn-left-6">
                                <use fill="black" fill-opacity="1" filter="url(#filter-52)" xlink:href="#path-51"></use>
                                <use fill="#B5DAEA" fill-rule="evenodd" xlink:href="#path-51"></use>
                            </g>
                        </g>
                        <g id="3" transform="translate(310.000000, 160.000000)">
                            <g id="btn-left-6">
                                <use fill="black" fill-opacity="1" filter="url(#filter-54)" xlink:href="#path-53"></use>
                                <use fill="#BDD6D2" fill-rule="evenodd" xlink:href="#path-53"></use>
                            </g>
                        </g>
                        <g id="4l" transform="translate(62.000000, 83.000000)">
                            <g id="btn-left-6">
                                <use fill="black" fill-opacity="1" filter="url(#filter-56)" xlink:href="#path-55"></use>
                                <use fill="#B5DAEA" fill-rule="evenodd" xlink:href="#path-55"></use>
                            </g>
                        </g>
                        <g id="4l" transform="translate(124.000000, 75.000000)">
                            <g id="btn-left-6">
                                <use fill="black" fill-opacity="1" filter="url(#filter-58)" xlink:href="#path-57"></use>
                                <use fill="#B5DAEA" fill-rule="evenodd" xlink:href="#path-57"></use>
                            </g>
                        </g>
                        <g id="3" transform="translate(186.000000, 63.000000)">
                            <g id="btn-left-6">
                                <use fill="black" fill-opacity="1" filter="url(#filter-60)" xlink:href="#path-59"></use>
                                <use fill="#BDD6D2" fill-rule="evenodd" xlink:href="#path-59"></use>
                            </g>
                        </g>
                        <g id="4l" transform="translate(248.000000, 75.000000)">
                            <g id="btn-left-6">
                                <use fill="black" fill-opacity="1" filter="url(#filter-62)" xlink:href="#path-61"></use>
                                <use fill="#B5DAEA" fill-rule="evenodd" xlink:href="#path-61"></use>
                            </g>
                        </g>
                        <g id="3" transform="translate(310.000000, 97.000000)">
                            <g id="btn-left-6">
                                <use fill="black" fill-opacity="1" filter="url(#filter-64)" xlink:href="#path-63"></use>
                                <use fill="#BDD6D2" fill-rule="evenodd" xlink:href="#path-63"></use>
                            </g>
                        </g>
                        <g id="3" transform="translate(372.000000, 107.000000)">
                            <g id="btn-left-6">
                                <use fill="black" fill-opacity="1" filter="url(#filter-66)" xlink:href="#path-65"></use>
                                <use fill="#BDD6D2" fill-rule="evenodd" xlink:href="#path-65"></use>
                            </g>
                        </g>
                        <g id="3" transform="translate(434.000000, 93.000000)">
                            <g id="btn-left-6">
                                <use fill="black" fill-opacity="1" filter="url(#filter-68)" xlink:href="#path-67"></use>
                                <use fill="#BDD6D2" fill-rule="evenodd" xlink:href="#path-67"></use>
                            </g>
                        </g>
                        <g id="4l" transform="translate(62.000000, 20.000000)">
                            <g id="btn-left-6">
                                <use fill="black" fill-opacity="1" filter="url(#filter-70)" xlink:href="#path-69"></use>
                                <use fill="#B5DAEA" fill-rule="evenodd" xlink:href="#path-69"></use>
                            </g>
                        </g>
                        <g id="4l" transform="translate(124.000000, 12.000000)">
                            <g id="btn-left-6">
                                <use fill="black" fill-opacity="1" filter="url(#filter-72)" xlink:href="#path-71"></use>
                                <use fill="#B5DAEA" fill-rule="evenodd" xlink:href="#path-71"></use>
                            </g>
                        </g>
                        <g id="3" transform="translate(186.000000, 0.000000)">
                            <g id="btn-left-6">
                                <use fill="black" fill-opacity="1" filter="url(#filter-74)" xlink:href="#path-73"></use>
                                <use fill="#BDD6D2" fill-rule="evenodd" xlink:href="#path-73"></use>
                            </g>
                        </g>
                        <g id="4l" transform="translate(248.000000, 12.000000)">
                            <g id="btn-left-6">
                                <use fill="black" fill-opacity="1" filter="url(#filter-76)" xlink:href="#path-75"></use>
                                <use fill="#B5DAEA" fill-rule="evenodd" xlink:href="#path-75"></use>
                            </g>
                        </g>
                        <g id="3" transform="translate(310.000000, 34.000000)">
                            <g id="btn-left-6">
                                <use fill="black" fill-opacity="1" filter="url(#filter-78)" xlink:href="#path-77"></use>
                                <use fill="#BDD6D2" fill-rule="evenodd" xlink:href="#path-77"></use>
                            </g>
                        </g>
                        <g id="3" transform="translate(372.000000, 44.000000)">
                            <g id="btn-left-6">
                                <use fill="black" fill-opacity="1" filter="url(#filter-80)" xlink:href="#path-79"></use>
                                <use fill="#BDD6D2" fill-rule="evenodd" xlink:href="#path-79"></use>
                            </g>
                        </g>
                        <g id="5" transform="translate(0.720974, 216.990256)">
                            <g id="btn-left-6">
                                <use fill="black" fill-opacity="1" filter="url(#filter-82)" xlink:href="#path-81"></use>
                                <use fill="#6FA1B8" fill-rule="evenodd" xlink:href="#path-81"></use>
                            </g>
                        </g>
                        <g id="5" transform="translate(62.000000, 209.000000)">
                            <g id="btn-left-6">
                                <use fill="black" fill-opacity="1" filter="url(#filter-84)" xlink:href="#path-83"></use>
                                <use fill="#6FA1B8" fill-rule="evenodd" xlink:href="#path-83"></use>
                            </g>
                        </g>
                        <g id="5" transform="translate(124.000000, 201.000000)">
                            <g id="btn-left-6">
                                <use fill="black" fill-opacity="1" filter="url(#filter-86)" xlink:href="#path-85"></use>
                                <use fill="#6FA1B8" fill-rule="evenodd" xlink:href="#path-85"></use>
                            </g>
                        </g>
                        <g id="3" transform="translate(372.000000, 170.000000)">
                            <g id="btn-left-6">
                                <use fill="black" fill-opacity="1" filter="url(#filter-88)" xlink:href="#path-87"></use>
                                <use fill="#BDD6D2" fill-rule="evenodd" xlink:href="#path-87"></use>
                            </g>
                        </g>
                    </g>
                </g>
                <g id="Left-Hand-Copy-4" transform="translate(814.909987, 241.301839) rotate(-12.000000) translate(-814.909987, -241.301839) translate(637.409987, 146.801839)">
                    <path d="M104,188.496403 C104,188.496403 122.916915,144.907712 128.843731,89.5933385 C134.770548,34.2789655 196.871359,5.12786221 204.107754,3.34236563 C232.207095,-3.59082159 255.347836,6.79458552 255.347836,6.79458552 C255.347836,6.79458552 282.380202,19.8786696 234.8285,47.2519091 C220.567688,77.8671973 220.484922,66.4535296 207.259493,89.5933356 C203.297183,120.351471 200.929826,125.948733 200.929826,125.948733 L187.779703,188.496403" id="Path-1" stroke="url(#linearGradient-90)" fill="url(#linearGradient-89)" transform="translate(183.500000, 94.726619) scale(-1, 1) translate(-183.500000, -94.726619) "></path>
                    <path d="M47,187.539568 C47,187.539568 56.410669,166.4383 72.860192,121.419786 C78.1512506,106.939391 85.9017768,91.093138 92.4947823,71.2599423 C132.62866,8.89073913 162.42256,21.0505255 162.42256,21.0505255 C162.42256,21.0505255 193.768495,33.4120647 170.253251,67.3262173 C168.668732,72.5654344 167.031622,85.7321123 161.125701,96.1198474 C144.770752,174.385496 147.088521,187.539565 147.088521,187.539565" id="Path-2" stroke="url(#linearGradient-92)" fill="url(#linearGradient-91)" transform="translate(113.000000, 103.816547) scale(-1, 1) translate(-113.000000, -103.816547) "></path>
                    <path d="M0.069761448,188.496403 C-0.884421199,174.938962 7.70322303,142.062159 41.0996153,139.011734 C70.6792763,135.96131 63.0458161,159.587774 61.6145422,164.721346 C59.7061769,181.378747 64,188.496403 64,188.496403" id="Path-3" stroke="url(#linearGradient-94)" fill="url(#linearGradient-93)" transform="translate(32.000000, 163.618705) scale(-1, 1) translate(-32.000000, -163.618705) "></path>
                    <path d="M304,112.840818 C303.520755,105.553133 302.746394,100.106077 302.083019,95.077088 C300.490667,83.0056027 299.686792,80.0462412 296.811321,69.5701965 C293.843701,58.7584353 286.562691,52.7915815 269.015094,33.5872606 C234.988679,-9.22787859 178.916981,-3.30663471 177,8.99133084 C177,8.99133084 215.339623,30.398904 228.758491,58.6386735 C235.983878,73.8443729 238.343396,86.8784429 238.822642,90.0668043 C239.301887,93.2551658 239.301887,95.0770866 239.301887,95.0770866 C239.301887,95.0770866 238.983529,96.1409565 239.301887,96.4435272 C240.5,110.107933 243.557735,121.459786 244.09434,126.049741 C245.05283,134.248384 256.341987,169.659172 262.784906,187.539568" id="Path-4" stroke="url(#linearGradient-96)" fill="url(#linearGradient-95)"></path>
                    <path d="M355,187.539568 C355,187.539562 354.043477,128.227711 346.391304,105.415458 C342.773039,94.6288773 335.869565,78.9532417 317.217391,52.0347879 C298.565217,25.1163342 264.413183,1.27784758 245,12.3414662 C245,12.3414662 250.07724,15.3791924 252.652174,17.3601617 C255.019269,19.1812346 259.826087,23.2913476 259.826087,23.2913476 C259.826087,23.2913476 261.73913,24.2038365 284.217391,49.7535615 C284.316022,50.0358314 285.564865,51.4322749 286.130435,52.0347868 C286.968904,52.9280223 288.19181,54.4481309 288.521739,54.7722571 C289.704169,55.9338918 290.100487,56.905981 291.869565,59.3347087 C295.732027,64.6373975 301.157934,76.423615 304.304348,112.715379 C307.652174,184.8021 315.782609,187.539562 315.782609,187.539562" id="Path-5" stroke="url(#linearGradient-98)" fill="url(#linearGradient-97)"></path>
                </g>
                <g id="Left-Hand-Copy-6" transform="translate(232.909987, 357.301839) scale(-1, 1) rotate(-1.000000) translate(-232.909987, -357.301839) translate(55.409987, 262.801839)">
                    <path d="M104,188.496403 C104,188.496403 122.916915,144.907712 128.843731,89.5933385 C134.770548,34.2789655 196.871359,5.12786221 204.107754,3.34236563 C232.207095,-3.59082159 255.347836,6.79458552 255.347836,6.79458552 C255.347836,6.79458552 282.380202,19.8786696 234.8285,47.2519091 C220.567688,77.8671973 220.484922,66.4535296 207.259493,89.5933356 C203.297183,120.351471 200.929826,125.948733 200.929826,125.948733 L187.779703,188.496403" id="Path-1" stroke="url(#linearGradient-90)" fill="url(#linearGradient-89)" transform="translate(183.500000, 94.726619) scale(-1, 1) translate(-183.500000, -94.726619) "></path>
                    <path d="M47,187.539568 C47,187.539568 56.410669,166.4383 72.860192,121.419786 C78.1512506,106.939391 85.9017768,91.093138 92.4947823,71.2599423 C132.62866,8.89073913 162.42256,21.0505255 162.42256,21.0505255 C162.42256,21.0505255 193.768495,33.4120647 170.253251,67.3262173 C168.668732,72.5654344 167.031622,85.7321123 161.125701,96.1198474 C144.770752,174.385496 147.088521,187.539565 147.088521,187.539565" id="Path-2" stroke="url(#linearGradient-92)" fill="url(#linearGradient-91)" transform="translate(113.000000, 103.816547) scale(-1, 1) translate(-113.000000, -103.816547) "></path>
                    <path d="M0.069761448,188.496403 C-0.884421199,174.938962 7.70322303,142.062159 41.0996153,139.011734 C70.6792763,135.96131 63.0458161,159.587774 61.6145422,164.721346 C59.7061769,181.378747 64,188.496403 64,188.496403" id="Path-3" stroke="url(#linearGradient-94)" fill="url(#linearGradient-93)" transform="translate(32.000000, 163.618705) scale(-1, 1) translate(-32.000000, -163.618705) "></path>
                    <path d="M304,112.840818 C303.520755,105.553133 302.746394,100.106077 302.083019,95.077088 C300.490667,83.0056027 299.686792,80.0462412 296.811321,69.5701965 C293.843701,58.7584353 286.562691,52.7915815 269.015094,33.5872606 C234.988679,-9.22787859 178.916981,-3.30663471 177,8.99133084 C177,8.99133084 215.339623,30.398904 228.758491,58.6386735 C235.983878,73.8443729 238.343396,86.8784429 238.822642,90.0668043 C239.301887,93.2551658 239.301887,95.0770866 239.301887,95.0770866 C239.301887,95.0770866 238.983529,96.1409565 239.301887,96.4435272 C240.5,110.107933 243.557735,121.459786 244.09434,126.049741 C245.05283,134.248384 256.341987,169.659172 262.784906,187.539568" id="Path-4" stroke="url(#linearGradient-96)" fill="url(#linearGradient-95)"></path>
                    <path d="M355,187.539568 C355,187.539562 354.043477,128.227711 346.391304,105.415458 C342.773039,94.6288773 335.869565,78.9532417 317.217391,52.0347879 C298.565217,25.1163342 264.413183,1.27784758 245,12.3414662 C245,12.3414662 250.07724,15.3791924 252.652174,17.3601617 C255.019269,19.1812346 259.826087,23.2913476 259.826087,23.2913476 C259.826087,23.2913476 261.73913,24.2038365 284.217391,49.7535615 C284.316022,50.0358314 285.564865,51.4322749 286.130435,52.0347868 C286.968904,52.9280223 288.19181,54.4481309 288.521739,54.7722571 C289.704169,55.9338918 290.100487,56.905981 291.869565,59.3347087 C295.732027,64.6373975 301.157934,76.423615 304.304348,112.715379 C307.652174,184.8021 315.782609,187.539562 315.782609,187.539562" id="Path-5" stroke="url(#linearGradient-98)" fill="url(#linearGradient-97)"></path>
                </g>
            </g>
        </g>
    </g>
</svg>