<svg xmlns="http://www.w3.org/2000/svg" xmlns:xlink="http://www.w3.org/1999/xlink" width="58" height="60" viewBox="0 0 58 60"><title>Jian-key-T1-9</title><defs><path id="b" d="M2.051 0H55.95c.713 0 .972.074 1.232.214.261.14.466.344.605.605.14.26.214.519.214 1.232V56.95c0 .713-.074.972-.214 1.232-.14.261-.344.466-.605.605-.26.14-.519.214-1.232.214H2.05c-.713 0-.972-.074-1.232-.214a1.454 1.454 0 0 1-.605-.605C.074 57.921 0 57.662 0 56.95V2.05C0 1.338.074 1.08.214.82.354.558.558.353.819.214 1.079.074 1.338 0 2.05 0z"/><filter id="a" width="101.7%" height="103.4%" x="-.9%" y="-.8%" filterUnits="objectBoundingBox"><feOffset dy="1" in="SourceAlpha" result="shadowOffsetOuter1"/><feColorMatrix in="shadowOffsetOuter1" values="0 0 0 0 0.433395607 0 0 0 0 0.433395607 0 0 0 0 0.433395607 0 0 0 0.5 0"/></filter></defs><g fill="none" fill-rule="evenodd"><g><use fill="#000" filter="url(#a)" xlink:href="#b"/><use fill="#E5E6EB" xlink:href="#b"/></g><text fill="#5B5B5B" font-family="SFProDisplay-Regular, SF Pro Display" font-size="16.8"><tspan x="22.446" y="35.5">%</tspan></text></g></svg>