<svg xmlns="http://www.w3.org/2000/svg" xmlns:xlink="http://www.w3.org/1999/xlink" width="66" height="70" viewBox="0 0 66 70"><title>Jian-key-T3-5</title><defs><path id="b" d="M2.564 0h60.872c.892 0 1.215.093 1.54.267.327.174.583.43.757.756.174.326.267.65.267 1.54v63.873c0 .892-.093 1.215-.267 1.54-.174.327-.43.583-.756.757-.326.174-.65.267-1.54.267H2.563c-.892 0-1.215-.093-1.54-.267a1.817 1.817 0 0 1-.757-.756C.093 67.65 0 67.327 0 66.437V2.563c0-.892.093-1.215.267-1.54.174-.327.43-.583.756-.757C1.35.093 1.673 0 2.563 0z"/><filter id="a" width="101.5%" height="102.9%" x="-.8%" y="-.7%" filterUnits="objectBoundingBox"><feOffset dy="1" in="SourceAlpha" result="shadowOffsetOuter1"/><feColorMatrix in="shadowOffsetOuter1" values="0 0 0 0 0.433395607 0 0 0 0 0.433395607 0 0 0 0 0.433395607 0 0 0 0.5 0"/></filter></defs><g fill="none" fill-rule="evenodd"><g><use fill="#000" filter="url(#a)" xlink:href="#b"/><use fill="#D2E5F4" xlink:href="#b"/></g><text fill="#636363" font-family="SFCompactText-Medium, SF Compact Text" font-size="12" font-weight="400"><tspan x="8.405" y="37.915"> QWERTY</tspan></text></g></svg>