<svg xmlns="http://www.w3.org/2000/svg" xmlns:xlink="http://www.w3.org/1999/xlink" width="212" height="60" viewBox="0 0 212 60"><title>Jian-key-T2-6</title><defs><path id="b" d="M2.051 0H55.95c.713 0 .972.074 1.232.214.261.14.466.344.605.605.14.26.214.519.214 1.232V56.95c0 .713-.074.972-.214 1.232-.14.261-.344.466-.605.605-.26.14-.519.214-1.232.214H2.05c-.713 0-.972-.074-1.232-.214a1.454 1.454 0 0 1-.605-.605C.074 57.921 0 57.662 0 56.95V2.05C0 1.338.074 1.08.214.82.354.558.558.353.819.214 1.079.074 1.338 0 2.05 0z"/><filter id="a" width="101.7%" height="103.4%" x="-.9%" y="-.8%" filterUnits="objectBoundingBox"><feOffset dy="1" in="SourceAlpha" result="shadowOffsetOuter1"/><feColorMatrix in="shadowOffsetOuter1" values="0 0 0 0 0.433395607 0 0 0 0 0.433395607 0 0 0 0 0.433395607 0 0 0 0.5 0"/></filter><path id="d" d="M2.033 0h53.934c.707 0 .963.074 1.222.212.258.138.46.341.6.6.137.258.211.514.211 1.221v54.934c0 .707-.074.963-.212 1.222a1.441 1.441 0 0 1-.6.6c-.258.137-.514.211-1.221.211H2.033c-.707 0-.963-.074-1.222-.212a1.441 1.441 0 0 1-.6-.6C.075 57.93 0 57.675 0 56.968V2.033C0 1.326.074 1.07.212.811c.138-.258.341-.46.6-.6C1.07.075 1.325 0 2.032 0z"/><filter id="c" width="101.7%" height="103.4%" x="-.9%" y="-.8%" filterUnits="objectBoundingBox"><feOffset dy="1" in="SourceAlpha" result="shadowOffsetOuter1"/><feColorMatrix in="shadowOffsetOuter1" values="0 0 0 0 0.435294118 0 0 0 0 0.435294118 0 0 0 0 0.435294118 0 0 0 0.5 0"/></filter><path id="f" d="M2.033 0h53.934c.707 0 .963.074 1.222.212.258.138.46.341.6.6.137.258.211.514.211 1.221v54.934c0 .707-.074.963-.212 1.222a1.441 1.441 0 0 1-.6.6c-.258.137-.514.211-1.221.211H2.033c-.707 0-.963-.074-1.222-.212a1.441 1.441 0 0 1-.6-.6C.075 57.93 0 57.675 0 56.968V2.033C0 1.326.074 1.07.212.811c.138-.258.341-.46.6-.6C1.07.075 1.325 0 2.032 0z"/><filter id="e" width="101.7%" height="103.4%" x="-.9%" y="-.8%" filterUnits="objectBoundingBox"><feOffset dy="1" in="SourceAlpha" result="shadowOffsetOuter1"/><feColorMatrix in="shadowOffsetOuter1" values="0 0 0 0 0.433395607 0 0 0 0 0.433395607 0 0 0 0 0.433395607 0 0 0 0.5 0"/></filter></defs><g fill="none" fill-rule="evenodd"><g><use fill="#000" filter="url(#a)" xlink:href="#b"/><use fill="#D5D7E1" xlink:href="#b"/></g><text fill="#414141" font-family="SFCompactText-Regular, SF Compact Text" font-size="11.2"><tspan x="21.923" y="32.75">Alt</tspan></text><g transform="translate(77)"><use fill="#000" filter="url(#c)" xlink:href="#d"/><use fill="#F88660" xlink:href="#d"/></g><path fill="#FFF" d="M114.246 53h12.566a.793.793 0 0 0 .732-1.097l-5.913-14.242a.793.793 0 0 0-1.451-.031l-6.653 14.241a.793.793 0 0 0 .719 1.129z"/><g transform="translate(154)"><use fill="#000" filter="url(#e)" xlink:href="#f"/><use fill="#E5E6EB" xlink:href="#f"/></g><text fill="#414141" font-family="SFProDisplay-Regular, SF Pro Display" font-size="16.655" transform="translate(154)"><tspan x="8" y="22.609">Е</tspan></text><text fill="#F37735" font-family="SFProDisplay-Regular, SF Pro Display" font-size="15.069" opacity=".75" transform="translate(154)"><tspan x="41.77" y="18.348">-</tspan></text><text fill="#03B159" font-family="SFProDisplay-Medium, SF Pro Display" font-size="11.897" font-weight="400" opacity=".75" transform="translate(154)"><tspan x="38.25" y="49.826">F5</tspan></text><text fill="#000" font-family="GillSans-Bold, Gill Sans" font-size="16" font-weight="bold"><tspan x="62.164" y="36">+</tspan></text><text fill="#000" font-family="GillSans-Bold, Gill Sans" font-size="16" font-weight="bold"><tspan x="139.164" y="36">+</tspan></text></g></svg>